G04 #@! TF.GenerationSoftware,KiCad,Pcbnew,6.0.7-f9a2dced07~116~ubuntu20.04.1*
G04 #@! TF.CreationDate,2022-10-29T19:31:28+02:00*
G04 #@! TF.ProjectId,AC Relay,41432052-656c-4617-992e-6b696361645f,rev?*
G04 #@! TF.SameCoordinates,Original*
G04 #@! TF.FileFunction,Legend,Bot*
G04 #@! TF.FilePolarity,Positive*
%FSLAX46Y46*%
G04 Gerber Fmt 4.6, Leading zero omitted, Abs format (unit mm)*
G04 Created by KiCad (PCBNEW 6.0.7-f9a2dced07~116~ubuntu20.04.1) date 2022-10-29 19:31:28*
%MOMM*%
%LPD*%
G01*
G04 APERTURE LIST*
%ADD10C,0.200000*%
%ADD11C,0.150000*%
%ADD12C,0.300000*%
%ADD13C,0.250000*%
G04 APERTURE END LIST*
D10*
X87503000Y-65151000D02*
X82677000Y-69977000D01*
X82677000Y-83185000D02*
X69850000Y-83185000D01*
X93218000Y-93091000D02*
X116840000Y-93091000D01*
X116840000Y-81661000D02*
X93218000Y-81661000D01*
X82677000Y-83185000D02*
X82677000Y-69977000D01*
X93218000Y-81661000D02*
X93218000Y-93091000D01*
X87503000Y-48260000D02*
X87503000Y-65151000D01*
X116840000Y-93091000D02*
X116840000Y-81661000D01*
X69850000Y-83185000D02*
X69850000Y-48260000D01*
X69850000Y-48260000D02*
X87503000Y-48260000D01*
D11*
X71852619Y-70514285D02*
X72328809Y-70847619D01*
X71852619Y-71085714D02*
X72852619Y-71085714D01*
X72852619Y-70704761D01*
X72805000Y-70609523D01*
X72757380Y-70561904D01*
X72662142Y-70514285D01*
X72519285Y-70514285D01*
X72424047Y-70561904D01*
X72376428Y-70609523D01*
X72328809Y-70704761D01*
X72328809Y-71085714D01*
X71900238Y-69704761D02*
X71852619Y-69800000D01*
X71852619Y-69990476D01*
X71900238Y-70085714D01*
X71995476Y-70133333D01*
X72376428Y-70133333D01*
X72471666Y-70085714D01*
X72519285Y-69990476D01*
X72519285Y-69800000D01*
X72471666Y-69704761D01*
X72376428Y-69657142D01*
X72281190Y-69657142D01*
X72185952Y-70133333D01*
X71852619Y-69085714D02*
X71900238Y-69180952D01*
X71995476Y-69228571D01*
X72852619Y-69228571D01*
X71852619Y-68276190D02*
X72376428Y-68276190D01*
X72471666Y-68323809D01*
X72519285Y-68419047D01*
X72519285Y-68609523D01*
X72471666Y-68704761D01*
X71900238Y-68276190D02*
X71852619Y-68371428D01*
X71852619Y-68609523D01*
X71900238Y-68704761D01*
X71995476Y-68752380D01*
X72090714Y-68752380D01*
X72185952Y-68704761D01*
X72233571Y-68609523D01*
X72233571Y-68371428D01*
X72281190Y-68276190D01*
X72519285Y-67895238D02*
X71852619Y-67657142D01*
X72519285Y-67419047D02*
X71852619Y-67657142D01*
X71614523Y-67752380D01*
X71566904Y-67800000D01*
X71519285Y-67895238D01*
X70242619Y-72871428D02*
X71242619Y-72871428D01*
X70528333Y-72538095D01*
X71242619Y-72204761D01*
X70242619Y-72204761D01*
X70242619Y-71300000D02*
X70766428Y-71300000D01*
X70861666Y-71347619D01*
X70909285Y-71442857D01*
X70909285Y-71633333D01*
X70861666Y-71728571D01*
X70290238Y-71300000D02*
X70242619Y-71395238D01*
X70242619Y-71633333D01*
X70290238Y-71728571D01*
X70385476Y-71776190D01*
X70480714Y-71776190D01*
X70575952Y-71728571D01*
X70623571Y-71633333D01*
X70623571Y-71395238D01*
X70671190Y-71300000D01*
X70242619Y-70919047D02*
X70909285Y-70395238D01*
X70909285Y-70919047D02*
X70242619Y-70395238D01*
X70337857Y-70014285D02*
X70290238Y-69966666D01*
X70242619Y-70014285D01*
X70290238Y-70061904D01*
X70337857Y-70014285D01*
X70242619Y-70014285D01*
X70242619Y-68252380D02*
X70242619Y-68823809D01*
X70242619Y-68538095D02*
X71242619Y-68538095D01*
X71099761Y-68633333D01*
X71004523Y-68728571D01*
X70956904Y-68823809D01*
X71242619Y-67395238D02*
X71242619Y-67585714D01*
X71195000Y-67680952D01*
X71147380Y-67728571D01*
X71004523Y-67823809D01*
X70814047Y-67871428D01*
X70433095Y-67871428D01*
X70337857Y-67823809D01*
X70290238Y-67776190D01*
X70242619Y-67680952D01*
X70242619Y-67490476D01*
X70290238Y-67395238D01*
X70337857Y-67347619D01*
X70433095Y-67300000D01*
X70671190Y-67300000D01*
X70766428Y-67347619D01*
X70814047Y-67395238D01*
X70861666Y-67490476D01*
X70861666Y-67680952D01*
X70814047Y-67776190D01*
X70766428Y-67823809D01*
X70671190Y-67871428D01*
X70528333Y-66157142D02*
X70528333Y-65680952D01*
X70242619Y-66252380D02*
X71242619Y-65919047D01*
X70242619Y-65585714D01*
D12*
X81928928Y-65595000D02*
X83428928Y-65595000D01*
X83428928Y-65237857D01*
X83357500Y-65023571D01*
X83214642Y-64880714D01*
X83071785Y-64809285D01*
X82786071Y-64737857D01*
X82571785Y-64737857D01*
X82286071Y-64809285D01*
X82143214Y-64880714D01*
X82000357Y-65023571D01*
X81928928Y-65237857D01*
X81928928Y-65595000D01*
X82357500Y-64166428D02*
X82357500Y-63452142D01*
X81928928Y-64309285D02*
X83428928Y-63809285D01*
X81928928Y-63309285D01*
X81928928Y-62809285D02*
X83428928Y-62809285D01*
X81928928Y-61952142D01*
X83428928Y-61952142D01*
X83357500Y-60452142D02*
X83428928Y-60595000D01*
X83428928Y-60809285D01*
X83357500Y-61023571D01*
X83214642Y-61166428D01*
X83071785Y-61237857D01*
X82786071Y-61309285D01*
X82571785Y-61309285D01*
X82286071Y-61237857D01*
X82143214Y-61166428D01*
X82000357Y-61023571D01*
X81928928Y-60809285D01*
X81928928Y-60666428D01*
X82000357Y-60452142D01*
X82071785Y-60380714D01*
X82571785Y-60380714D01*
X82571785Y-60666428D01*
X82714642Y-59737857D02*
X82714642Y-59237857D01*
X81928928Y-59023571D02*
X81928928Y-59737857D01*
X83428928Y-59737857D01*
X83428928Y-59023571D01*
X81928928Y-57523571D02*
X82643214Y-58023571D01*
X81928928Y-58380714D02*
X83428928Y-58380714D01*
X83428928Y-57809285D01*
X83357500Y-57666428D01*
X83286071Y-57595000D01*
X83143214Y-57523571D01*
X82928928Y-57523571D01*
X82786071Y-57595000D01*
X82714642Y-57666428D01*
X82643214Y-57809285D01*
X82643214Y-58380714D01*
X79513928Y-72452142D02*
X81013928Y-72452142D01*
X80299642Y-72452142D02*
X80299642Y-71595000D01*
X79513928Y-71595000D02*
X81013928Y-71595000D01*
X79513928Y-70880714D02*
X81013928Y-70880714D01*
X80942500Y-69380714D02*
X81013928Y-69523571D01*
X81013928Y-69737857D01*
X80942500Y-69952142D01*
X80799642Y-70095000D01*
X80656785Y-70166428D01*
X80371071Y-70237857D01*
X80156785Y-70237857D01*
X79871071Y-70166428D01*
X79728214Y-70095000D01*
X79585357Y-69952142D01*
X79513928Y-69737857D01*
X79513928Y-69595000D01*
X79585357Y-69380714D01*
X79656785Y-69309285D01*
X80156785Y-69309285D01*
X80156785Y-69595000D01*
X79513928Y-68666428D02*
X81013928Y-68666428D01*
X80299642Y-68666428D02*
X80299642Y-67809285D01*
X79513928Y-67809285D02*
X81013928Y-67809285D01*
X81013928Y-66166428D02*
X79513928Y-65666428D01*
X81013928Y-65166428D01*
X81013928Y-64380714D02*
X81013928Y-64095000D01*
X80942500Y-63952142D01*
X80799642Y-63809285D01*
X80513928Y-63737857D01*
X80013928Y-63737857D01*
X79728214Y-63809285D01*
X79585357Y-63952142D01*
X79513928Y-64095000D01*
X79513928Y-64380714D01*
X79585357Y-64523571D01*
X79728214Y-64666428D01*
X80013928Y-64737857D01*
X80513928Y-64737857D01*
X80799642Y-64666428D01*
X80942500Y-64523571D01*
X81013928Y-64380714D01*
X79513928Y-62380714D02*
X79513928Y-63095000D01*
X81013928Y-63095000D01*
X81013928Y-62095000D02*
X81013928Y-61237857D01*
X79513928Y-61666428D02*
X81013928Y-61666428D01*
X79942500Y-60809285D02*
X79942500Y-60095000D01*
X79513928Y-60952142D02*
X81013928Y-60452142D01*
X79513928Y-59952142D01*
X80942500Y-58666428D02*
X81013928Y-58809285D01*
X81013928Y-59023571D01*
X80942500Y-59237857D01*
X80799642Y-59380714D01*
X80656785Y-59452142D01*
X80371071Y-59523571D01*
X80156785Y-59523571D01*
X79871071Y-59452142D01*
X79728214Y-59380714D01*
X79585357Y-59237857D01*
X79513928Y-59023571D01*
X79513928Y-58880714D01*
X79585357Y-58666428D01*
X79656785Y-58595000D01*
X80156785Y-58595000D01*
X80156785Y-58880714D01*
X80299642Y-57952142D02*
X80299642Y-57452142D01*
X79513928Y-57237857D02*
X79513928Y-57952142D01*
X81013928Y-57952142D01*
X81013928Y-57237857D01*
X79942500Y-55523571D02*
X79942500Y-54809285D01*
X79513928Y-55666428D02*
X81013928Y-55166428D01*
X79513928Y-54666428D01*
X79513928Y-53309285D02*
X80228214Y-53809285D01*
X79513928Y-54166428D02*
X81013928Y-54166428D01*
X81013928Y-53595000D01*
X80942500Y-53452142D01*
X80871071Y-53380714D01*
X80728214Y-53309285D01*
X80513928Y-53309285D01*
X80371071Y-53380714D01*
X80299642Y-53452142D01*
X80228214Y-53595000D01*
X80228214Y-54166428D01*
X80299642Y-52666428D02*
X80299642Y-52166428D01*
X79513928Y-51952142D02*
X79513928Y-52666428D01*
X81013928Y-52666428D01*
X81013928Y-51952142D01*
X79942500Y-51380714D02*
X79942500Y-50666428D01*
X79513928Y-51523571D02*
X81013928Y-51023571D01*
X79513928Y-50523571D01*
D13*
X116614023Y-73527666D02*
X116137833Y-73527666D01*
X116709261Y-73813380D02*
X116375928Y-72813380D01*
X116042595Y-73813380D01*
X115137833Y-73718142D02*
X115185452Y-73765761D01*
X115328309Y-73813380D01*
X115423547Y-73813380D01*
X115566404Y-73765761D01*
X115661642Y-73670523D01*
X115709261Y-73575285D01*
X115756880Y-73384809D01*
X115756880Y-73241952D01*
X115709261Y-73051476D01*
X115661642Y-72956238D01*
X115566404Y-72861000D01*
X115423547Y-72813380D01*
X115328309Y-72813380D01*
X115185452Y-72861000D01*
X115137833Y-72908619D01*
X113375928Y-73813380D02*
X113709261Y-73337190D01*
X113947357Y-73813380D02*
X113947357Y-72813380D01*
X113566404Y-72813380D01*
X113471166Y-72861000D01*
X113423547Y-72908619D01*
X113375928Y-73003857D01*
X113375928Y-73146714D01*
X113423547Y-73241952D01*
X113471166Y-73289571D01*
X113566404Y-73337190D01*
X113947357Y-73337190D01*
X112566404Y-73765761D02*
X112661642Y-73813380D01*
X112852119Y-73813380D01*
X112947357Y-73765761D01*
X112994976Y-73670523D01*
X112994976Y-73289571D01*
X112947357Y-73194333D01*
X112852119Y-73146714D01*
X112661642Y-73146714D01*
X112566404Y-73194333D01*
X112518785Y-73289571D01*
X112518785Y-73384809D01*
X112994976Y-73480047D01*
X111947357Y-73813380D02*
X112042595Y-73765761D01*
X112090214Y-73670523D01*
X112090214Y-72813380D01*
X111137833Y-73813380D02*
X111137833Y-73289571D01*
X111185452Y-73194333D01*
X111280690Y-73146714D01*
X111471166Y-73146714D01*
X111566404Y-73194333D01*
X111137833Y-73765761D02*
X111233071Y-73813380D01*
X111471166Y-73813380D01*
X111566404Y-73765761D01*
X111614023Y-73670523D01*
X111614023Y-73575285D01*
X111566404Y-73480047D01*
X111471166Y-73432428D01*
X111233071Y-73432428D01*
X111137833Y-73384809D01*
X110756880Y-73146714D02*
X110518785Y-73813380D01*
X110280690Y-73146714D02*
X110518785Y-73813380D01*
X110614023Y-74051476D01*
X110661642Y-74099095D01*
X110756880Y-74146714D01*
X109137833Y-73432428D02*
X108375928Y-73432428D01*
X107137833Y-73289571D02*
X106804500Y-73289571D01*
X106661642Y-73813380D02*
X107137833Y-73813380D01*
X107137833Y-72813380D01*
X106661642Y-72813380D01*
X106280690Y-73765761D02*
X106137833Y-73813380D01*
X105899738Y-73813380D01*
X105804500Y-73765761D01*
X105756880Y-73718142D01*
X105709261Y-73622904D01*
X105709261Y-73527666D01*
X105756880Y-73432428D01*
X105804500Y-73384809D01*
X105899738Y-73337190D01*
X106090214Y-73289571D01*
X106185452Y-73241952D01*
X106233071Y-73194333D01*
X106280690Y-73099095D01*
X106280690Y-73003857D01*
X106233071Y-72908619D01*
X106185452Y-72861000D01*
X106090214Y-72813380D01*
X105852119Y-72813380D01*
X105709261Y-72861000D01*
X105280690Y-73813380D02*
X105280690Y-72813380D01*
X104899738Y-72813380D01*
X104804500Y-72861000D01*
X104756880Y-72908619D01*
X104709261Y-73003857D01*
X104709261Y-73146714D01*
X104756880Y-73241952D01*
X104804500Y-73289571D01*
X104899738Y-73337190D01*
X105280690Y-73337190D01*
X104137833Y-73241952D02*
X104233071Y-73194333D01*
X104280690Y-73146714D01*
X104328309Y-73051476D01*
X104328309Y-73003857D01*
X104280690Y-72908619D01*
X104233071Y-72861000D01*
X104137833Y-72813380D01*
X103947357Y-72813380D01*
X103852119Y-72861000D01*
X103804500Y-72908619D01*
X103756880Y-73003857D01*
X103756880Y-73051476D01*
X103804500Y-73146714D01*
X103852119Y-73194333D01*
X103947357Y-73241952D01*
X104137833Y-73241952D01*
X104233071Y-73289571D01*
X104280690Y-73337190D01*
X104328309Y-73432428D01*
X104328309Y-73622904D01*
X104280690Y-73718142D01*
X104233071Y-73765761D01*
X104137833Y-73813380D01*
X103947357Y-73813380D01*
X103852119Y-73765761D01*
X103804500Y-73718142D01*
X103756880Y-73622904D01*
X103756880Y-73432428D01*
X103804500Y-73337190D01*
X103852119Y-73289571D01*
X103947357Y-73241952D01*
X103375928Y-72908619D02*
X103328309Y-72861000D01*
X103233071Y-72813380D01*
X102994976Y-72813380D01*
X102899738Y-72861000D01*
X102852119Y-72908619D01*
X102804500Y-73003857D01*
X102804500Y-73099095D01*
X102852119Y-73241952D01*
X103423547Y-73813380D01*
X102804500Y-73813380D01*
X101947357Y-72813380D02*
X102137833Y-72813380D01*
X102233071Y-72861000D01*
X102280690Y-72908619D01*
X102375928Y-73051476D01*
X102423547Y-73241952D01*
X102423547Y-73622904D01*
X102375928Y-73718142D01*
X102328309Y-73765761D01*
X102233071Y-73813380D01*
X102042595Y-73813380D01*
X101947357Y-73765761D01*
X101899738Y-73718142D01*
X101852119Y-73622904D01*
X101852119Y-73384809D01*
X101899738Y-73289571D01*
X101947357Y-73241952D01*
X102042595Y-73194333D01*
X102233071Y-73194333D01*
X102328309Y-73241952D01*
X102375928Y-73289571D01*
X102423547Y-73384809D01*
X100994976Y-72813380D02*
X101185452Y-72813380D01*
X101280690Y-72861000D01*
X101328309Y-72908619D01*
X101423547Y-73051476D01*
X101471166Y-73241952D01*
X101471166Y-73622904D01*
X101423547Y-73718142D01*
X101375928Y-73765761D01*
X101280690Y-73813380D01*
X101090214Y-73813380D01*
X100994976Y-73765761D01*
X100947357Y-73718142D01*
X100899738Y-73622904D01*
X100899738Y-73384809D01*
X100947357Y-73289571D01*
X100994976Y-73241952D01*
X101090214Y-73194333D01*
X101280690Y-73194333D01*
X101375928Y-73241952D01*
X101423547Y-73289571D01*
X101471166Y-73384809D01*
X116566404Y-75423380D02*
X116566404Y-74423380D01*
X116328309Y-74423380D01*
X116185452Y-74471000D01*
X116090214Y-74566238D01*
X116042595Y-74661476D01*
X115994976Y-74851952D01*
X115994976Y-74994809D01*
X116042595Y-75185285D01*
X116090214Y-75280523D01*
X116185452Y-75375761D01*
X116328309Y-75423380D01*
X116566404Y-75423380D01*
X115185452Y-75375761D02*
X115280690Y-75423380D01*
X115471166Y-75423380D01*
X115566404Y-75375761D01*
X115614023Y-75280523D01*
X115614023Y-74899571D01*
X115566404Y-74804333D01*
X115471166Y-74756714D01*
X115280690Y-74756714D01*
X115185452Y-74804333D01*
X115137833Y-74899571D01*
X115137833Y-74994809D01*
X115614023Y-75090047D01*
X114756880Y-75375761D02*
X114661642Y-75423380D01*
X114471166Y-75423380D01*
X114375928Y-75375761D01*
X114328309Y-75280523D01*
X114328309Y-75232904D01*
X114375928Y-75137666D01*
X114471166Y-75090047D01*
X114614023Y-75090047D01*
X114709261Y-75042428D01*
X114756880Y-74947190D01*
X114756880Y-74899571D01*
X114709261Y-74804333D01*
X114614023Y-74756714D01*
X114471166Y-74756714D01*
X114375928Y-74804333D01*
X113899738Y-75423380D02*
X113899738Y-74756714D01*
X113899738Y-74423380D02*
X113947357Y-74471000D01*
X113899738Y-74518619D01*
X113852119Y-74471000D01*
X113899738Y-74423380D01*
X113899738Y-74518619D01*
X112994976Y-74756714D02*
X112994976Y-75566238D01*
X113042595Y-75661476D01*
X113090214Y-75709095D01*
X113185452Y-75756714D01*
X113328309Y-75756714D01*
X113423547Y-75709095D01*
X112994976Y-75375761D02*
X113090214Y-75423380D01*
X113280690Y-75423380D01*
X113375928Y-75375761D01*
X113423547Y-75328142D01*
X113471166Y-75232904D01*
X113471166Y-74947190D01*
X113423547Y-74851952D01*
X113375928Y-74804333D01*
X113280690Y-74756714D01*
X113090214Y-74756714D01*
X112994976Y-74804333D01*
X112518785Y-74756714D02*
X112518785Y-75423380D01*
X112518785Y-74851952D02*
X112471166Y-74804333D01*
X112375928Y-74756714D01*
X112233071Y-74756714D01*
X112137833Y-74804333D01*
X112090214Y-74899571D01*
X112090214Y-75423380D01*
X110852119Y-75423380D02*
X110852119Y-74423380D01*
X110852119Y-74804333D02*
X110756880Y-74756714D01*
X110566404Y-74756714D01*
X110471166Y-74804333D01*
X110423547Y-74851952D01*
X110375928Y-74947190D01*
X110375928Y-75232904D01*
X110423547Y-75328142D01*
X110471166Y-75375761D01*
X110566404Y-75423380D01*
X110756880Y-75423380D01*
X110852119Y-75375761D01*
X110042595Y-74756714D02*
X109804500Y-75423380D01*
X109566404Y-74756714D02*
X109804500Y-75423380D01*
X109899738Y-75661476D01*
X109947357Y-75709095D01*
X110042595Y-75756714D01*
X108423547Y-74899571D02*
X108090214Y-74899571D01*
X107947357Y-75423380D02*
X108423547Y-75423380D01*
X108423547Y-74423380D01*
X107947357Y-74423380D01*
X107518785Y-74756714D02*
X107518785Y-75423380D01*
X107518785Y-74851952D02*
X107471166Y-74804333D01*
X107375928Y-74756714D01*
X107233071Y-74756714D01*
X107137833Y-74804333D01*
X107090214Y-74899571D01*
X107090214Y-75423380D01*
X106614023Y-75423380D02*
X106614023Y-74756714D01*
X106614023Y-74947190D02*
X106566404Y-74851952D01*
X106518785Y-74804333D01*
X106423547Y-74756714D01*
X106328309Y-74756714D01*
X105994976Y-75423380D02*
X105994976Y-74756714D01*
X105994976Y-74423380D02*
X106042595Y-74471000D01*
X105994976Y-74518619D01*
X105947357Y-74471000D01*
X105994976Y-74423380D01*
X105994976Y-74518619D01*
X105090214Y-74756714D02*
X105090214Y-75756714D01*
X105090214Y-75375761D02*
X105185452Y-75423380D01*
X105375928Y-75423380D01*
X105471166Y-75375761D01*
X105518785Y-75328142D01*
X105566404Y-75232904D01*
X105566404Y-74947190D01*
X105518785Y-74851952D01*
X105471166Y-74804333D01*
X105375928Y-74756714D01*
X105185452Y-74756714D01*
X105090214Y-74804333D01*
X104185452Y-74756714D02*
X104185452Y-75423380D01*
X104614023Y-74756714D02*
X104614023Y-75280523D01*
X104566404Y-75375761D01*
X104471166Y-75423380D01*
X104328309Y-75423380D01*
X104233071Y-75375761D01*
X104185452Y-75328142D01*
X103328309Y-75375761D02*
X103423547Y-75423380D01*
X103614023Y-75423380D01*
X103709261Y-75375761D01*
X103756880Y-75280523D01*
X103756880Y-74899571D01*
X103709261Y-74804333D01*
X103614023Y-74756714D01*
X103423547Y-74756714D01*
X103328309Y-74804333D01*
X103280690Y-74899571D01*
X103280690Y-74994809D01*
X103756880Y-75090047D01*
X101566404Y-74471000D02*
X101661642Y-74423380D01*
X101804500Y-74423380D01*
X101947357Y-74471000D01*
X102042595Y-74566238D01*
X102090214Y-74661476D01*
X102137833Y-74851952D01*
X102137833Y-74994809D01*
X102090214Y-75185285D01*
X102042595Y-75280523D01*
X101947357Y-75375761D01*
X101804500Y-75423380D01*
X101709261Y-75423380D01*
X101566404Y-75375761D01*
X101518785Y-75328142D01*
X101518785Y-74994809D01*
X101709261Y-74994809D01*
X100947357Y-75423380D02*
X101042595Y-75375761D01*
X101090214Y-75328142D01*
X101137833Y-75232904D01*
X101137833Y-74947190D01*
X101090214Y-74851952D01*
X101042595Y-74804333D01*
X100947357Y-74756714D01*
X100804500Y-74756714D01*
X100709261Y-74804333D01*
X100661642Y-74851952D01*
X100614023Y-74947190D01*
X100614023Y-75232904D01*
X100661642Y-75328142D01*
X100709261Y-75375761D01*
X100804500Y-75423380D01*
X100947357Y-75423380D01*
X100756880Y-74375761D02*
X100899738Y-74518619D01*
X100185452Y-75423380D02*
X100185452Y-74756714D01*
X100185452Y-74851952D02*
X100137833Y-74804333D01*
X100042595Y-74756714D01*
X99899738Y-74756714D01*
X99804500Y-74804333D01*
X99756880Y-74899571D01*
X99756880Y-75423380D01*
X99756880Y-74899571D02*
X99709261Y-74804333D01*
X99614023Y-74756714D01*
X99471166Y-74756714D01*
X99375928Y-74804333D01*
X99328309Y-74899571D01*
X99328309Y-75423380D01*
X98471166Y-75375761D02*
X98566404Y-75423380D01*
X98756880Y-75423380D01*
X98852119Y-75375761D01*
X98899738Y-75280523D01*
X98899738Y-74899571D01*
X98852119Y-74804333D01*
X98756880Y-74756714D01*
X98566404Y-74756714D01*
X98471166Y-74804333D01*
X98423547Y-74899571D01*
X98423547Y-74994809D01*
X98899738Y-75090047D01*
X98090214Y-74756714D02*
X97566404Y-74756714D01*
X98090214Y-75423380D01*
X97566404Y-75423380D01*
X115994976Y-76938142D02*
X116042595Y-76985761D01*
X116185452Y-77033380D01*
X116280690Y-77033380D01*
X116423547Y-76985761D01*
X116518785Y-76890523D01*
X116566404Y-76795285D01*
X116614023Y-76604809D01*
X116614023Y-76461952D01*
X116566404Y-76271476D01*
X116518785Y-76176238D01*
X116423547Y-76081000D01*
X116280690Y-76033380D01*
X116185452Y-76033380D01*
X116042595Y-76081000D01*
X115994976Y-76128619D01*
X114994976Y-76938142D02*
X115042595Y-76985761D01*
X115185452Y-77033380D01*
X115280690Y-77033380D01*
X115423547Y-76985761D01*
X115518785Y-76890523D01*
X115566404Y-76795285D01*
X115614023Y-76604809D01*
X115614023Y-76461952D01*
X115566404Y-76271476D01*
X115518785Y-76176238D01*
X115423547Y-76081000D01*
X115280690Y-76033380D01*
X115185452Y-76033380D01*
X115042595Y-76081000D01*
X114994976Y-76128619D01*
X113471166Y-76509571D02*
X113328309Y-76557190D01*
X113280690Y-76604809D01*
X113233071Y-76700047D01*
X113233071Y-76842904D01*
X113280690Y-76938142D01*
X113328309Y-76985761D01*
X113423547Y-77033380D01*
X113804500Y-77033380D01*
X113804500Y-76033380D01*
X113471166Y-76033380D01*
X113375928Y-76081000D01*
X113328309Y-76128619D01*
X113280690Y-76223857D01*
X113280690Y-76319095D01*
X113328309Y-76414333D01*
X113375928Y-76461952D01*
X113471166Y-76509571D01*
X113804500Y-76509571D01*
X112614023Y-76557190D02*
X112614023Y-77033380D01*
X112947357Y-76033380D02*
X112614023Y-76557190D01*
X112280690Y-76033380D01*
X111947357Y-76652428D02*
X111185452Y-76652428D01*
X110756880Y-76985761D02*
X110614023Y-77033380D01*
X110375928Y-77033380D01*
X110280690Y-76985761D01*
X110233071Y-76938142D01*
X110185452Y-76842904D01*
X110185452Y-76747666D01*
X110233071Y-76652428D01*
X110280690Y-76604809D01*
X110375928Y-76557190D01*
X110566404Y-76509571D01*
X110661642Y-76461952D01*
X110709261Y-76414333D01*
X110756880Y-76319095D01*
X110756880Y-76223857D01*
X110709261Y-76128619D01*
X110661642Y-76081000D01*
X110566404Y-76033380D01*
X110328309Y-76033380D01*
X110185452Y-76081000D01*
X109804500Y-76747666D02*
X109328309Y-76747666D01*
X109899738Y-77033380D02*
X109566404Y-76033380D01*
X109233071Y-77033380D01*
X107709261Y-76366714D02*
X107709261Y-77033380D01*
X107947357Y-75985761D02*
X108185452Y-76700047D01*
X107566404Y-76700047D01*
X107185452Y-76938142D02*
X107137833Y-76985761D01*
X107185452Y-77033380D01*
X107233071Y-76985761D01*
X107185452Y-76938142D01*
X107185452Y-77033380D01*
X106518785Y-76033380D02*
X106423547Y-76033380D01*
X106328309Y-76081000D01*
X106280690Y-76128619D01*
X106233071Y-76223857D01*
X106185452Y-76414333D01*
X106185452Y-76652428D01*
X106233071Y-76842904D01*
X106280690Y-76938142D01*
X106328309Y-76985761D01*
X106423547Y-77033380D01*
X106518785Y-77033380D01*
X106614023Y-76985761D01*
X106661642Y-76938142D01*
X106709261Y-76842904D01*
X106756880Y-76652428D01*
X106756880Y-76414333D01*
X106709261Y-76223857D01*
X106661642Y-76128619D01*
X106614023Y-76081000D01*
X106518785Y-76033380D01*
X116185452Y-78595761D02*
X116280690Y-78643380D01*
X116471166Y-78643380D01*
X116566404Y-78595761D01*
X116614023Y-78500523D01*
X116614023Y-78119571D01*
X116566404Y-78024333D01*
X116471166Y-77976714D01*
X116280690Y-77976714D01*
X116185452Y-78024333D01*
X116137833Y-78119571D01*
X116137833Y-78214809D01*
X116614023Y-78310047D01*
X115709261Y-77976714D02*
X115709261Y-78643380D01*
X115709261Y-78071952D02*
X115661642Y-78024333D01*
X115566404Y-77976714D01*
X115423547Y-77976714D01*
X115328309Y-78024333D01*
X115280690Y-78119571D01*
X115280690Y-78643380D01*
X114804500Y-78643380D02*
X114804500Y-77976714D01*
X114804500Y-78167190D02*
X114756880Y-78071952D01*
X114709261Y-78024333D01*
X114614023Y-77976714D01*
X114518785Y-77976714D01*
X114185452Y-78643380D02*
X114185452Y-77976714D01*
X114185452Y-77643380D02*
X114233071Y-77691000D01*
X114185452Y-77738619D01*
X114137833Y-77691000D01*
X114185452Y-77643380D01*
X114185452Y-77738619D01*
X113280690Y-77976714D02*
X113280690Y-78976714D01*
X113280690Y-78595761D02*
X113375928Y-78643380D01*
X113566404Y-78643380D01*
X113661642Y-78595761D01*
X113709261Y-78548142D01*
X113756880Y-78452904D01*
X113756880Y-78167190D01*
X113709261Y-78071952D01*
X113661642Y-78024333D01*
X113566404Y-77976714D01*
X113375928Y-77976714D01*
X113280690Y-78024333D01*
X112375928Y-77976714D02*
X112375928Y-78643380D01*
X112804500Y-77976714D02*
X112804500Y-78500523D01*
X112756880Y-78595761D01*
X112661642Y-78643380D01*
X112518785Y-78643380D01*
X112423547Y-78595761D01*
X112375928Y-78548142D01*
X111518785Y-78595761D02*
X111614023Y-78643380D01*
X111804500Y-78643380D01*
X111899738Y-78595761D01*
X111947357Y-78500523D01*
X111947357Y-78119571D01*
X111899738Y-78024333D01*
X111804500Y-77976714D01*
X111614023Y-77976714D01*
X111518785Y-78024333D01*
X111471166Y-78119571D01*
X111471166Y-78214809D01*
X111947357Y-78310047D01*
X110614023Y-77976714D02*
X110614023Y-78786238D01*
X110661642Y-78881476D01*
X110709261Y-78929095D01*
X110804500Y-78976714D01*
X110947357Y-78976714D01*
X111042595Y-78929095D01*
X110614023Y-78595761D02*
X110709261Y-78643380D01*
X110899738Y-78643380D01*
X110994976Y-78595761D01*
X111042595Y-78548142D01*
X111090214Y-78452904D01*
X111090214Y-78167190D01*
X111042595Y-78071952D01*
X110994976Y-78024333D01*
X110899738Y-77976714D01*
X110709261Y-77976714D01*
X110614023Y-78024333D01*
X109994976Y-78643380D02*
X110090214Y-78595761D01*
X110137833Y-78548142D01*
X110185452Y-78452904D01*
X110185452Y-78167190D01*
X110137833Y-78071952D01*
X110090214Y-78024333D01*
X109994976Y-77976714D01*
X109852119Y-77976714D01*
X109756880Y-78024333D01*
X109709261Y-78071952D01*
X109661642Y-78167190D01*
X109661642Y-78452904D01*
X109709261Y-78548142D01*
X109756880Y-78595761D01*
X109852119Y-78643380D01*
X109994976Y-78643380D01*
X109233071Y-78643380D02*
X109233071Y-77976714D01*
X109233071Y-78071952D02*
X109185452Y-78024333D01*
X109090214Y-77976714D01*
X108947357Y-77976714D01*
X108852119Y-78024333D01*
X108804500Y-78119571D01*
X108804500Y-78643380D01*
X108804500Y-78119571D02*
X108756880Y-78024333D01*
X108661642Y-77976714D01*
X108518785Y-77976714D01*
X108423547Y-78024333D01*
X108375928Y-78119571D01*
X108375928Y-78643380D01*
X107518785Y-78595761D02*
X107614023Y-78643380D01*
X107804500Y-78643380D01*
X107899738Y-78595761D01*
X107947357Y-78500523D01*
X107947357Y-78119571D01*
X107899738Y-78024333D01*
X107804500Y-77976714D01*
X107614023Y-77976714D01*
X107518785Y-78024333D01*
X107471166Y-78119571D01*
X107471166Y-78214809D01*
X107947357Y-78310047D01*
X107137833Y-77976714D02*
X106614023Y-77976714D01*
X107137833Y-78643380D01*
X106614023Y-78643380D01*
X106233071Y-78548142D02*
X106185452Y-78595761D01*
X106233071Y-78643380D01*
X106280690Y-78595761D01*
X106233071Y-78548142D01*
X106233071Y-78643380D01*
X105756880Y-78643380D02*
X105756880Y-77976714D01*
X105756880Y-78071952D02*
X105709261Y-78024333D01*
X105614023Y-77976714D01*
X105471166Y-77976714D01*
X105375928Y-78024333D01*
X105328309Y-78119571D01*
X105328309Y-78643380D01*
X105328309Y-78119571D02*
X105280690Y-78024333D01*
X105185452Y-77976714D01*
X105042595Y-77976714D01*
X104947357Y-78024333D01*
X104899738Y-78119571D01*
X104899738Y-78643380D01*
X104042595Y-78595761D02*
X104137833Y-78643380D01*
X104328309Y-78643380D01*
X104423547Y-78595761D01*
X104471166Y-78500523D01*
X104471166Y-78119571D01*
X104423547Y-78024333D01*
X104328309Y-77976714D01*
X104137833Y-77976714D01*
X104042595Y-78024333D01*
X103994976Y-78119571D01*
X103994976Y-78214809D01*
X104471166Y-78310047D01*
X115994976Y-80253380D02*
X116328309Y-79777190D01*
X116566404Y-80253380D02*
X116566404Y-79253380D01*
X116185452Y-79253380D01*
X116090214Y-79301000D01*
X116042595Y-79348619D01*
X115994976Y-79443857D01*
X115994976Y-79586714D01*
X116042595Y-79681952D01*
X116090214Y-79729571D01*
X116185452Y-79777190D01*
X116566404Y-79777190D01*
X115185452Y-80205761D02*
X115280690Y-80253380D01*
X115471166Y-80253380D01*
X115566404Y-80205761D01*
X115614023Y-80110523D01*
X115614023Y-79729571D01*
X115566404Y-79634333D01*
X115471166Y-79586714D01*
X115280690Y-79586714D01*
X115185452Y-79634333D01*
X115137833Y-79729571D01*
X115137833Y-79824809D01*
X115614023Y-79920047D01*
X114804500Y-79586714D02*
X114566404Y-80253380D01*
X114328309Y-79586714D01*
X113947357Y-80158142D02*
X113899738Y-80205761D01*
X113947357Y-80253380D01*
X113994976Y-80205761D01*
X113947357Y-80158142D01*
X113947357Y-80253380D01*
X113471166Y-80158142D02*
X113423547Y-80205761D01*
X113471166Y-80253380D01*
X113518785Y-80205761D01*
X113471166Y-80158142D01*
X113471166Y-80253380D01*
X113471166Y-79634333D02*
X113423547Y-79681952D01*
X113471166Y-79729571D01*
X113518785Y-79681952D01*
X113471166Y-79634333D01*
X113471166Y-79729571D01*
X111804500Y-79586714D02*
X111804500Y-80253380D01*
X112042595Y-79205761D02*
X112280690Y-79920047D01*
X111661642Y-79920047D01*
X110518785Y-79872428D02*
X109756880Y-79872428D01*
X108566404Y-80205761D02*
X108423547Y-80253380D01*
X108185452Y-80253380D01*
X108090214Y-80205761D01*
X108042595Y-80158142D01*
X107994976Y-80062904D01*
X107994976Y-79967666D01*
X108042595Y-79872428D01*
X108090214Y-79824809D01*
X108185452Y-79777190D01*
X108375928Y-79729571D01*
X108471166Y-79681952D01*
X108518785Y-79634333D01*
X108566404Y-79539095D01*
X108566404Y-79443857D01*
X108518785Y-79348619D01*
X108471166Y-79301000D01*
X108375928Y-79253380D01*
X108137833Y-79253380D01*
X107994976Y-79301000D01*
X106852119Y-79205761D02*
X107709261Y-80491476D01*
X106518785Y-80253380D02*
X106518785Y-79253380D01*
X105947357Y-80253380D01*
X105947357Y-79253380D01*
X105471166Y-80158142D02*
X105423547Y-80205761D01*
X105471166Y-80253380D01*
X105518785Y-80205761D01*
X105471166Y-80158142D01*
X105471166Y-80253380D01*
X105471166Y-79634333D02*
X105423547Y-79681952D01*
X105471166Y-79729571D01*
X105518785Y-79681952D01*
X105471166Y-79634333D01*
X105471166Y-79729571D01*
D11*
X70433333Y-59609523D02*
X70433333Y-59133333D01*
X70147619Y-59704761D02*
X71147619Y-59371428D01*
X70147619Y-59038095D01*
X70242857Y-58133333D02*
X70195238Y-58180952D01*
X70147619Y-58323809D01*
X70147619Y-58419047D01*
X70195238Y-58561904D01*
X70290476Y-58657142D01*
X70385714Y-58704761D01*
X70576190Y-58752380D01*
X70719047Y-58752380D01*
X70909523Y-58704761D01*
X71004761Y-58657142D01*
X71100000Y-58561904D01*
X71147619Y-58419047D01*
X71147619Y-58323809D01*
X71100000Y-58180952D01*
X71052380Y-58133333D01*
X70147619Y-56942857D02*
X70814285Y-56942857D01*
X71147619Y-56942857D02*
X71100000Y-56990476D01*
X71052380Y-56942857D01*
X71100000Y-56895238D01*
X71147619Y-56942857D01*
X71052380Y-56942857D01*
X70814285Y-56466666D02*
X70147619Y-56466666D01*
X70719047Y-56466666D02*
X70766666Y-56419047D01*
X70814285Y-56323809D01*
X70814285Y-56180952D01*
X70766666Y-56085714D01*
X70671428Y-56038095D01*
X70147619Y-56038095D01*
M02*
