G04 #@! TF.GenerationSoftware,KiCad,Pcbnew,5.1.9-73d0e3b20d~88~ubuntu20.04.1*
G04 #@! TF.CreationDate,2021-03-26T20:06:38+01:00*
G04 #@! TF.ProjectId,AC Relay,41432052-656c-4617-992e-6b696361645f,rev?*
G04 #@! TF.SameCoordinates,Original*
G04 #@! TF.FileFunction,Soldermask,Top*
G04 #@! TF.FilePolarity,Negative*
%FSLAX46Y46*%
G04 Gerber Fmt 4.6, Leading zero omitted, Abs format (unit mm)*
G04 Created by KiCad (PCBNEW 5.1.9-73d0e3b20d~88~ubuntu20.04.1) date 2021-03-26 20:06:38*
%MOMM*%
%LPD*%
G01*
G04 APERTURE LIST*
%ADD10C,2.650000*%
%ADD11O,1.850000X1.850000*%
%ADD12O,4.110000X2.130000*%
G04 APERTURE END LIST*
D10*
X85358000Y-55572000D03*
X85358000Y-60572000D03*
X114758000Y-50372000D03*
X114758000Y-65772000D03*
X80615000Y-91865000D03*
X73015000Y-91865000D03*
X73015000Y-76625000D03*
X80615000Y-79165000D03*
G36*
G01*
X83799000Y-86955250D02*
X83799000Y-87542750D01*
G75*
G02*
X83542750Y-87799000I-256250J0D01*
G01*
X83030250Y-87799000D01*
G75*
G02*
X82774000Y-87542750I0J256250D01*
G01*
X82774000Y-86955250D01*
G75*
G02*
X83030250Y-86699000I256250J0D01*
G01*
X83542750Y-86699000D01*
G75*
G02*
X83799000Y-86955250I0J-256250D01*
G01*
G37*
G36*
G01*
X85374000Y-86955250D02*
X85374000Y-87542750D01*
G75*
G02*
X85117750Y-87799000I-256250J0D01*
G01*
X84605250Y-87799000D01*
G75*
G02*
X84349000Y-87542750I0J256250D01*
G01*
X84349000Y-86955250D01*
G75*
G02*
X84605250Y-86699000I256250J0D01*
G01*
X85117750Y-86699000D01*
G75*
G02*
X85374000Y-86955250I0J-256250D01*
G01*
G37*
G36*
G01*
X96962000Y-73212000D02*
X96962000Y-73722000D01*
G75*
G02*
X96887000Y-73797000I-75000J0D01*
G01*
X96187000Y-73797000D01*
G75*
G02*
X96112000Y-73722000I0J75000D01*
G01*
X96112000Y-73212000D01*
G75*
G02*
X96187000Y-73137000I75000J0D01*
G01*
X96887000Y-73137000D01*
G75*
G02*
X96962000Y-73212000I0J-75000D01*
G01*
G37*
G36*
G01*
X96962000Y-72262000D02*
X96962000Y-72772000D01*
G75*
G02*
X96887000Y-72847000I-75000J0D01*
G01*
X96187000Y-72847000D01*
G75*
G02*
X96112000Y-72772000I0J75000D01*
G01*
X96112000Y-72262000D01*
G75*
G02*
X96187000Y-72187000I75000J0D01*
G01*
X96887000Y-72187000D01*
G75*
G02*
X96962000Y-72262000I0J-75000D01*
G01*
G37*
G36*
G01*
X96962000Y-71312000D02*
X96962000Y-71822000D01*
G75*
G02*
X96887000Y-71897000I-75000J0D01*
G01*
X96187000Y-71897000D01*
G75*
G02*
X96112000Y-71822000I0J75000D01*
G01*
X96112000Y-71312000D01*
G75*
G02*
X96187000Y-71237000I75000J0D01*
G01*
X96887000Y-71237000D01*
G75*
G02*
X96962000Y-71312000I0J-75000D01*
G01*
G37*
G36*
G01*
X94642000Y-71312000D02*
X94642000Y-71822000D01*
G75*
G02*
X94567000Y-71897000I-75000J0D01*
G01*
X93867000Y-71897000D01*
G75*
G02*
X93792000Y-71822000I0J75000D01*
G01*
X93792000Y-71312000D01*
G75*
G02*
X93867000Y-71237000I75000J0D01*
G01*
X94567000Y-71237000D01*
G75*
G02*
X94642000Y-71312000I0J-75000D01*
G01*
G37*
G36*
G01*
X94642000Y-73212000D02*
X94642000Y-73722000D01*
G75*
G02*
X94567000Y-73797000I-75000J0D01*
G01*
X93867000Y-73797000D01*
G75*
G02*
X93792000Y-73722000I0J75000D01*
G01*
X93792000Y-73212000D01*
G75*
G02*
X93867000Y-73137000I75000J0D01*
G01*
X94567000Y-73137000D01*
G75*
G02*
X94642000Y-73212000I0J-75000D01*
G01*
G37*
G36*
G01*
X96408000Y-93474000D02*
X97108000Y-93474000D01*
G75*
G02*
X97183000Y-93549000I0J-75000D01*
G01*
X97183000Y-94999000D01*
G75*
G02*
X97108000Y-95074000I-75000J0D01*
G01*
X96408000Y-95074000D01*
G75*
G02*
X96333000Y-94999000I0J75000D01*
G01*
X96333000Y-93549000D01*
G75*
G02*
X96408000Y-93474000I75000J0D01*
G01*
G37*
G36*
G01*
X96408000Y-88314000D02*
X97108000Y-88314000D01*
G75*
G02*
X97183000Y-88389000I0J-75000D01*
G01*
X97183000Y-89839000D01*
G75*
G02*
X97108000Y-89914000I-75000J0D01*
G01*
X96408000Y-89914000D01*
G75*
G02*
X96333000Y-89839000I0J75000D01*
G01*
X96333000Y-88389000D01*
G75*
G02*
X96408000Y-88314000I75000J0D01*
G01*
G37*
G36*
G01*
X94408000Y-88314000D02*
X95108000Y-88314000D01*
G75*
G02*
X95183000Y-88389000I0J-75000D01*
G01*
X95183000Y-89839000D01*
G75*
G02*
X95108000Y-89914000I-75000J0D01*
G01*
X94408000Y-89914000D01*
G75*
G02*
X94333000Y-89839000I0J75000D01*
G01*
X94333000Y-88389000D01*
G75*
G02*
X94408000Y-88314000I75000J0D01*
G01*
G37*
G36*
G01*
X94408000Y-93474000D02*
X95108000Y-93474000D01*
G75*
G02*
X95183000Y-93549000I0J-75000D01*
G01*
X95183000Y-94999000D01*
G75*
G02*
X95108000Y-95074000I-75000J0D01*
G01*
X94408000Y-95074000D01*
G75*
G02*
X94333000Y-94999000I0J75000D01*
G01*
X94333000Y-93549000D01*
G75*
G02*
X94408000Y-93474000I75000J0D01*
G01*
G37*
G36*
G01*
X95906000Y-75731750D02*
X95906000Y-75144250D01*
G75*
G02*
X96162250Y-74888000I256250J0D01*
G01*
X96674750Y-74888000D01*
G75*
G02*
X96931000Y-75144250I0J-256250D01*
G01*
X96931000Y-75731750D01*
G75*
G02*
X96674750Y-75988000I-256250J0D01*
G01*
X96162250Y-75988000D01*
G75*
G02*
X95906000Y-75731750I0J256250D01*
G01*
G37*
G36*
G01*
X94331000Y-75731750D02*
X94331000Y-75144250D01*
G75*
G02*
X94587250Y-74888000I256250J0D01*
G01*
X95099750Y-74888000D01*
G75*
G02*
X95356000Y-75144250I0J-256250D01*
G01*
X95356000Y-75731750D01*
G75*
G02*
X95099750Y-75988000I-256250J0D01*
G01*
X94587250Y-75988000D01*
G75*
G02*
X94331000Y-75731750I0J256250D01*
G01*
G37*
G36*
G01*
X96804000Y-69302250D02*
X96804000Y-69889750D01*
G75*
G02*
X96547750Y-70146000I-256250J0D01*
G01*
X96035250Y-70146000D01*
G75*
G02*
X95779000Y-69889750I0J256250D01*
G01*
X95779000Y-69302250D01*
G75*
G02*
X96035250Y-69046000I256250J0D01*
G01*
X96547750Y-69046000D01*
G75*
G02*
X96804000Y-69302250I0J-256250D01*
G01*
G37*
G36*
G01*
X95229000Y-69302250D02*
X95229000Y-69889750D01*
G75*
G02*
X94972750Y-70146000I-256250J0D01*
G01*
X94460250Y-70146000D01*
G75*
G02*
X94204000Y-69889750I0J256250D01*
G01*
X94204000Y-69302250D01*
G75*
G02*
X94460250Y-69046000I256250J0D01*
G01*
X94972750Y-69046000D01*
G75*
G02*
X95229000Y-69302250I0J-256250D01*
G01*
G37*
G36*
G01*
X88991000Y-74637000D02*
X88991000Y-72937000D01*
G75*
G02*
X89066000Y-72862000I75000J0D01*
G01*
X90766000Y-72862000D01*
G75*
G02*
X90841000Y-72937000I0J-75000D01*
G01*
X90841000Y-74637000D01*
G75*
G02*
X90766000Y-74712000I-75000J0D01*
G01*
X89066000Y-74712000D01*
G75*
G02*
X88991000Y-74637000I0J75000D01*
G01*
G37*
D11*
X89916000Y-76327000D03*
X89916000Y-78867000D03*
X89916000Y-81407000D03*
X89916000Y-83947000D03*
X89916000Y-86487000D03*
G36*
G01*
X94204000Y-86907750D02*
X94204000Y-86320250D01*
G75*
G02*
X94460250Y-86064000I256250J0D01*
G01*
X94972750Y-86064000D01*
G75*
G02*
X95229000Y-86320250I0J-256250D01*
G01*
X95229000Y-86907750D01*
G75*
G02*
X94972750Y-87164000I-256250J0D01*
G01*
X94460250Y-87164000D01*
G75*
G02*
X94204000Y-86907750I0J256250D01*
G01*
G37*
G36*
G01*
X95779000Y-86907750D02*
X95779000Y-86320250D01*
G75*
G02*
X96035250Y-86064000I256250J0D01*
G01*
X96547750Y-86064000D01*
G75*
G02*
X96804000Y-86320250I0J-256250D01*
G01*
X96804000Y-86907750D01*
G75*
G02*
X96547750Y-87164000I-256250J0D01*
G01*
X96035250Y-87164000D01*
G75*
G02*
X95779000Y-86907750I0J256250D01*
G01*
G37*
G36*
G01*
X115966000Y-86018000D02*
X115966000Y-87018000D01*
G75*
G02*
X115891000Y-87093000I-75000J0D01*
G01*
X113391000Y-87093000D01*
G75*
G02*
X113316000Y-87018000I0J75000D01*
G01*
X113316000Y-86018000D01*
G75*
G02*
X113391000Y-85943000I75000J0D01*
G01*
X115891000Y-85943000D01*
G75*
G02*
X115966000Y-86018000I0J-75000D01*
G01*
G37*
G36*
G01*
X115966000Y-84018000D02*
X115966000Y-85018000D01*
G75*
G02*
X115891000Y-85093000I-75000J0D01*
G01*
X113391000Y-85093000D01*
G75*
G02*
X113316000Y-85018000I0J75000D01*
G01*
X113316000Y-84018000D01*
G75*
G02*
X113391000Y-83943000I75000J0D01*
G01*
X115891000Y-83943000D01*
G75*
G02*
X115966000Y-84018000I0J-75000D01*
G01*
G37*
G36*
G01*
X115966000Y-82018000D02*
X115966000Y-83018000D01*
G75*
G02*
X115891000Y-83093000I-75000J0D01*
G01*
X113391000Y-83093000D01*
G75*
G02*
X113316000Y-83018000I0J75000D01*
G01*
X113316000Y-82018000D01*
G75*
G02*
X113391000Y-81943000I75000J0D01*
G01*
X115891000Y-81943000D01*
G75*
G02*
X115966000Y-82018000I0J-75000D01*
G01*
G37*
G36*
G01*
X115966000Y-80018000D02*
X115966000Y-81018000D01*
G75*
G02*
X115891000Y-81093000I-75000J0D01*
G01*
X113391000Y-81093000D01*
G75*
G02*
X113316000Y-81018000I0J75000D01*
G01*
X113316000Y-80018000D01*
G75*
G02*
X113391000Y-79943000I75000J0D01*
G01*
X115891000Y-79943000D01*
G75*
G02*
X115966000Y-80018000I0J-75000D01*
G01*
G37*
G36*
G01*
X115966000Y-78018000D02*
X115966000Y-79018000D01*
G75*
G02*
X115891000Y-79093000I-75000J0D01*
G01*
X113391000Y-79093000D01*
G75*
G02*
X113316000Y-79018000I0J75000D01*
G01*
X113316000Y-78018000D01*
G75*
G02*
X113391000Y-77943000I75000J0D01*
G01*
X115891000Y-77943000D01*
G75*
G02*
X115966000Y-78018000I0J-75000D01*
G01*
G37*
G36*
G01*
X115966000Y-76018000D02*
X115966000Y-77018000D01*
G75*
G02*
X115891000Y-77093000I-75000J0D01*
G01*
X113391000Y-77093000D01*
G75*
G02*
X113316000Y-77018000I0J75000D01*
G01*
X113316000Y-76018000D01*
G75*
G02*
X113391000Y-75943000I75000J0D01*
G01*
X115891000Y-75943000D01*
G75*
G02*
X115966000Y-76018000I0J-75000D01*
G01*
G37*
G36*
G01*
X115966000Y-74018000D02*
X115966000Y-75018000D01*
G75*
G02*
X115891000Y-75093000I-75000J0D01*
G01*
X113391000Y-75093000D01*
G75*
G02*
X113316000Y-75018000I0J75000D01*
G01*
X113316000Y-74018000D01*
G75*
G02*
X113391000Y-73943000I75000J0D01*
G01*
X115891000Y-73943000D01*
G75*
G02*
X115966000Y-74018000I0J-75000D01*
G01*
G37*
G36*
G01*
X115966000Y-72018000D02*
X115966000Y-73018000D01*
G75*
G02*
X115891000Y-73093000I-75000J0D01*
G01*
X113391000Y-73093000D01*
G75*
G02*
X113316000Y-73018000I0J75000D01*
G01*
X113316000Y-72018000D01*
G75*
G02*
X113391000Y-71943000I75000J0D01*
G01*
X115891000Y-71943000D01*
G75*
G02*
X115966000Y-72018000I0J-75000D01*
G01*
G37*
G36*
G01*
X112616000Y-70118000D02*
X112616000Y-71918000D01*
G75*
G02*
X112541000Y-71993000I-75000J0D01*
G01*
X111541000Y-71993000D01*
G75*
G02*
X111466000Y-71918000I0J75000D01*
G01*
X111466000Y-70118000D01*
G75*
G02*
X111541000Y-70043000I75000J0D01*
G01*
X112541000Y-70043000D01*
G75*
G02*
X112616000Y-70118000I0J-75000D01*
G01*
G37*
G36*
G01*
X110616000Y-70118000D02*
X110616000Y-71918000D01*
G75*
G02*
X110541000Y-71993000I-75000J0D01*
G01*
X109541000Y-71993000D01*
G75*
G02*
X109466000Y-71918000I0J75000D01*
G01*
X109466000Y-70118000D01*
G75*
G02*
X109541000Y-70043000I75000J0D01*
G01*
X110541000Y-70043000D01*
G75*
G02*
X110616000Y-70118000I0J-75000D01*
G01*
G37*
G36*
G01*
X108616000Y-70118000D02*
X108616000Y-71918000D01*
G75*
G02*
X108541000Y-71993000I-75000J0D01*
G01*
X107541000Y-71993000D01*
G75*
G02*
X107466000Y-71918000I0J75000D01*
G01*
X107466000Y-70118000D01*
G75*
G02*
X107541000Y-70043000I75000J0D01*
G01*
X108541000Y-70043000D01*
G75*
G02*
X108616000Y-70118000I0J-75000D01*
G01*
G37*
G36*
G01*
X106616000Y-70118000D02*
X106616000Y-71918000D01*
G75*
G02*
X106541000Y-71993000I-75000J0D01*
G01*
X105541000Y-71993000D01*
G75*
G02*
X105466000Y-71918000I0J75000D01*
G01*
X105466000Y-70118000D01*
G75*
G02*
X105541000Y-70043000I75000J0D01*
G01*
X106541000Y-70043000D01*
G75*
G02*
X106616000Y-70118000I0J-75000D01*
G01*
G37*
G36*
G01*
X104616000Y-70118000D02*
X104616000Y-71918000D01*
G75*
G02*
X104541000Y-71993000I-75000J0D01*
G01*
X103541000Y-71993000D01*
G75*
G02*
X103466000Y-71918000I0J75000D01*
G01*
X103466000Y-70118000D01*
G75*
G02*
X103541000Y-70043000I75000J0D01*
G01*
X104541000Y-70043000D01*
G75*
G02*
X104616000Y-70118000I0J-75000D01*
G01*
G37*
G36*
G01*
X102616000Y-70118000D02*
X102616000Y-71918000D01*
G75*
G02*
X102541000Y-71993000I-75000J0D01*
G01*
X101541000Y-71993000D01*
G75*
G02*
X101466000Y-71918000I0J75000D01*
G01*
X101466000Y-70118000D01*
G75*
G02*
X101541000Y-70043000I75000J0D01*
G01*
X102541000Y-70043000D01*
G75*
G02*
X102616000Y-70118000I0J-75000D01*
G01*
G37*
G36*
G01*
X100766000Y-72018000D02*
X100766000Y-73018000D01*
G75*
G02*
X100691000Y-73093000I-75000J0D01*
G01*
X98191000Y-73093000D01*
G75*
G02*
X98116000Y-73018000I0J75000D01*
G01*
X98116000Y-72018000D01*
G75*
G02*
X98191000Y-71943000I75000J0D01*
G01*
X100691000Y-71943000D01*
G75*
G02*
X100766000Y-72018000I0J-75000D01*
G01*
G37*
G36*
G01*
X100766000Y-74018000D02*
X100766000Y-75018000D01*
G75*
G02*
X100691000Y-75093000I-75000J0D01*
G01*
X98191000Y-75093000D01*
G75*
G02*
X98116000Y-75018000I0J75000D01*
G01*
X98116000Y-74018000D01*
G75*
G02*
X98191000Y-73943000I75000J0D01*
G01*
X100691000Y-73943000D01*
G75*
G02*
X100766000Y-74018000I0J-75000D01*
G01*
G37*
G36*
G01*
X100766000Y-76018000D02*
X100766000Y-77018000D01*
G75*
G02*
X100691000Y-77093000I-75000J0D01*
G01*
X98191000Y-77093000D01*
G75*
G02*
X98116000Y-77018000I0J75000D01*
G01*
X98116000Y-76018000D01*
G75*
G02*
X98191000Y-75943000I75000J0D01*
G01*
X100691000Y-75943000D01*
G75*
G02*
X100766000Y-76018000I0J-75000D01*
G01*
G37*
G36*
G01*
X100766000Y-78018000D02*
X100766000Y-79018000D01*
G75*
G02*
X100691000Y-79093000I-75000J0D01*
G01*
X98191000Y-79093000D01*
G75*
G02*
X98116000Y-79018000I0J75000D01*
G01*
X98116000Y-78018000D01*
G75*
G02*
X98191000Y-77943000I75000J0D01*
G01*
X100691000Y-77943000D01*
G75*
G02*
X100766000Y-78018000I0J-75000D01*
G01*
G37*
G36*
G01*
X100766000Y-80018000D02*
X100766000Y-81018000D01*
G75*
G02*
X100691000Y-81093000I-75000J0D01*
G01*
X98191000Y-81093000D01*
G75*
G02*
X98116000Y-81018000I0J75000D01*
G01*
X98116000Y-80018000D01*
G75*
G02*
X98191000Y-79943000I75000J0D01*
G01*
X100691000Y-79943000D01*
G75*
G02*
X100766000Y-80018000I0J-75000D01*
G01*
G37*
G36*
G01*
X100766000Y-82018000D02*
X100766000Y-83018000D01*
G75*
G02*
X100691000Y-83093000I-75000J0D01*
G01*
X98191000Y-83093000D01*
G75*
G02*
X98116000Y-83018000I0J75000D01*
G01*
X98116000Y-82018000D01*
G75*
G02*
X98191000Y-81943000I75000J0D01*
G01*
X100691000Y-81943000D01*
G75*
G02*
X100766000Y-82018000I0J-75000D01*
G01*
G37*
G36*
G01*
X100766000Y-84018000D02*
X100766000Y-85018000D01*
G75*
G02*
X100691000Y-85093000I-75000J0D01*
G01*
X98191000Y-85093000D01*
G75*
G02*
X98116000Y-85018000I0J75000D01*
G01*
X98116000Y-84018000D01*
G75*
G02*
X98191000Y-83943000I75000J0D01*
G01*
X100691000Y-83943000D01*
G75*
G02*
X100766000Y-84018000I0J-75000D01*
G01*
G37*
G36*
G01*
X100766000Y-86018000D02*
X100766000Y-87018000D01*
G75*
G02*
X100691000Y-87093000I-75000J0D01*
G01*
X98191000Y-87093000D01*
G75*
G02*
X98116000Y-87018000I0J75000D01*
G01*
X98116000Y-86018000D01*
G75*
G02*
X98191000Y-85943000I75000J0D01*
G01*
X100691000Y-85943000D01*
G75*
G02*
X100766000Y-86018000I0J-75000D01*
G01*
G37*
G36*
G01*
X95356000Y-82275000D02*
X95356000Y-82825000D01*
G75*
G02*
X95081000Y-83100000I-275000J0D01*
G01*
X94431000Y-83100000D01*
G75*
G02*
X94156000Y-82825000I0J275000D01*
G01*
X94156000Y-82275000D01*
G75*
G02*
X94431000Y-82000000I275000J0D01*
G01*
X95081000Y-82000000D01*
G75*
G02*
X95356000Y-82275000I0J-275000D01*
G01*
G37*
G36*
G01*
X97106000Y-82275000D02*
X97106000Y-82825000D01*
G75*
G02*
X96831000Y-83100000I-275000J0D01*
G01*
X96181000Y-83100000D01*
G75*
G02*
X95906000Y-82825000I0J275000D01*
G01*
X95906000Y-82275000D01*
G75*
G02*
X96181000Y-82000000I275000J0D01*
G01*
X96831000Y-82000000D01*
G75*
G02*
X97106000Y-82275000I0J-275000D01*
G01*
G37*
G36*
G01*
X94156000Y-78761000D02*
X94156000Y-78211000D01*
G75*
G02*
X94431000Y-77936000I275000J0D01*
G01*
X95081000Y-77936000D01*
G75*
G02*
X95356000Y-78211000I0J-275000D01*
G01*
X95356000Y-78761000D01*
G75*
G02*
X95081000Y-79036000I-275000J0D01*
G01*
X94431000Y-79036000D01*
G75*
G02*
X94156000Y-78761000I0J275000D01*
G01*
G37*
G36*
G01*
X95906000Y-78761000D02*
X95906000Y-78211000D01*
G75*
G02*
X96181000Y-77936000I275000J0D01*
G01*
X96831000Y-77936000D01*
G75*
G02*
X97106000Y-78211000I0J-275000D01*
G01*
X97106000Y-78761000D01*
G75*
G02*
X96831000Y-79036000I-275000J0D01*
G01*
X96181000Y-79036000D01*
G75*
G02*
X95906000Y-78761000I0J275000D01*
G01*
G37*
G36*
G01*
X95356000Y-80243000D02*
X95356000Y-80793000D01*
G75*
G02*
X95081000Y-81068000I-275000J0D01*
G01*
X94431000Y-81068000D01*
G75*
G02*
X94156000Y-80793000I0J275000D01*
G01*
X94156000Y-80243000D01*
G75*
G02*
X94431000Y-79968000I275000J0D01*
G01*
X95081000Y-79968000D01*
G75*
G02*
X95356000Y-80243000I0J-275000D01*
G01*
G37*
G36*
G01*
X97106000Y-80243000D02*
X97106000Y-80793000D01*
G75*
G02*
X96831000Y-81068000I-275000J0D01*
G01*
X96181000Y-81068000D01*
G75*
G02*
X95906000Y-80793000I0J275000D01*
G01*
X95906000Y-80243000D01*
G75*
G02*
X96181000Y-79968000I275000J0D01*
G01*
X96831000Y-79968000D01*
G75*
G02*
X97106000Y-80243000I0J-275000D01*
G01*
G37*
G36*
G01*
X97106000Y-84307000D02*
X97106000Y-84857000D01*
G75*
G02*
X96831000Y-85132000I-275000J0D01*
G01*
X96181000Y-85132000D01*
G75*
G02*
X95906000Y-84857000I0J275000D01*
G01*
X95906000Y-84307000D01*
G75*
G02*
X96181000Y-84032000I275000J0D01*
G01*
X96831000Y-84032000D01*
G75*
G02*
X97106000Y-84307000I0J-275000D01*
G01*
G37*
G36*
G01*
X95356000Y-84307000D02*
X95356000Y-84857000D01*
G75*
G02*
X95081000Y-85132000I-275000J0D01*
G01*
X94431000Y-85132000D01*
G75*
G02*
X94156000Y-84857000I0J275000D01*
G01*
X94156000Y-84307000D01*
G75*
G02*
X94431000Y-84032000I275000J0D01*
G01*
X95081000Y-84032000D01*
G75*
G02*
X95356000Y-84307000I0J-275000D01*
G01*
G37*
D12*
X75692000Y-66882000D03*
G36*
G01*
X77672000Y-72947000D02*
X73712000Y-72947000D01*
G75*
G02*
X73637000Y-72872000I0J75000D01*
G01*
X73637000Y-70892000D01*
G75*
G02*
X73712000Y-70817000I75000J0D01*
G01*
X77672000Y-70817000D01*
G75*
G02*
X77747000Y-70892000I0J-75000D01*
G01*
X77747000Y-72872000D01*
G75*
G02*
X77672000Y-72947000I-75000J0D01*
G01*
G37*
G36*
G01*
X77672000Y-61517000D02*
X73712000Y-61517000D01*
G75*
G02*
X73637000Y-61442000I0J75000D01*
G01*
X73637000Y-59462000D01*
G75*
G02*
X73712000Y-59387000I75000J0D01*
G01*
X77672000Y-59387000D01*
G75*
G02*
X77747000Y-59462000I0J-75000D01*
G01*
X77747000Y-61442000D01*
G75*
G02*
X77672000Y-61517000I-75000J0D01*
G01*
G37*
X75692000Y-55452000D03*
G36*
G01*
X86317000Y-89921000D02*
X86317000Y-93721000D01*
G75*
G02*
X86242000Y-93796000I-75000J0D01*
G01*
X84242000Y-93796000D01*
G75*
G02*
X84167000Y-93721000I0J75000D01*
G01*
X84167000Y-89921000D01*
G75*
G02*
X84242000Y-89846000I75000J0D01*
G01*
X86242000Y-89846000D01*
G75*
G02*
X86317000Y-89921000I0J-75000D01*
G01*
G37*
G36*
G01*
X92617000Y-91071000D02*
X92617000Y-92571000D01*
G75*
G02*
X92542000Y-92646000I-75000J0D01*
G01*
X90542000Y-92646000D01*
G75*
G02*
X90467000Y-92571000I0J75000D01*
G01*
X90467000Y-91071000D01*
G75*
G02*
X90542000Y-90996000I75000J0D01*
G01*
X92542000Y-90996000D01*
G75*
G02*
X92617000Y-91071000I0J-75000D01*
G01*
G37*
G36*
G01*
X92617000Y-88771000D02*
X92617000Y-90271000D01*
G75*
G02*
X92542000Y-90346000I-75000J0D01*
G01*
X90542000Y-90346000D01*
G75*
G02*
X90467000Y-90271000I0J75000D01*
G01*
X90467000Y-88771000D01*
G75*
G02*
X90542000Y-88696000I75000J0D01*
G01*
X92542000Y-88696000D01*
G75*
G02*
X92617000Y-88771000I0J-75000D01*
G01*
G37*
G36*
G01*
X92617000Y-93371000D02*
X92617000Y-94871000D01*
G75*
G02*
X92542000Y-94946000I-75000J0D01*
G01*
X90542000Y-94946000D01*
G75*
G02*
X90467000Y-94871000I0J75000D01*
G01*
X90467000Y-93371000D01*
G75*
G02*
X90542000Y-93296000I75000J0D01*
G01*
X92542000Y-93296000D01*
G75*
G02*
X92617000Y-93371000I0J-75000D01*
G01*
G37*
M02*
