G04 #@! TF.GenerationSoftware,KiCad,Pcbnew,6.0.7-f9a2dced07~116~ubuntu20.04.1*
G04 #@! TF.CreationDate,2022-09-27T22:41:57+02:00*
G04 #@! TF.ProjectId,AC Relay,41432052-656c-4617-992e-6b696361645f,rev?*
G04 #@! TF.SameCoordinates,Original*
G04 #@! TF.FileFunction,Legend,Top*
G04 #@! TF.FilePolarity,Positive*
%FSLAX46Y46*%
G04 Gerber Fmt 4.6, Leading zero omitted, Abs format (unit mm)*
G04 Created by KiCad (PCBNEW 6.0.7-f9a2dced07~116~ubuntu20.04.1) date 2022-09-27 22:41:57*
%MOMM*%
%LPD*%
G01*
G04 APERTURE LIST*
%ADD10C,0.150000*%
%ADD11C,0.125000*%
%ADD12C,0.120000*%
G04 APERTURE END LIST*
D10*
X83800000Y-85700000D02*
G75*
G03*
X83800000Y-85700000I-100000J0D01*
G01*
X94000000Y-87800000D02*
G75*
G03*
X94000000Y-87800000I-100000J0D01*
G01*
D11*
X86766476Y-73043000D02*
X86690285Y-73004904D01*
X86576000Y-73004904D01*
X86461714Y-73043000D01*
X86385523Y-73119190D01*
X86347428Y-73195380D01*
X86309333Y-73347761D01*
X86309333Y-73462047D01*
X86347428Y-73614428D01*
X86385523Y-73690619D01*
X86461714Y-73766809D01*
X86576000Y-73804904D01*
X86652190Y-73804904D01*
X86766476Y-73766809D01*
X86804571Y-73728714D01*
X86804571Y-73462047D01*
X86652190Y-73462047D01*
X87147428Y-73804904D02*
X87147428Y-73004904D01*
X87604571Y-73804904D01*
X87604571Y-73004904D01*
X87985523Y-73804904D02*
X87985523Y-73004904D01*
X88176000Y-73004904D01*
X88290285Y-73043000D01*
X88366476Y-73119190D01*
X88404571Y-73195380D01*
X88442666Y-73347761D01*
X88442666Y-73462047D01*
X88404571Y-73614428D01*
X88366476Y-73690619D01*
X88290285Y-73766809D01*
X88176000Y-73804904D01*
X87985523Y-73804904D01*
X86233142Y-75580904D02*
X86728380Y-75580904D01*
X86461714Y-75885666D01*
X86576000Y-75885666D01*
X86652190Y-75923761D01*
X86690285Y-75961857D01*
X86728380Y-76038047D01*
X86728380Y-76228523D01*
X86690285Y-76304714D01*
X86652190Y-76342809D01*
X86576000Y-76380904D01*
X86347428Y-76380904D01*
X86271238Y-76342809D01*
X86233142Y-76304714D01*
X87071238Y-76304714D02*
X87109333Y-76342809D01*
X87071238Y-76380904D01*
X87033142Y-76342809D01*
X87071238Y-76304714D01*
X87071238Y-76380904D01*
X87376000Y-75580904D02*
X87871238Y-75580904D01*
X87604571Y-75885666D01*
X87718857Y-75885666D01*
X87795047Y-75923761D01*
X87833142Y-75961857D01*
X87871238Y-76038047D01*
X87871238Y-76228523D01*
X87833142Y-76304714D01*
X87795047Y-76342809D01*
X87718857Y-76380904D01*
X87490285Y-76380904D01*
X87414095Y-76342809D01*
X87376000Y-76304714D01*
X88137904Y-75847571D02*
X88328380Y-76380904D01*
X88518857Y-75847571D01*
X86918857Y-78537857D02*
X86652190Y-78537857D01*
X86652190Y-78956904D02*
X86652190Y-78156904D01*
X87033142Y-78156904D01*
X87452190Y-78956904D02*
X87376000Y-78918809D01*
X87337904Y-78842619D01*
X87337904Y-78156904D01*
X88099809Y-78956904D02*
X88099809Y-78537857D01*
X88061714Y-78461666D01*
X87985523Y-78423571D01*
X87833142Y-78423571D01*
X87756952Y-78461666D01*
X88099809Y-78918809D02*
X88023619Y-78956904D01*
X87833142Y-78956904D01*
X87756952Y-78918809D01*
X87718857Y-78842619D01*
X87718857Y-78766428D01*
X87756952Y-78690238D01*
X87833142Y-78652142D01*
X88023619Y-78652142D01*
X88099809Y-78614047D01*
X87071238Y-81532904D02*
X86804571Y-81151952D01*
X86614095Y-81532904D02*
X86614095Y-80732904D01*
X86918857Y-80732904D01*
X86995047Y-80771000D01*
X87033142Y-80809095D01*
X87071238Y-80885285D01*
X87071238Y-80999571D01*
X87033142Y-81075761D01*
X86995047Y-81113857D01*
X86918857Y-81151952D01*
X86614095Y-81151952D01*
X87376000Y-81494809D02*
X87452190Y-81532904D01*
X87604571Y-81532904D01*
X87680761Y-81494809D01*
X87718857Y-81418619D01*
X87718857Y-81380523D01*
X87680761Y-81304333D01*
X87604571Y-81266238D01*
X87490285Y-81266238D01*
X87414095Y-81228142D01*
X87376000Y-81151952D01*
X87376000Y-81113857D01*
X87414095Y-81037666D01*
X87490285Y-80999571D01*
X87604571Y-80999571D01*
X87680761Y-81037666D01*
X87947428Y-80999571D02*
X88252190Y-80999571D01*
X88061714Y-80732904D02*
X88061714Y-81418619D01*
X88099809Y-81494809D01*
X88176000Y-81532904D01*
X88252190Y-81532904D01*
X87242666Y-84108904D02*
X86976000Y-83727952D01*
X86785523Y-84108904D02*
X86785523Y-83308904D01*
X87090285Y-83308904D01*
X87166476Y-83347000D01*
X87204571Y-83385095D01*
X87242666Y-83461285D01*
X87242666Y-83575571D01*
X87204571Y-83651761D01*
X87166476Y-83689857D01*
X87090285Y-83727952D01*
X86785523Y-83727952D01*
X87509333Y-83308904D02*
X88042666Y-84108904D01*
X88042666Y-83308904D02*
X87509333Y-84108904D01*
X86766476Y-85884904D02*
X87223619Y-85884904D01*
X86995047Y-86684904D02*
X86995047Y-85884904D01*
X87414095Y-85884904D02*
X87947428Y-86684904D01*
X87947428Y-85884904D02*
X87414095Y-86684904D01*
D10*
X81026095Y-48093380D02*
X81026095Y-48902904D01*
X81073714Y-48998142D01*
X81121333Y-49045761D01*
X81216571Y-49093380D01*
X81407047Y-49093380D01*
X81502285Y-49045761D01*
X81549904Y-48998142D01*
X81597523Y-48902904D01*
X81597523Y-48093380D01*
X81978476Y-48093380D02*
X82597523Y-48093380D01*
X82264190Y-48474333D01*
X82407047Y-48474333D01*
X82502285Y-48521952D01*
X82549904Y-48569571D01*
X82597523Y-48664809D01*
X82597523Y-48902904D01*
X82549904Y-48998142D01*
X82502285Y-49045761D01*
X82407047Y-49093380D01*
X82121333Y-49093380D01*
X82026095Y-49045761D01*
X81978476Y-48998142D01*
X69505666Y-50633380D02*
X69505666Y-51347666D01*
X69458047Y-51490523D01*
X69362809Y-51585761D01*
X69219952Y-51633380D01*
X69124714Y-51633380D01*
X70505666Y-51633380D02*
X69934238Y-51633380D01*
X70219952Y-51633380D02*
X70219952Y-50633380D01*
X70124714Y-50776238D01*
X70029476Y-50871476D01*
X69934238Y-50919095D01*
X69505666Y-75127380D02*
X69505666Y-75841666D01*
X69458047Y-75984523D01*
X69362809Y-76079761D01*
X69219952Y-76127380D01*
X69124714Y-76127380D01*
X69886619Y-75127380D02*
X70505666Y-75127380D01*
X70172333Y-75508333D01*
X70315190Y-75508333D01*
X70410428Y-75555952D01*
X70458047Y-75603571D01*
X70505666Y-75698809D01*
X70505666Y-75936904D01*
X70458047Y-76032142D01*
X70410428Y-76079761D01*
X70315190Y-76127380D01*
X70029476Y-76127380D01*
X69934238Y-76079761D01*
X69886619Y-76032142D01*
X92670333Y-85034380D02*
X92337000Y-84558190D01*
X92098904Y-85034380D02*
X92098904Y-84034380D01*
X92479857Y-84034380D01*
X92575095Y-84082000D01*
X92622714Y-84129619D01*
X92670333Y-84224857D01*
X92670333Y-84367714D01*
X92622714Y-84462952D01*
X92575095Y-84510571D01*
X92479857Y-84558190D01*
X92098904Y-84558190D01*
X93527476Y-84367714D02*
X93527476Y-85034380D01*
X93289380Y-83986761D02*
X93051285Y-84701047D01*
X93670333Y-84701047D01*
X92670333Y-80970380D02*
X92337000Y-80494190D01*
X92098904Y-80970380D02*
X92098904Y-79970380D01*
X92479857Y-79970380D01*
X92575095Y-80018000D01*
X92622714Y-80065619D01*
X92670333Y-80160857D01*
X92670333Y-80303714D01*
X92622714Y-80398952D01*
X92575095Y-80446571D01*
X92479857Y-80494190D01*
X92098904Y-80494190D01*
X93003666Y-79970380D02*
X93622714Y-79970380D01*
X93289380Y-80351333D01*
X93432238Y-80351333D01*
X93527476Y-80398952D01*
X93575095Y-80446571D01*
X93622714Y-80541809D01*
X93622714Y-80779904D01*
X93575095Y-80875142D01*
X93527476Y-80922761D01*
X93432238Y-80970380D01*
X93146523Y-80970380D01*
X93051285Y-80922761D01*
X93003666Y-80875142D01*
X92670333Y-78938380D02*
X92337000Y-78462190D01*
X92098904Y-78938380D02*
X92098904Y-77938380D01*
X92479857Y-77938380D01*
X92575095Y-77986000D01*
X92622714Y-78033619D01*
X92670333Y-78128857D01*
X92670333Y-78271714D01*
X92622714Y-78366952D01*
X92575095Y-78414571D01*
X92479857Y-78462190D01*
X92098904Y-78462190D01*
X93051285Y-78033619D02*
X93098904Y-77986000D01*
X93194142Y-77938380D01*
X93432238Y-77938380D01*
X93527476Y-77986000D01*
X93575095Y-78033619D01*
X93622714Y-78128857D01*
X93622714Y-78224095D01*
X93575095Y-78366952D01*
X93003666Y-78938380D01*
X93622714Y-78938380D01*
X92670333Y-83002380D02*
X92337000Y-82526190D01*
X92098904Y-83002380D02*
X92098904Y-82002380D01*
X92479857Y-82002380D01*
X92575095Y-82050000D01*
X92622714Y-82097619D01*
X92670333Y-82192857D01*
X92670333Y-82335714D01*
X92622714Y-82430952D01*
X92575095Y-82478571D01*
X92479857Y-82526190D01*
X92098904Y-82526190D01*
X93622714Y-83002380D02*
X93051285Y-83002380D01*
X93337000Y-83002380D02*
X93337000Y-82002380D01*
X93241761Y-82145238D01*
X93146523Y-82240476D01*
X93051285Y-82288095D01*
X106299095Y-68540380D02*
X106299095Y-69349904D01*
X106346714Y-69445142D01*
X106394333Y-69492761D01*
X106489571Y-69540380D01*
X106680047Y-69540380D01*
X106775285Y-69492761D01*
X106822904Y-69445142D01*
X106870523Y-69349904D01*
X106870523Y-68540380D01*
X107299095Y-68635619D02*
X107346714Y-68588000D01*
X107441952Y-68540380D01*
X107680047Y-68540380D01*
X107775285Y-68588000D01*
X107822904Y-68635619D01*
X107870523Y-68730857D01*
X107870523Y-68826095D01*
X107822904Y-68968952D01*
X107251476Y-69540380D01*
X107870523Y-69540380D01*
X92075095Y-71969380D02*
X92075095Y-72778904D01*
X92122714Y-72874142D01*
X92170333Y-72921761D01*
X92265571Y-72969380D01*
X92456047Y-72969380D01*
X92551285Y-72921761D01*
X92598904Y-72874142D01*
X92646523Y-72778904D01*
X92646523Y-71969380D01*
X93646523Y-72969380D02*
X93075095Y-72969380D01*
X93360809Y-72969380D02*
X93360809Y-71969380D01*
X93265571Y-72112238D01*
X93170333Y-72207476D01*
X93075095Y-72255095D01*
X92098904Y-87066380D02*
X92098904Y-86066380D01*
X92337000Y-86066380D01*
X92479857Y-86114000D01*
X92575095Y-86209238D01*
X92622714Y-86304476D01*
X92670333Y-86494952D01*
X92670333Y-86637809D01*
X92622714Y-86828285D01*
X92575095Y-86923523D01*
X92479857Y-87018761D01*
X92337000Y-87066380D01*
X92098904Y-87066380D01*
X93051285Y-86161619D02*
X93098904Y-86114000D01*
X93194142Y-86066380D01*
X93432238Y-86066380D01*
X93527476Y-86114000D01*
X93575095Y-86161619D01*
X93622714Y-86256857D01*
X93622714Y-86352095D01*
X93575095Y-86494952D01*
X93003666Y-87066380D01*
X93622714Y-87066380D01*
X85052380Y-85338095D02*
X84052380Y-85338095D01*
X84052380Y-85100000D01*
X84100000Y-84957142D01*
X84195238Y-84861904D01*
X84290476Y-84814285D01*
X84480952Y-84766666D01*
X84623809Y-84766666D01*
X84814285Y-84814285D01*
X84909523Y-84861904D01*
X85004761Y-84957142D01*
X85052380Y-85100000D01*
X85052380Y-85338095D01*
X85052380Y-83814285D02*
X85052380Y-84385714D01*
X85052380Y-84100000D02*
X84052380Y-84100000D01*
X84195238Y-84195238D01*
X84290476Y-84290476D01*
X84338095Y-84385714D01*
X89328666Y-70699380D02*
X89328666Y-71413666D01*
X89281047Y-71556523D01*
X89185809Y-71651761D01*
X89042952Y-71699380D01*
X88947714Y-71699380D01*
X89757238Y-70794619D02*
X89804857Y-70747000D01*
X89900095Y-70699380D01*
X90138190Y-70699380D01*
X90233428Y-70747000D01*
X90281047Y-70794619D01*
X90328666Y-70889857D01*
X90328666Y-70985095D01*
X90281047Y-71127952D01*
X89709619Y-71699380D01*
X90328666Y-71699380D01*
X92670333Y-69953142D02*
X92622714Y-70000761D01*
X92479857Y-70048380D01*
X92384619Y-70048380D01*
X92241761Y-70000761D01*
X92146523Y-69905523D01*
X92098904Y-69810285D01*
X92051285Y-69619809D01*
X92051285Y-69476952D01*
X92098904Y-69286476D01*
X92146523Y-69191238D01*
X92241761Y-69096000D01*
X92384619Y-69048380D01*
X92479857Y-69048380D01*
X92622714Y-69096000D01*
X92670333Y-69143619D01*
X93622714Y-70048380D02*
X93051285Y-70048380D01*
X93337000Y-70048380D02*
X93337000Y-69048380D01*
X93241761Y-69191238D01*
X93146523Y-69286476D01*
X93051285Y-69334095D01*
X92670333Y-75795142D02*
X92622714Y-75842761D01*
X92479857Y-75890380D01*
X92384619Y-75890380D01*
X92241761Y-75842761D01*
X92146523Y-75747523D01*
X92098904Y-75652285D01*
X92051285Y-75461809D01*
X92051285Y-75318952D01*
X92098904Y-75128476D01*
X92146523Y-75033238D01*
X92241761Y-74938000D01*
X92384619Y-74890380D01*
X92479857Y-74890380D01*
X92622714Y-74938000D01*
X92670333Y-74985619D01*
X93051285Y-74985619D02*
X93098904Y-74938000D01*
X93194142Y-74890380D01*
X93432238Y-74890380D01*
X93527476Y-74938000D01*
X93575095Y-74985619D01*
X93622714Y-75080857D01*
X93622714Y-75176095D01*
X93575095Y-75318952D01*
X93003666Y-75890380D01*
X93622714Y-75890380D01*
X94551666Y-92098761D02*
X94694523Y-92146380D01*
X94932619Y-92146380D01*
X95027857Y-92098761D01*
X95075476Y-92051142D01*
X95123095Y-91955904D01*
X95123095Y-91860666D01*
X95075476Y-91765428D01*
X95027857Y-91717809D01*
X94932619Y-91670190D01*
X94742142Y-91622571D01*
X94646904Y-91574952D01*
X94599285Y-91527333D01*
X94551666Y-91432095D01*
X94551666Y-91336857D01*
X94599285Y-91241619D01*
X94646904Y-91194000D01*
X94742142Y-91146380D01*
X94980238Y-91146380D01*
X95123095Y-91194000D01*
X95456428Y-91146380D02*
X95694523Y-92146380D01*
X95885000Y-91432095D01*
X96075476Y-92146380D01*
X96313571Y-91146380D01*
X97218333Y-92146380D02*
X96646904Y-92146380D01*
X96932619Y-92146380D02*
X96932619Y-91146380D01*
X96837380Y-91289238D01*
X96742142Y-91384476D01*
X96646904Y-91432095D01*
X84994761Y-95543619D02*
X84899523Y-95496000D01*
X84804285Y-95400761D01*
X84661428Y-95257904D01*
X84566190Y-95210285D01*
X84470952Y-95210285D01*
X84518571Y-95448380D02*
X84423333Y-95400761D01*
X84328095Y-95305523D01*
X84280476Y-95115047D01*
X84280476Y-94781714D01*
X84328095Y-94591238D01*
X84423333Y-94496000D01*
X84518571Y-94448380D01*
X84709047Y-94448380D01*
X84804285Y-94496000D01*
X84899523Y-94591238D01*
X84947142Y-94781714D01*
X84947142Y-95115047D01*
X84899523Y-95305523D01*
X84804285Y-95400761D01*
X84709047Y-95448380D01*
X84518571Y-95448380D01*
X85899523Y-95448380D02*
X85328095Y-95448380D01*
X85613809Y-95448380D02*
X85613809Y-94448380D01*
X85518571Y-94591238D01*
X85423333Y-94686476D01*
X85328095Y-94734095D01*
X70524404Y-93337380D02*
X70524404Y-92337380D01*
X71095833Y-93337380D02*
X70667261Y-92765952D01*
X71095833Y-92337380D02*
X70524404Y-92908809D01*
X72048214Y-93337380D02*
X71476785Y-93337380D01*
X71762500Y-93337380D02*
X71762500Y-92337380D01*
X71667261Y-92480238D01*
X71572023Y-92575476D01*
X71476785Y-92623095D01*
X83058000Y-68072000D02*
X83058000Y-48006000D01*
X117094000Y-68072000D02*
X83058000Y-68072000D01*
X83058000Y-48006000D02*
X117094000Y-48006000D01*
X117094000Y-48006000D02*
X117094000Y-68072000D01*
D12*
X81600000Y-63102000D02*
X81600000Y-52752000D01*
X80900000Y-52252000D02*
X79000000Y-52252000D01*
X74100000Y-52252000D02*
X69000000Y-52252000D01*
X81600000Y-52752000D02*
X80650000Y-52752000D01*
X69000000Y-63102000D02*
X81600000Y-63102000D01*
X73800000Y-52752000D02*
X74100000Y-52252000D01*
X79200000Y-52752000D02*
X73800000Y-52752000D01*
X80650000Y-52752000D02*
X80900000Y-52252000D01*
X79000000Y-52252000D02*
X78950000Y-52252000D01*
X69000000Y-52252000D02*
X69000000Y-63102000D01*
X78950000Y-52252000D02*
X79200000Y-52752000D01*
X69000000Y-74515000D02*
X81600000Y-74515000D01*
X80900000Y-63665000D02*
X79000000Y-63665000D01*
X74100000Y-63665000D02*
X69000000Y-63665000D01*
X79000000Y-63665000D02*
X78950000Y-63665000D01*
X81600000Y-74515000D02*
X81600000Y-64165000D01*
X78950000Y-63665000D02*
X79200000Y-64165000D01*
X73800000Y-64165000D02*
X74100000Y-63665000D01*
X69000000Y-63665000D02*
X69000000Y-74515000D01*
X79200000Y-64165000D02*
X73800000Y-64165000D01*
X80650000Y-64165000D02*
X80900000Y-63665000D01*
X81600000Y-64165000D02*
X80650000Y-64165000D01*
X95802267Y-84072000D02*
X95459733Y-84072000D01*
X95802267Y-85092000D02*
X95459733Y-85092000D01*
X95802267Y-81028000D02*
X95459733Y-81028000D01*
X95802267Y-80008000D02*
X95459733Y-80008000D01*
X95459733Y-78996000D02*
X95802267Y-78996000D01*
X95459733Y-77976000D02*
X95802267Y-77976000D01*
X95802267Y-82040000D02*
X95459733Y-82040000D01*
X95802267Y-83060000D02*
X95459733Y-83060000D01*
X98921000Y-70898000D02*
X101041000Y-70898000D01*
X115161000Y-70898000D02*
X115161000Y-71518000D01*
X115161000Y-95138000D02*
X98921000Y-95138000D01*
X98921000Y-71518000D02*
X98921000Y-70898000D01*
X115161000Y-87518000D02*
X115771000Y-87518000D01*
X98921000Y-95138000D02*
X98921000Y-87518000D01*
X115161000Y-87518000D02*
X115161000Y-95138000D01*
X113041000Y-70898000D02*
X115161000Y-70898000D01*
X96177000Y-70917000D02*
X94577000Y-70917000D01*
X94577000Y-74117000D02*
X96877000Y-74117000D01*
X96304000Y-85879000D02*
X94019000Y-85879000D01*
X94019000Y-85879000D02*
X94019000Y-87349000D01*
X94019000Y-87349000D02*
X96304000Y-87349000D01*
X83765000Y-86600000D02*
X83765000Y-88885000D01*
X83765000Y-88885000D02*
X85235000Y-88885000D01*
X85235000Y-88885000D02*
X85235000Y-86600000D01*
X88586000Y-75057000D02*
X91246000Y-75057000D01*
X88586000Y-73787000D02*
X88586000Y-72457000D01*
X88586000Y-87817000D02*
X91246000Y-87817000D01*
X91246000Y-75057000D02*
X91246000Y-87817000D01*
X88586000Y-75057000D02*
X88586000Y-87817000D01*
X88586000Y-72457000D02*
X89916000Y-72457000D01*
X95666779Y-70106000D02*
X95341221Y-70106000D01*
X95666779Y-69086000D02*
X95341221Y-69086000D01*
X95468221Y-75948000D02*
X95793779Y-75948000D01*
X95468221Y-74928000D02*
X95793779Y-74928000D01*
X96108000Y-89244000D02*
X95408000Y-89244000D01*
X97508000Y-94144000D02*
X97408000Y-94144000D01*
X94008000Y-89244000D02*
X94008000Y-94144000D01*
X94108000Y-89244000D02*
X94008000Y-89244000D01*
X94008000Y-94144000D02*
X94108000Y-94144000D01*
X97508000Y-89244000D02*
X97408000Y-89244000D01*
X96108000Y-94144000D02*
X95408000Y-94144000D01*
X97508000Y-94144000D02*
X97508000Y-89244000D01*
X86482000Y-88411000D02*
X86482000Y-89671000D01*
X90242000Y-88411000D02*
X86482000Y-88411000D01*
X86482000Y-95231000D02*
X86482000Y-93971000D01*
X92492000Y-95231000D02*
X86482000Y-95231000D01*
D10*
X82692500Y-93393000D02*
X82692500Y-75232000D01*
X72532500Y-75232000D02*
X72532500Y-93393000D01*
X72532500Y-93393000D02*
X82692500Y-93393000D01*
X82692500Y-75232000D02*
X72532500Y-75232000D01*
M02*
