G04 #@! TF.GenerationSoftware,KiCad,Pcbnew,6.0.7-f9a2dced07~116~ubuntu20.04.1*
G04 #@! TF.CreationDate,2022-09-27T22:41:57+02:00*
G04 #@! TF.ProjectId,AC Relay,41432052-656c-4617-992e-6b696361645f,rev?*
G04 #@! TF.SameCoordinates,Original*
G04 #@! TF.FileFunction,Soldermask,Top*
G04 #@! TF.FilePolarity,Negative*
%FSLAX46Y46*%
G04 Gerber Fmt 4.6, Leading zero omitted, Abs format (unit mm)*
G04 Created by KiCad (PCBNEW 6.0.7-f9a2dced07~116~ubuntu20.04.1) date 2022-09-27 22:41:57*
%MOMM*%
%LPD*%
G01*
G04 APERTURE LIST*
G04 Aperture macros list*
%AMRoundRect*
0 Rectangle with rounded corners*
0 $1 Rounding radius*
0 $2 $3 $4 $5 $6 $7 $8 $9 X,Y pos of 4 corners*
0 Add a 4 corners polygon primitive as box body*
4,1,4,$2,$3,$4,$5,$6,$7,$8,$9,$2,$3,0*
0 Add four circle primitives for the rounded corners*
1,1,$1+$1,$2,$3*
1,1,$1+$1,$4,$5*
1,1,$1+$1,$6,$7*
1,1,$1+$1,$8,$9*
0 Add four rect primitives between the rounded corners*
20,1,$1+$1,$2,$3,$4,$5,0*
20,1,$1+$1,$4,$5,$6,$7,0*
20,1,$1+$1,$6,$7,$8,$9,0*
20,1,$1+$1,$8,$9,$2,$3,0*%
G04 Aperture macros list end*
%ADD10C,2.650000*%
%ADD11RoundRect,0.075000X1.980000X-0.990000X1.980000X0.990000X-1.980000X0.990000X-1.980000X-0.990000X0*%
%ADD12O,4.110000X2.130000*%
%ADD13RoundRect,0.312500X0.287500X0.237500X-0.287500X0.237500X-0.287500X-0.237500X0.287500X-0.237500X0*%
%ADD14RoundRect,0.312500X-0.287500X-0.237500X0.287500X-0.237500X0.287500X0.237500X-0.287500X0.237500X0*%
%ADD15RoundRect,0.075000X1.250000X0.500000X-1.250000X0.500000X-1.250000X-0.500000X1.250000X-0.500000X0*%
%ADD16RoundRect,0.075000X0.500000X0.900000X-0.500000X0.900000X-0.500000X-0.900000X0.500000X-0.900000X0*%
%ADD17RoundRect,0.075000X0.350000X0.255000X-0.350000X0.255000X-0.350000X-0.255000X0.350000X-0.255000X0*%
%ADD18RoundRect,0.293750X-0.218750X-0.256250X0.218750X-0.256250X0.218750X0.256250X-0.218750X0.256250X0*%
%ADD19RoundRect,0.293750X0.256250X-0.218750X0.256250X0.218750X-0.256250X0.218750X-0.256250X-0.218750X0*%
%ADD20RoundRect,0.075000X-0.850000X-0.850000X0.850000X-0.850000X0.850000X0.850000X-0.850000X0.850000X0*%
%ADD21O,1.850000X1.850000*%
%ADD22RoundRect,0.293750X0.218750X0.256250X-0.218750X0.256250X-0.218750X-0.256250X0.218750X-0.256250X0*%
%ADD23RoundRect,0.075000X-0.350000X0.725000X-0.350000X-0.725000X0.350000X-0.725000X0.350000X0.725000X0*%
%ADD24RoundRect,0.075000X1.000000X0.750000X-1.000000X0.750000X-1.000000X-0.750000X1.000000X-0.750000X0*%
%ADD25RoundRect,0.075000X1.000000X1.900000X-1.000000X1.900000X-1.000000X-1.900000X1.000000X-1.900000X0*%
G04 APERTURE END LIST*
D10*
X85358000Y-55572000D03*
X85358000Y-60572000D03*
X114758000Y-50372000D03*
X114758000Y-65772000D03*
D11*
X75300000Y-60452000D03*
D12*
X75300000Y-55452000D03*
D11*
X75300000Y-71865000D03*
D12*
X75300000Y-66865000D03*
D13*
X96506000Y-84582000D03*
X94756000Y-84582000D03*
X96506000Y-80518000D03*
X94756000Y-80518000D03*
D14*
X94756000Y-78486000D03*
X96506000Y-78486000D03*
D13*
X96506000Y-82550000D03*
X94756000Y-82550000D03*
D15*
X114641000Y-86518000D03*
X114641000Y-84518000D03*
X114641000Y-82518000D03*
X114641000Y-80518000D03*
X114641000Y-78518000D03*
X114641000Y-76518000D03*
X114641000Y-74518000D03*
X114641000Y-72518000D03*
D16*
X112041000Y-71018000D03*
X110041000Y-71018000D03*
X108041000Y-71018000D03*
X106041000Y-71018000D03*
X104041000Y-71018000D03*
X102041000Y-71018000D03*
D15*
X99441000Y-72518000D03*
X99441000Y-74518000D03*
X99441000Y-76518000D03*
X99441000Y-78518000D03*
X99441000Y-80518000D03*
X99441000Y-82518000D03*
X99441000Y-84518000D03*
X99441000Y-86518000D03*
D17*
X96537000Y-73467000D03*
X96537000Y-72517000D03*
X96537000Y-71567000D03*
X94217000Y-71567000D03*
X94217000Y-73467000D03*
D18*
X94716500Y-86614000D03*
X96291500Y-86614000D03*
D19*
X84500000Y-88187500D03*
X84500000Y-86612500D03*
D20*
X89916000Y-73787000D03*
D21*
X89916000Y-76327000D03*
X89916000Y-78867000D03*
X89916000Y-81407000D03*
X89916000Y-83947000D03*
X89916000Y-86487000D03*
D22*
X96291500Y-69596000D03*
X94716500Y-69596000D03*
D18*
X94843500Y-75438000D03*
X96418500Y-75438000D03*
D23*
X96758000Y-94274000D03*
X96758000Y-89114000D03*
X94758000Y-94274000D03*
X94758000Y-89114000D03*
D24*
X91542000Y-94121000D03*
X91542000Y-91821000D03*
X91542000Y-89521000D03*
D25*
X85242000Y-91821000D03*
D10*
X81392500Y-91913000D03*
X73792500Y-91913000D03*
X73792500Y-76673000D03*
X81392500Y-79213000D03*
M02*
