G04 #@! TF.GenerationSoftware,KiCad,Pcbnew,5.1.9-73d0e3b20d~88~ubuntu20.04.1*
G04 #@! TF.CreationDate,2021-03-26T20:06:38+01:00*
G04 #@! TF.ProjectId,AC Relay,41432052-656c-4617-992e-6b696361645f,rev?*
G04 #@! TF.SameCoordinates,Original*
G04 #@! TF.FileFunction,Soldermask,Bot*
G04 #@! TF.FilePolarity,Negative*
%FSLAX46Y46*%
G04 Gerber Fmt 4.6, Leading zero omitted, Abs format (unit mm)*
G04 Created by KiCad (PCBNEW 5.1.9-73d0e3b20d~88~ubuntu20.04.1) date 2021-03-26 20:06:38*
%MOMM*%
%LPD*%
G01*
G04 APERTURE LIST*
%ADD10C,2.650000*%
%ADD11O,1.850000X1.850000*%
%ADD12O,4.110000X2.130000*%
G04 APERTURE END LIST*
D10*
X85358000Y-55572000D03*
X85358000Y-60572000D03*
X114758000Y-50372000D03*
X114758000Y-65772000D03*
X80615000Y-91865000D03*
X73015000Y-91865000D03*
X73015000Y-76625000D03*
X80615000Y-79165000D03*
G36*
G01*
X88991000Y-74637000D02*
X88991000Y-72937000D01*
G75*
G02*
X89066000Y-72862000I75000J0D01*
G01*
X90766000Y-72862000D01*
G75*
G02*
X90841000Y-72937000I0J-75000D01*
G01*
X90841000Y-74637000D01*
G75*
G02*
X90766000Y-74712000I-75000J0D01*
G01*
X89066000Y-74712000D01*
G75*
G02*
X88991000Y-74637000I0J75000D01*
G01*
G37*
D11*
X89916000Y-76327000D03*
X89916000Y-78867000D03*
X89916000Y-81407000D03*
X89916000Y-83947000D03*
X89916000Y-86487000D03*
D12*
X75692000Y-66882000D03*
G36*
G01*
X77672000Y-72947000D02*
X73712000Y-72947000D01*
G75*
G02*
X73637000Y-72872000I0J75000D01*
G01*
X73637000Y-70892000D01*
G75*
G02*
X73712000Y-70817000I75000J0D01*
G01*
X77672000Y-70817000D01*
G75*
G02*
X77747000Y-70892000I0J-75000D01*
G01*
X77747000Y-72872000D01*
G75*
G02*
X77672000Y-72947000I-75000J0D01*
G01*
G37*
G36*
G01*
X77672000Y-61517000D02*
X73712000Y-61517000D01*
G75*
G02*
X73637000Y-61442000I0J75000D01*
G01*
X73637000Y-59462000D01*
G75*
G02*
X73712000Y-59387000I75000J0D01*
G01*
X77672000Y-59387000D01*
G75*
G02*
X77747000Y-59462000I0J-75000D01*
G01*
X77747000Y-61442000D01*
G75*
G02*
X77672000Y-61517000I-75000J0D01*
G01*
G37*
X75692000Y-55452000D03*
M02*
