G04 #@! TF.GenerationSoftware,KiCad,Pcbnew,6.0.7-f9a2dced07~116~ubuntu20.04.1*
G04 #@! TF.CreationDate,2022-09-27T22:41:57+02:00*
G04 #@! TF.ProjectId,AC Relay,41432052-656c-4617-992e-6b696361645f,rev?*
G04 #@! TF.SameCoordinates,Original*
G04 #@! TF.FileFunction,Copper,L2,Bot*
G04 #@! TF.FilePolarity,Positive*
%FSLAX46Y46*%
G04 Gerber Fmt 4.6, Leading zero omitted, Abs format (unit mm)*
G04 Created by KiCad (PCBNEW 6.0.7-f9a2dced07~116~ubuntu20.04.1) date 2022-09-27 22:41:57*
%MOMM*%
%LPD*%
G01*
G04 APERTURE LIST*
G04 #@! TA.AperFunction,ComponentPad*
%ADD10C,2.500000*%
G04 #@! TD*
G04 #@! TA.AperFunction,ComponentPad*
%ADD11R,3.960000X1.980000*%
G04 #@! TD*
G04 #@! TA.AperFunction,ComponentPad*
%ADD12O,3.960000X1.980000*%
G04 #@! TD*
G04 #@! TA.AperFunction,ComponentPad*
%ADD13R,1.700000X1.700000*%
G04 #@! TD*
G04 #@! TA.AperFunction,ComponentPad*
%ADD14O,1.700000X1.700000*%
G04 #@! TD*
G04 #@! TA.AperFunction,ViaPad*
%ADD15C,0.800000*%
G04 #@! TD*
G04 #@! TA.AperFunction,Conductor*
%ADD16C,0.350000*%
G04 #@! TD*
G04 #@! TA.AperFunction,Conductor*
%ADD17C,2.700000*%
G04 #@! TD*
G04 #@! TA.AperFunction,Conductor*
%ADD18C,0.250000*%
G04 #@! TD*
G04 #@! TA.AperFunction,Conductor*
%ADD19C,1.000000*%
G04 #@! TD*
G04 APERTURE END LIST*
D10*
X85358000Y-55572000D03*
X85358000Y-60572000D03*
X114758000Y-50372000D03*
X114758000Y-65772000D03*
D11*
X75300000Y-60452000D03*
D12*
X75300000Y-55452000D03*
D11*
X75300000Y-71865000D03*
D12*
X75300000Y-66865000D03*
D13*
X89916000Y-73787000D03*
D14*
X89916000Y-76327000D03*
X89916000Y-78867000D03*
X89916000Y-81407000D03*
X89916000Y-83947000D03*
X89916000Y-86487000D03*
D10*
X81392500Y-91913000D03*
X73792500Y-91913000D03*
X73792500Y-76673000D03*
X81392500Y-79213000D03*
D15*
X102743000Y-78486000D03*
X97536000Y-83367999D03*
X112522000Y-86487000D03*
X102616000Y-84455000D03*
X102616000Y-86487000D03*
D16*
X76451000Y-87249000D02*
X73792500Y-89907500D01*
X85725000Y-87249000D02*
X76451000Y-87249000D01*
X86741000Y-73533000D02*
X86741000Y-86233000D01*
X86741000Y-86233000D02*
X85725000Y-87249000D01*
X94502000Y-65772000D02*
X86741000Y-73533000D01*
X73792500Y-89907500D02*
X73792500Y-91913000D01*
X114758000Y-65772000D02*
X94502000Y-65772000D01*
D17*
X75300000Y-75165500D02*
X73792500Y-76673000D01*
X75300000Y-71865000D02*
X75300000Y-75165500D01*
X81392500Y-68392500D02*
X79882000Y-66882000D01*
X81392500Y-79213000D02*
X81392500Y-68392500D01*
X75300000Y-66865000D02*
X79865000Y-66865000D01*
D18*
X79865000Y-66865000D02*
X79882000Y-66882000D01*
D19*
X75692000Y-55452000D02*
X85238000Y-55452000D01*
D18*
X85238000Y-55452000D02*
X85358000Y-55572000D01*
X85238000Y-60452000D02*
X85358000Y-60572000D01*
D19*
X75692000Y-60452000D02*
X85238000Y-60452000D01*
D18*
X90297000Y-78486000D02*
X89916000Y-78867000D01*
X102743000Y-78486000D02*
X90297000Y-78486000D01*
X109402999Y-83367999D02*
X112522000Y-86487000D01*
X97536000Y-83367999D02*
X109402999Y-83367999D01*
X91876999Y-83367999D02*
X89916000Y-81407000D01*
X97536000Y-83367999D02*
X91876999Y-83367999D01*
X90424000Y-84455000D02*
X89916000Y-83947000D01*
X102616000Y-84455000D02*
X90424000Y-84455000D01*
X97155000Y-86487000D02*
X102616000Y-86487000D01*
X97155000Y-86487000D02*
X89916000Y-86487000D01*
G04 #@! TA.AperFunction,Conductor*
G36*
X116782534Y-48280002D02*
G01*
X116829027Y-48333658D01*
X116840412Y-48385586D01*
X116966529Y-86851068D01*
X116966586Y-86868587D01*
X116946808Y-86936773D01*
X116893305Y-86983441D01*
X116840587Y-86995000D01*
X113485618Y-86995000D01*
X113417497Y-86974998D01*
X113371004Y-86921342D01*
X113360900Y-86851068D01*
X113365785Y-86830064D01*
X113413502Y-86683206D01*
X113415542Y-86676928D01*
X113419626Y-86638077D01*
X113434814Y-86493565D01*
X113435504Y-86487000D01*
X113428061Y-86416182D01*
X113416232Y-86303635D01*
X113416232Y-86303633D01*
X113415542Y-86297072D01*
X113356527Y-86115444D01*
X113261040Y-85950056D01*
X113164503Y-85842840D01*
X113137675Y-85813045D01*
X113137674Y-85813044D01*
X113133253Y-85808134D01*
X112978752Y-85695882D01*
X112972724Y-85693198D01*
X112972722Y-85693197D01*
X112810319Y-85620891D01*
X112810318Y-85620891D01*
X112804288Y-85618206D01*
X112710888Y-85598353D01*
X112623944Y-85579872D01*
X112623939Y-85579872D01*
X112617487Y-85578500D01*
X112561594Y-85578500D01*
X112493473Y-85558498D01*
X112472499Y-85541595D01*
X111202540Y-84271635D01*
X109906651Y-82975746D01*
X109899111Y-82967460D01*
X109894999Y-82960981D01*
X109845347Y-82914355D01*
X109842506Y-82911601D01*
X109822769Y-82891864D01*
X109819572Y-82889384D01*
X109810550Y-82881679D01*
X109784099Y-82856840D01*
X109778320Y-82851413D01*
X109771374Y-82847594D01*
X109771371Y-82847592D01*
X109760565Y-82841651D01*
X109744046Y-82830800D01*
X109743582Y-82830440D01*
X109728040Y-82818385D01*
X109720771Y-82815240D01*
X109720767Y-82815237D01*
X109687462Y-82800825D01*
X109676812Y-82795608D01*
X109638059Y-82774304D01*
X109618436Y-82769266D01*
X109599733Y-82762862D01*
X109588419Y-82757966D01*
X109588418Y-82757966D01*
X109581144Y-82754818D01*
X109573321Y-82753579D01*
X109573311Y-82753576D01*
X109537475Y-82747900D01*
X109525855Y-82745494D01*
X109490710Y-82736471D01*
X109490709Y-82736471D01*
X109483029Y-82734499D01*
X109462775Y-82734499D01*
X109443064Y-82732948D01*
X109430885Y-82731019D01*
X109423056Y-82729779D01*
X109415164Y-82730525D01*
X109379038Y-82733940D01*
X109367180Y-82734499D01*
X98244200Y-82734499D01*
X98176079Y-82714497D01*
X98156853Y-82698156D01*
X98156580Y-82698459D01*
X98151668Y-82694036D01*
X98147253Y-82689133D01*
X98049504Y-82618114D01*
X97998094Y-82580762D01*
X97998093Y-82580761D01*
X97992752Y-82576881D01*
X97986724Y-82574197D01*
X97986722Y-82574196D01*
X97824319Y-82501890D01*
X97824318Y-82501890D01*
X97818288Y-82499205D01*
X97724887Y-82479352D01*
X97637944Y-82460871D01*
X97637939Y-82460871D01*
X97631487Y-82459499D01*
X97440513Y-82459499D01*
X97434061Y-82460871D01*
X97434056Y-82460871D01*
X97347113Y-82479352D01*
X97253712Y-82499205D01*
X97247682Y-82501890D01*
X97247681Y-82501890D01*
X97085278Y-82574196D01*
X97085276Y-82574197D01*
X97079248Y-82576881D01*
X97073907Y-82580761D01*
X97073906Y-82580762D01*
X97022496Y-82618114D01*
X96924747Y-82689133D01*
X96920332Y-82694036D01*
X96915420Y-82698459D01*
X96914295Y-82697210D01*
X96860986Y-82730050D01*
X96827800Y-82734499D01*
X92191594Y-82734499D01*
X92123473Y-82714497D01*
X92102499Y-82697594D01*
X91267218Y-81862313D01*
X91233192Y-81800001D01*
X91235755Y-81736589D01*
X91246865Y-81700022D01*
X91248370Y-81695069D01*
X91277529Y-81473590D01*
X91279156Y-81407000D01*
X91260852Y-81184361D01*
X91206431Y-80967702D01*
X91117354Y-80762840D01*
X90996014Y-80575277D01*
X90845670Y-80410051D01*
X90841619Y-80406852D01*
X90841615Y-80406848D01*
X90674414Y-80274800D01*
X90674410Y-80274798D01*
X90670359Y-80271598D01*
X90629053Y-80248796D01*
X90579084Y-80198364D01*
X90564312Y-80128921D01*
X90589428Y-80062516D01*
X90616780Y-80035909D01*
X90660603Y-80004650D01*
X90795860Y-79908173D01*
X90954096Y-79750489D01*
X91013594Y-79667689D01*
X91081435Y-79573277D01*
X91084453Y-79569077D01*
X91183430Y-79368811D01*
X91232024Y-79208871D01*
X91270965Y-79149507D01*
X91335819Y-79120620D01*
X91352582Y-79119500D01*
X102034800Y-79119500D01*
X102102921Y-79139502D01*
X102122147Y-79155843D01*
X102122420Y-79155540D01*
X102127332Y-79159963D01*
X102131747Y-79164866D01*
X102286248Y-79277118D01*
X102292276Y-79279802D01*
X102292278Y-79279803D01*
X102454681Y-79352109D01*
X102460712Y-79354794D01*
X102548495Y-79373453D01*
X102641056Y-79393128D01*
X102641061Y-79393128D01*
X102647513Y-79394500D01*
X102838487Y-79394500D01*
X102844939Y-79393128D01*
X102844944Y-79393128D01*
X102937505Y-79373453D01*
X103025288Y-79354794D01*
X103031319Y-79352109D01*
X103193722Y-79279803D01*
X103193724Y-79279802D01*
X103199752Y-79277118D01*
X103354253Y-79164866D01*
X103447084Y-79061767D01*
X103477621Y-79027852D01*
X103477622Y-79027851D01*
X103482040Y-79022944D01*
X103577527Y-78857556D01*
X103636542Y-78675928D01*
X103656504Y-78486000D01*
X103655814Y-78479435D01*
X103637232Y-78302635D01*
X103637232Y-78302633D01*
X103636542Y-78296072D01*
X103577527Y-78114444D01*
X103482040Y-77949056D01*
X103387925Y-77844530D01*
X103358675Y-77812045D01*
X103358674Y-77812044D01*
X103354253Y-77807134D01*
X103199752Y-77694882D01*
X103193724Y-77692198D01*
X103193722Y-77692197D01*
X103031319Y-77619891D01*
X103031318Y-77619891D01*
X103025288Y-77617206D01*
X102926200Y-77596144D01*
X102844944Y-77578872D01*
X102844939Y-77578872D01*
X102838487Y-77577500D01*
X102647513Y-77577500D01*
X102641061Y-77578872D01*
X102641056Y-77578872D01*
X102559800Y-77596144D01*
X102460712Y-77617206D01*
X102454682Y-77619891D01*
X102454681Y-77619891D01*
X102292278Y-77692197D01*
X102292276Y-77692198D01*
X102286248Y-77694882D01*
X102280907Y-77698762D01*
X102280906Y-77698763D01*
X102235713Y-77731598D01*
X102131747Y-77807134D01*
X102127332Y-77812037D01*
X102122420Y-77816460D01*
X102121295Y-77815211D01*
X102067986Y-77848051D01*
X102034800Y-77852500D01*
X90867202Y-77852500D01*
X90799081Y-77832498D01*
X90789110Y-77825382D01*
X90674414Y-77734800D01*
X90674410Y-77734798D01*
X90670359Y-77731598D01*
X90629053Y-77708796D01*
X90579084Y-77658364D01*
X90564312Y-77588921D01*
X90589428Y-77522516D01*
X90616780Y-77495909D01*
X90660603Y-77464650D01*
X90795860Y-77368173D01*
X90954096Y-77210489D01*
X91013594Y-77127689D01*
X91081435Y-77033277D01*
X91084453Y-77029077D01*
X91183430Y-76828811D01*
X91248370Y-76615069D01*
X91277529Y-76393590D01*
X91279156Y-76327000D01*
X91260852Y-76104361D01*
X91206431Y-75887702D01*
X91117354Y-75682840D01*
X90996014Y-75495277D01*
X90992540Y-75491459D01*
X90992533Y-75491450D01*
X90848435Y-75333088D01*
X90817383Y-75269242D01*
X90825779Y-75198744D01*
X90870956Y-75143976D01*
X90897400Y-75130307D01*
X91004052Y-75090325D01*
X91019649Y-75081786D01*
X91121724Y-75005285D01*
X91134285Y-74992724D01*
X91210786Y-74890649D01*
X91219324Y-74875054D01*
X91264478Y-74754606D01*
X91268105Y-74739351D01*
X91273631Y-74688486D01*
X91274000Y-74681672D01*
X91274000Y-74059115D01*
X91269525Y-74043876D01*
X91268135Y-74042671D01*
X91260452Y-74041000D01*
X88576116Y-74041000D01*
X88560877Y-74045475D01*
X88559672Y-74046865D01*
X88558001Y-74054548D01*
X88558001Y-74681669D01*
X88558371Y-74688490D01*
X88563895Y-74739352D01*
X88567521Y-74754604D01*
X88612676Y-74875054D01*
X88621214Y-74890649D01*
X88697715Y-74992724D01*
X88710276Y-75005285D01*
X88812351Y-75081786D01*
X88827946Y-75090324D01*
X88936827Y-75131142D01*
X88993591Y-75173784D01*
X89018291Y-75240345D01*
X89003083Y-75309694D01*
X88983691Y-75336175D01*
X88860200Y-75465401D01*
X88856629Y-75469138D01*
X88730743Y-75653680D01*
X88636688Y-75856305D01*
X88576989Y-76071570D01*
X88553251Y-76293695D01*
X88553548Y-76298848D01*
X88553548Y-76298851D01*
X88559011Y-76393590D01*
X88566110Y-76516715D01*
X88567247Y-76521761D01*
X88567248Y-76521767D01*
X88587119Y-76609939D01*
X88615222Y-76734639D01*
X88699266Y-76941616D01*
X88815987Y-77132088D01*
X88962250Y-77300938D01*
X89134126Y-77443632D01*
X89204595Y-77484811D01*
X89207445Y-77486476D01*
X89256169Y-77538114D01*
X89269240Y-77607897D01*
X89242509Y-77673669D01*
X89202055Y-77707027D01*
X89189607Y-77713507D01*
X89185474Y-77716610D01*
X89185471Y-77716612D01*
X89015100Y-77844530D01*
X89010965Y-77847635D01*
X88856629Y-78009138D01*
X88730743Y-78193680D01*
X88636688Y-78396305D01*
X88576989Y-78611570D01*
X88553251Y-78833695D01*
X88566110Y-79056715D01*
X88567247Y-79061761D01*
X88567248Y-79061767D01*
X88580259Y-79119500D01*
X88615222Y-79274639D01*
X88699266Y-79481616D01*
X88815987Y-79672088D01*
X88962250Y-79840938D01*
X89134126Y-79983632D01*
X89204595Y-80024811D01*
X89207445Y-80026476D01*
X89256169Y-80078114D01*
X89269240Y-80147897D01*
X89242509Y-80213669D01*
X89202055Y-80247027D01*
X89189607Y-80253507D01*
X89185474Y-80256610D01*
X89185471Y-80256612D01*
X89161247Y-80274800D01*
X89010965Y-80387635D01*
X88856629Y-80549138D01*
X88730743Y-80733680D01*
X88715003Y-80767590D01*
X88641799Y-80925295D01*
X88636688Y-80936305D01*
X88576989Y-81151570D01*
X88553251Y-81373695D01*
X88553548Y-81378848D01*
X88553548Y-81378851D01*
X88559011Y-81473590D01*
X88566110Y-81596715D01*
X88567247Y-81601761D01*
X88567248Y-81601767D01*
X88587119Y-81689939D01*
X88615222Y-81814639D01*
X88699266Y-82021616D01*
X88815987Y-82212088D01*
X88962250Y-82380938D01*
X89134126Y-82523632D01*
X89204595Y-82564811D01*
X89207445Y-82566476D01*
X89256169Y-82618114D01*
X89269240Y-82687897D01*
X89242509Y-82753669D01*
X89202055Y-82787027D01*
X89189607Y-82793507D01*
X89185474Y-82796610D01*
X89185471Y-82796612D01*
X89054873Y-82894668D01*
X89010965Y-82927635D01*
X88856629Y-83089138D01*
X88730743Y-83273680D01*
X88636688Y-83476305D01*
X88576989Y-83691570D01*
X88553251Y-83913695D01*
X88553548Y-83918848D01*
X88553548Y-83918851D01*
X88563038Y-84083444D01*
X88566110Y-84136715D01*
X88567247Y-84141761D01*
X88567248Y-84141767D01*
X88591304Y-84248508D01*
X88615222Y-84354639D01*
X88699266Y-84561616D01*
X88815987Y-84752088D01*
X88962250Y-84920938D01*
X89134126Y-85063632D01*
X89176683Y-85088500D01*
X89207445Y-85106476D01*
X89256169Y-85158114D01*
X89269240Y-85227897D01*
X89242509Y-85293669D01*
X89202055Y-85327027D01*
X89189607Y-85333507D01*
X89185474Y-85336610D01*
X89185471Y-85336612D01*
X89042935Y-85443631D01*
X89010965Y-85467635D01*
X89007393Y-85471373D01*
X88911702Y-85571508D01*
X88856629Y-85629138D01*
X88730743Y-85813680D01*
X88636688Y-86016305D01*
X88576989Y-86231570D01*
X88553251Y-86453695D01*
X88553548Y-86458848D01*
X88553548Y-86458851D01*
X88560554Y-86580355D01*
X88566110Y-86676715D01*
X88567247Y-86681761D01*
X88567248Y-86681767D01*
X88579506Y-86736156D01*
X88615222Y-86894639D01*
X88699266Y-87101616D01*
X88815987Y-87292088D01*
X88962250Y-87460938D01*
X89134126Y-87603632D01*
X89327000Y-87716338D01*
X89535692Y-87796030D01*
X89540760Y-87797061D01*
X89540763Y-87797062D01*
X89648017Y-87818883D01*
X89754597Y-87840567D01*
X89759772Y-87840757D01*
X89759774Y-87840757D01*
X89972673Y-87848564D01*
X89972677Y-87848564D01*
X89977837Y-87848753D01*
X89982957Y-87848097D01*
X89982959Y-87848097D01*
X90194288Y-87821025D01*
X90194289Y-87821025D01*
X90199416Y-87820368D01*
X90204366Y-87818883D01*
X90408429Y-87757661D01*
X90408434Y-87757659D01*
X90413384Y-87756174D01*
X90613994Y-87657896D01*
X90795860Y-87528173D01*
X90954096Y-87370489D01*
X90964656Y-87355794D01*
X91081435Y-87193277D01*
X91084453Y-87189077D01*
X91086746Y-87184437D01*
X91088446Y-87181608D01*
X91140674Y-87133518D01*
X91196451Y-87120500D01*
X93219000Y-87120500D01*
X93287121Y-87140502D01*
X93333614Y-87194158D01*
X93345000Y-87246500D01*
X93345000Y-95124000D01*
X93324998Y-95192121D01*
X93271342Y-95238614D01*
X93219000Y-95250000D01*
X86486000Y-95250000D01*
X86417879Y-95229998D01*
X86371386Y-95176342D01*
X86360000Y-95124000D01*
X86360000Y-87632805D01*
X86380002Y-87564684D01*
X86396905Y-87543710D01*
X87204459Y-86736156D01*
X87210724Y-86730302D01*
X87246945Y-86698704D01*
X87252670Y-86693710D01*
X87288066Y-86643345D01*
X87291980Y-86638077D01*
X87325248Y-86595649D01*
X87329935Y-86589672D01*
X87333061Y-86582748D01*
X87335671Y-86578439D01*
X87341042Y-86569024D01*
X87343427Y-86564576D01*
X87347795Y-86558361D01*
X87370144Y-86501039D01*
X87372698Y-86494962D01*
X87379258Y-86480435D01*
X87398014Y-86438895D01*
X87399400Y-86431418D01*
X87400910Y-86426598D01*
X87403878Y-86416182D01*
X87405131Y-86411302D01*
X87407889Y-86404228D01*
X87415921Y-86343223D01*
X87416953Y-86336710D01*
X87426777Y-86283701D01*
X87426777Y-86283699D01*
X87428161Y-86276232D01*
X87424709Y-86216357D01*
X87424500Y-86209105D01*
X87424500Y-73868305D01*
X87444502Y-73800184D01*
X87461405Y-73779210D01*
X88342905Y-72897710D01*
X88405217Y-72863684D01*
X88476032Y-72868749D01*
X88532868Y-72911296D01*
X88557679Y-72977816D01*
X88558000Y-72986805D01*
X88558000Y-73514885D01*
X88562475Y-73530124D01*
X88563865Y-73531329D01*
X88571548Y-73533000D01*
X89643885Y-73533000D01*
X89659124Y-73528525D01*
X89660329Y-73527135D01*
X89662000Y-73519452D01*
X89662000Y-73514885D01*
X90170000Y-73514885D01*
X90174475Y-73530124D01*
X90175865Y-73531329D01*
X90183548Y-73533000D01*
X91255884Y-73533000D01*
X91271123Y-73528525D01*
X91272328Y-73527135D01*
X91273999Y-73519452D01*
X91273999Y-72892331D01*
X91273629Y-72885510D01*
X91268105Y-72834648D01*
X91264479Y-72819396D01*
X91219324Y-72698946D01*
X91210786Y-72683351D01*
X91134285Y-72581276D01*
X91121724Y-72568715D01*
X91019649Y-72492214D01*
X91004054Y-72483676D01*
X90883606Y-72438522D01*
X90868351Y-72434895D01*
X90817486Y-72429369D01*
X90810672Y-72429000D01*
X90188115Y-72429000D01*
X90172876Y-72433475D01*
X90171671Y-72434865D01*
X90170000Y-72442548D01*
X90170000Y-73514885D01*
X89662000Y-73514885D01*
X89662000Y-72447116D01*
X89657525Y-72431877D01*
X89656135Y-72430672D01*
X89648452Y-72429001D01*
X89115804Y-72429001D01*
X89047683Y-72408999D01*
X89001190Y-72355343D01*
X88991086Y-72285069D01*
X89020580Y-72220489D01*
X89026709Y-72213906D01*
X94748210Y-66492405D01*
X94810522Y-66458379D01*
X94837305Y-66455500D01*
X113053556Y-66455500D01*
X113121677Y-66475502D01*
X113164548Y-66521862D01*
X113213753Y-66613437D01*
X113270737Y-66719491D01*
X113273532Y-66723234D01*
X113273534Y-66723237D01*
X113424330Y-66925177D01*
X113424335Y-66925183D01*
X113427122Y-66928915D01*
X113430431Y-66932195D01*
X113430436Y-66932201D01*
X113609426Y-67109635D01*
X113612743Y-67112923D01*
X113616505Y-67115681D01*
X113616508Y-67115684D01*
X113819750Y-67264707D01*
X113823524Y-67267474D01*
X113827667Y-67269654D01*
X113827669Y-67269655D01*
X114050684Y-67386989D01*
X114050689Y-67386991D01*
X114054834Y-67389172D01*
X114301590Y-67475344D01*
X114306183Y-67476216D01*
X114553785Y-67523224D01*
X114553788Y-67523224D01*
X114558374Y-67524095D01*
X114688958Y-67529226D01*
X114814875Y-67534174D01*
X114814881Y-67534174D01*
X114819543Y-67534357D01*
X114898977Y-67525657D01*
X115074707Y-67506412D01*
X115074712Y-67506411D01*
X115079360Y-67505902D01*
X115192116Y-67476216D01*
X115327594Y-67440548D01*
X115327596Y-67440547D01*
X115332117Y-67439357D01*
X115572262Y-67336182D01*
X115794519Y-67198646D01*
X115798082Y-67195629D01*
X115798087Y-67195626D01*
X115990439Y-67032787D01*
X115990440Y-67032786D01*
X115994005Y-67029768D01*
X116085729Y-66925177D01*
X116163257Y-66836774D01*
X116163261Y-66836769D01*
X116166339Y-66833259D01*
X116307733Y-66613437D01*
X116415083Y-66375129D01*
X116440022Y-66286704D01*
X116484760Y-66128076D01*
X116484761Y-66128073D01*
X116486030Y-66123572D01*
X116499968Y-66014010D01*
X116518616Y-65867421D01*
X116518616Y-65867417D01*
X116519014Y-65864291D01*
X116519302Y-65853321D01*
X116521348Y-65775160D01*
X116521431Y-65772000D01*
X116502061Y-65511348D01*
X116494546Y-65478133D01*
X116445408Y-65260980D01*
X116444377Y-65256423D01*
X116414410Y-65179362D01*
X116351340Y-65017176D01*
X116351339Y-65017173D01*
X116349647Y-65012823D01*
X116219951Y-64785902D01*
X116058138Y-64580643D01*
X115867763Y-64401557D01*
X115653009Y-64252576D01*
X115648816Y-64250508D01*
X115422781Y-64139040D01*
X115422778Y-64139039D01*
X115418593Y-64136975D01*
X115372449Y-64122204D01*
X115174123Y-64058720D01*
X115169665Y-64057293D01*
X114911693Y-64015279D01*
X114797942Y-64013790D01*
X114655022Y-64011919D01*
X114655019Y-64011919D01*
X114650345Y-64011858D01*
X114391362Y-64047104D01*
X114140433Y-64120243D01*
X114136180Y-64122203D01*
X114136179Y-64122204D01*
X114099659Y-64139040D01*
X113903072Y-64229668D01*
X113864067Y-64255241D01*
X113688404Y-64370410D01*
X113688399Y-64370414D01*
X113684491Y-64372976D01*
X113489494Y-64547018D01*
X113322363Y-64747970D01*
X113186771Y-64971419D01*
X113184962Y-64975733D01*
X113170079Y-65011225D01*
X113125290Y-65066312D01*
X113053882Y-65088500D01*
X94530045Y-65088500D01*
X94521476Y-65088208D01*
X94473542Y-65084940D01*
X94473538Y-65084940D01*
X94465966Y-65084424D01*
X94458489Y-65085729D01*
X94458486Y-65085729D01*
X94405353Y-65095002D01*
X94398829Y-65095965D01*
X94345309Y-65102442D01*
X94337765Y-65103355D01*
X94330655Y-65106042D01*
X94325752Y-65107246D01*
X94315266Y-65110114D01*
X94310474Y-65111561D01*
X94302996Y-65112866D01*
X94296044Y-65115918D01*
X94296043Y-65115918D01*
X94246656Y-65137596D01*
X94240551Y-65140087D01*
X94190125Y-65159142D01*
X94190119Y-65159145D01*
X94183011Y-65161831D01*
X94176747Y-65166137D01*
X94172251Y-65168487D01*
X94162819Y-65173737D01*
X94158473Y-65176307D01*
X94151514Y-65179362D01*
X94145484Y-65183989D01*
X94102691Y-65216824D01*
X94097366Y-65220693D01*
X94046674Y-65255534D01*
X94041623Y-65261203D01*
X94041622Y-65261204D01*
X94006768Y-65300323D01*
X94001787Y-65305598D01*
X86575595Y-72731790D01*
X86513283Y-72765816D01*
X86442468Y-72760751D01*
X86385632Y-72718204D01*
X86360821Y-72651684D01*
X86360500Y-72642695D01*
X86360500Y-71170722D01*
X86380502Y-71102601D01*
X86396255Y-71082791D01*
X87988629Y-69448513D01*
X87989779Y-69447349D01*
X90987308Y-66449820D01*
X90996845Y-66442200D01*
X90996531Y-66441831D01*
X91003364Y-66436016D01*
X91010958Y-66431224D01*
X91046585Y-66390883D01*
X91051931Y-66385197D01*
X91063383Y-66373745D01*
X91069660Y-66365370D01*
X91076045Y-66357527D01*
X91101436Y-66328777D01*
X91107378Y-66322049D01*
X91111194Y-66313922D01*
X91112807Y-66311466D01*
X91121823Y-66296463D01*
X91123234Y-66293885D01*
X91128616Y-66286704D01*
X91145239Y-66242363D01*
X91149164Y-66233048D01*
X91168450Y-66191971D01*
X91168453Y-66191963D01*
X91169281Y-66190200D01*
X91169341Y-66189814D01*
X91173440Y-66179891D01*
X91186000Y-66167000D01*
X91186000Y-66086076D01*
X91186167Y-66081754D01*
X91186500Y-66079614D01*
X91186500Y-66064090D01*
X91186847Y-66054752D01*
X91189875Y-66014010D01*
X91189875Y-66014009D01*
X91190540Y-66005059D01*
X91188666Y-65996282D01*
X91188104Y-65988031D01*
X91186500Y-65972834D01*
X91186500Y-53520250D01*
X91188246Y-53499345D01*
X91190770Y-53484344D01*
X91190770Y-53484341D01*
X91191576Y-53479552D01*
X91191729Y-53467000D01*
X91190992Y-53461851D01*
X91190041Y-53452984D01*
X91186321Y-53400974D01*
X91186000Y-53391985D01*
X91186000Y-51781133D01*
X113713612Y-51781133D01*
X113722325Y-51792653D01*
X113820018Y-51864284D01*
X113827928Y-51869227D01*
X114050890Y-51986533D01*
X114059453Y-51990256D01*
X114297304Y-52073318D01*
X114306313Y-52075732D01*
X114553842Y-52122727D01*
X114563098Y-52123781D01*
X114814857Y-52133673D01*
X114824171Y-52133347D01*
X115074615Y-52105920D01*
X115083792Y-52104219D01*
X115327431Y-52040074D01*
X115336251Y-52037037D01*
X115567736Y-51937583D01*
X115576008Y-51933276D01*
X115790249Y-51800700D01*
X115797188Y-51795658D01*
X115805518Y-51783019D01*
X115799456Y-51772666D01*
X114770812Y-50744022D01*
X114756868Y-50736408D01*
X114755035Y-50736539D01*
X114748420Y-50740790D01*
X113720270Y-51768940D01*
X113713612Y-51781133D01*
X91186000Y-51781133D01*
X91186000Y-50330523D01*
X112995898Y-50330523D01*
X113007987Y-50582175D01*
X113009124Y-50591435D01*
X113058274Y-50838535D01*
X113060768Y-50847528D01*
X113145900Y-51084639D01*
X113149700Y-51093174D01*
X113268946Y-51315101D01*
X113273957Y-51322968D01*
X113337446Y-51407990D01*
X113348704Y-51416439D01*
X113361123Y-51409667D01*
X114385978Y-50384812D01*
X114392356Y-50373132D01*
X115122408Y-50373132D01*
X115122539Y-50374965D01*
X115126790Y-50381580D01*
X116157913Y-51412703D01*
X116170293Y-51419463D01*
X116178634Y-51413219D01*
X116304765Y-51217127D01*
X116309212Y-51208936D01*
X116412691Y-50979222D01*
X116415882Y-50970455D01*
X116484269Y-50727976D01*
X116486129Y-50718834D01*
X116518116Y-50467396D01*
X116518597Y-50461108D01*
X116520847Y-50375160D01*
X116520696Y-50368851D01*
X116501912Y-50116074D01*
X116500536Y-50106868D01*
X116444929Y-49861126D01*
X116442205Y-49852215D01*
X116350888Y-49617392D01*
X116346877Y-49608983D01*
X116221854Y-49390240D01*
X116216643Y-49382514D01*
X116179391Y-49335261D01*
X116167466Y-49326790D01*
X116155934Y-49333276D01*
X115130022Y-50359188D01*
X115122408Y-50373132D01*
X114392356Y-50373132D01*
X114393592Y-50370868D01*
X114393461Y-50369035D01*
X114389210Y-50362420D01*
X113359321Y-49332531D01*
X113346013Y-49325264D01*
X113335974Y-49332386D01*
X113325761Y-49344666D01*
X113320346Y-49352258D01*
X113189646Y-49567646D01*
X113185408Y-49575963D01*
X113087981Y-49808299D01*
X113085020Y-49817149D01*
X113023006Y-50061331D01*
X113021384Y-50070528D01*
X112996143Y-50321198D01*
X112995898Y-50330523D01*
X91186000Y-50330523D01*
X91186000Y-48960803D01*
X113711216Y-48960803D01*
X113715789Y-48970579D01*
X114745188Y-49999978D01*
X114759132Y-50007592D01*
X114760965Y-50007461D01*
X114767580Y-50003210D01*
X115796419Y-48974371D01*
X115802803Y-48962681D01*
X115793391Y-48950570D01*
X115656593Y-48855670D01*
X115648565Y-48850942D01*
X115422593Y-48739505D01*
X115413960Y-48736017D01*
X115173998Y-48659205D01*
X115164938Y-48657029D01*
X114916260Y-48616529D01*
X114906973Y-48615717D01*
X114655053Y-48612419D01*
X114645742Y-48612989D01*
X114396097Y-48646964D01*
X114386978Y-48648902D01*
X114145098Y-48719404D01*
X114136367Y-48722667D01*
X113907558Y-48828151D01*
X113899406Y-48832670D01*
X113720353Y-48950062D01*
X113711216Y-48960803D01*
X91186000Y-48960803D01*
X91186000Y-48386000D01*
X91206002Y-48317879D01*
X91259658Y-48271386D01*
X91312000Y-48260000D01*
X116714413Y-48260000D01*
X116782534Y-48280002D01*
G37*
G04 #@! TD.AperFunction*
M02*
