G04 #@! TF.GenerationSoftware,KiCad,Pcbnew,6.0.7-f9a2dced07~116~ubuntu20.04.1*
G04 #@! TF.CreationDate,2022-09-27T22:41:57+02:00*
G04 #@! TF.ProjectId,AC Relay,41432052-656c-4617-992e-6b696361645f,rev?*
G04 #@! TF.SameCoordinates,Original*
G04 #@! TF.FileFunction,Copper,L1,Top*
G04 #@! TF.FilePolarity,Positive*
%FSLAX46Y46*%
G04 Gerber Fmt 4.6, Leading zero omitted, Abs format (unit mm)*
G04 Created by KiCad (PCBNEW 6.0.7-f9a2dced07~116~ubuntu20.04.1) date 2022-09-27 22:41:57*
%MOMM*%
%LPD*%
G01*
G04 APERTURE LIST*
G04 Aperture macros list*
%AMRoundRect*
0 Rectangle with rounded corners*
0 $1 Rounding radius*
0 $2 $3 $4 $5 $6 $7 $8 $9 X,Y pos of 4 corners*
0 Add a 4 corners polygon primitive as box body*
4,1,4,$2,$3,$4,$5,$6,$7,$8,$9,$2,$3,0*
0 Add four circle primitives for the rounded corners*
1,1,$1+$1,$2,$3*
1,1,$1+$1,$4,$5*
1,1,$1+$1,$6,$7*
1,1,$1+$1,$8,$9*
0 Add four rect primitives between the rounded corners*
20,1,$1+$1,$2,$3,$4,$5,0*
20,1,$1+$1,$4,$5,$6,$7,0*
20,1,$1+$1,$6,$7,$8,$9,0*
20,1,$1+$1,$8,$9,$2,$3,0*%
G04 Aperture macros list end*
G04 #@! TA.AperFunction,ComponentPad*
%ADD10C,2.500000*%
G04 #@! TD*
G04 #@! TA.AperFunction,ComponentPad*
%ADD11R,3.960000X1.980000*%
G04 #@! TD*
G04 #@! TA.AperFunction,ComponentPad*
%ADD12O,3.960000X1.980000*%
G04 #@! TD*
G04 #@! TA.AperFunction,SMDPad,CuDef*
%ADD13RoundRect,0.237500X0.287500X0.237500X-0.287500X0.237500X-0.287500X-0.237500X0.287500X-0.237500X0*%
G04 #@! TD*
G04 #@! TA.AperFunction,SMDPad,CuDef*
%ADD14RoundRect,0.237500X-0.287500X-0.237500X0.287500X-0.237500X0.287500X0.237500X-0.287500X0.237500X0*%
G04 #@! TD*
G04 #@! TA.AperFunction,SMDPad,CuDef*
%ADD15R,2.500000X1.000000*%
G04 #@! TD*
G04 #@! TA.AperFunction,SMDPad,CuDef*
%ADD16R,1.000000X1.800000*%
G04 #@! TD*
G04 #@! TA.AperFunction,SMDPad,CuDef*
%ADD17R,0.700000X0.510000*%
G04 #@! TD*
G04 #@! TA.AperFunction,SMDPad,CuDef*
%ADD18RoundRect,0.218750X-0.218750X-0.256250X0.218750X-0.256250X0.218750X0.256250X-0.218750X0.256250X0*%
G04 #@! TD*
G04 #@! TA.AperFunction,SMDPad,CuDef*
%ADD19RoundRect,0.218750X0.256250X-0.218750X0.256250X0.218750X-0.256250X0.218750X-0.256250X-0.218750X0*%
G04 #@! TD*
G04 #@! TA.AperFunction,ComponentPad*
%ADD20R,1.700000X1.700000*%
G04 #@! TD*
G04 #@! TA.AperFunction,ComponentPad*
%ADD21O,1.700000X1.700000*%
G04 #@! TD*
G04 #@! TA.AperFunction,SMDPad,CuDef*
%ADD22RoundRect,0.218750X0.218750X0.256250X-0.218750X0.256250X-0.218750X-0.256250X0.218750X-0.256250X0*%
G04 #@! TD*
G04 #@! TA.AperFunction,SMDPad,CuDef*
%ADD23R,0.700000X1.450000*%
G04 #@! TD*
G04 #@! TA.AperFunction,SMDPad,CuDef*
%ADD24R,2.000000X1.500000*%
G04 #@! TD*
G04 #@! TA.AperFunction,SMDPad,CuDef*
%ADD25R,2.000000X3.800000*%
G04 #@! TD*
G04 #@! TA.AperFunction,ViaPad*
%ADD26C,0.800000*%
G04 #@! TD*
G04 #@! TA.AperFunction,Conductor*
%ADD27C,0.350000*%
G04 #@! TD*
G04 #@! TA.AperFunction,Conductor*
%ADD28C,0.250000*%
G04 #@! TD*
G04 #@! TA.AperFunction,Conductor*
%ADD29C,0.400000*%
G04 #@! TD*
G04 #@! TA.AperFunction,Conductor*
%ADD30C,0.300000*%
G04 #@! TD*
G04 APERTURE END LIST*
D10*
X85358000Y-55572000D03*
X85358000Y-60572000D03*
X114758000Y-50372000D03*
X114758000Y-65772000D03*
D11*
X75300000Y-60452000D03*
D12*
X75300000Y-55452000D03*
D11*
X75300000Y-71865000D03*
D12*
X75300000Y-66865000D03*
D13*
X96506000Y-84582000D03*
X94756000Y-84582000D03*
X96506000Y-80518000D03*
X94756000Y-80518000D03*
D14*
X94756000Y-78486000D03*
X96506000Y-78486000D03*
D13*
X96506000Y-82550000D03*
X94756000Y-82550000D03*
D15*
X114641000Y-86518000D03*
X114641000Y-84518000D03*
X114641000Y-82518000D03*
X114641000Y-80518000D03*
X114641000Y-78518000D03*
X114641000Y-76518000D03*
X114641000Y-74518000D03*
X114641000Y-72518000D03*
D16*
X112041000Y-71018000D03*
X110041000Y-71018000D03*
X108041000Y-71018000D03*
X106041000Y-71018000D03*
X104041000Y-71018000D03*
X102041000Y-71018000D03*
D15*
X99441000Y-72518000D03*
X99441000Y-74518000D03*
X99441000Y-76518000D03*
X99441000Y-78518000D03*
X99441000Y-80518000D03*
X99441000Y-82518000D03*
X99441000Y-84518000D03*
X99441000Y-86518000D03*
D17*
X96537000Y-73467000D03*
X96537000Y-72517000D03*
X96537000Y-71567000D03*
X94217000Y-71567000D03*
X94217000Y-73467000D03*
D18*
X94716500Y-86614000D03*
X96291500Y-86614000D03*
D19*
X84500000Y-88187500D03*
X84500000Y-86612500D03*
D20*
X89916000Y-73787000D03*
D21*
X89916000Y-76327000D03*
X89916000Y-78867000D03*
X89916000Y-81407000D03*
X89916000Y-83947000D03*
X89916000Y-86487000D03*
D22*
X96291500Y-69596000D03*
X94716500Y-69596000D03*
D18*
X94843500Y-75438000D03*
X96418500Y-75438000D03*
D23*
X96758000Y-94274000D03*
X96758000Y-89114000D03*
X94758000Y-94274000D03*
X94758000Y-89114000D03*
D24*
X91542000Y-94121000D03*
X91542000Y-91821000D03*
X91542000Y-89521000D03*
D25*
X85242000Y-91821000D03*
D10*
X81392500Y-91913000D03*
X73792500Y-91913000D03*
X73792500Y-76673000D03*
X81392500Y-79213000D03*
D26*
X102743000Y-78486000D03*
X97536000Y-83367999D03*
X112522000Y-86487000D03*
X102616000Y-84455000D03*
X102616000Y-86487000D03*
D27*
X100979000Y-65772000D02*
X114758000Y-65772000D01*
X96537000Y-73467000D02*
X95937000Y-73467000D01*
D28*
X79093000Y-86612500D02*
X73792500Y-91913000D01*
D27*
X95377000Y-72009000D02*
X95377000Y-71247000D01*
X95819000Y-71567000D02*
X96537000Y-71567000D01*
X95937000Y-73467000D02*
X95377000Y-72907000D01*
X97155000Y-69596000D02*
X100979000Y-65772000D01*
X95377000Y-72263000D02*
X95377000Y-72009000D01*
X95377000Y-72009000D02*
X95819000Y-71567000D01*
D28*
X84500000Y-86612500D02*
X79093000Y-86612500D01*
D27*
X96291500Y-69596000D02*
X97155000Y-69596000D01*
X95377000Y-71247000D02*
X96291500Y-70332500D01*
X96291500Y-70332500D02*
X96291500Y-69596000D01*
X95377000Y-72907000D02*
X95377000Y-72263000D01*
D28*
X81392500Y-89407500D02*
X82612500Y-88187500D01*
X85283000Y-91780000D02*
X85242000Y-91821000D01*
X81392500Y-91913000D02*
X81392500Y-89407500D01*
X82612500Y-88187500D02*
X84500000Y-88187500D01*
X84861500Y-91440500D02*
X85242000Y-91821000D01*
D27*
X86492000Y-91821000D02*
X91542000Y-91821000D01*
D28*
X85242000Y-91821000D02*
X81484500Y-91821000D01*
D27*
X85242000Y-91821000D02*
X86492000Y-91821000D01*
D28*
X81484500Y-91821000D02*
X81392500Y-91913000D01*
D27*
X85198000Y-91865000D02*
X85242000Y-91821000D01*
D29*
X94716500Y-69596000D02*
X91694000Y-69596000D01*
X115189000Y-68453000D02*
X115443000Y-68453000D01*
X94615000Y-66675000D02*
X94488000Y-66802000D01*
X96956000Y-75438000D02*
X97536000Y-74858000D01*
X94758000Y-89114000D02*
X94758000Y-91694000D01*
X87503000Y-73787000D02*
X91694000Y-69596000D01*
X97536000Y-72517000D02*
X97536000Y-71628000D01*
X99440000Y-72517000D02*
X99441000Y-72518000D01*
X96537000Y-72517000D02*
X97536000Y-72517000D01*
X92792000Y-89521000D02*
X94758000Y-91487000D01*
X116332000Y-51946000D02*
X114758000Y-50372000D01*
X97941000Y-74518000D02*
X99441000Y-74518000D01*
X97536000Y-74113000D02*
X97941000Y-74518000D01*
X94488000Y-66802000D02*
X110918000Y-50372000D01*
X115443000Y-68453000D02*
X116332000Y-67564000D01*
X96418500Y-75438000D02*
X96956000Y-75438000D01*
X87503000Y-75057000D02*
X87503000Y-73787000D01*
X88816000Y-73787000D02*
X87546000Y-75057000D01*
X97536000Y-71628000D02*
X100711000Y-68453000D01*
X87546000Y-75057000D02*
X87503000Y-75057000D01*
X97536000Y-73914000D02*
X97536000Y-74113000D01*
X91542000Y-89521000D02*
X88632000Y-89521000D01*
X87503000Y-88392000D02*
X87503000Y-75057000D01*
X88632000Y-89521000D02*
X87503000Y-88392000D01*
X94758000Y-91694000D02*
X94758000Y-94274000D01*
X97536000Y-73660000D02*
X97536000Y-73914000D01*
X110918000Y-50372000D02*
X114758000Y-50372000D01*
X97536000Y-72517000D02*
X99440000Y-72517000D01*
X97536000Y-72517000D02*
X97536000Y-73660000D01*
X91542000Y-89521000D02*
X92792000Y-89521000D01*
X91694000Y-69596000D02*
X94488000Y-66802000D01*
X94716500Y-89028500D02*
X94631000Y-89114000D01*
X89916000Y-73787000D02*
X88816000Y-73787000D01*
X94758000Y-91487000D02*
X94758000Y-91694000D01*
X94716500Y-86614000D02*
X94716500Y-89028500D01*
X116332000Y-67564000D02*
X116332000Y-51946000D01*
X100711000Y-68453000D02*
X115189000Y-68453000D01*
X97536000Y-74858000D02*
X97536000Y-73660000D01*
D28*
X96291500Y-86614000D02*
X96291500Y-84796500D01*
X96291500Y-84796500D02*
X96506000Y-84582000D01*
D30*
X94131000Y-82550000D02*
X93599000Y-82018000D01*
X93726000Y-74676000D02*
X94217000Y-74185000D01*
X94756000Y-82550000D02*
X94131000Y-82550000D01*
X114641000Y-82518000D02*
X113411000Y-82518000D01*
X105601000Y-76518000D02*
X111601000Y-82518000D01*
X113411000Y-82518000D02*
X113141000Y-82518000D01*
X94217000Y-74185000D02*
X94217000Y-73467000D01*
X93599000Y-78994000D02*
X93599000Y-78232000D01*
X107887000Y-76518000D02*
X111887000Y-72518000D01*
X93599000Y-80010000D02*
X93599000Y-78994000D01*
X99441000Y-76518000D02*
X94171000Y-76518000D01*
X93599000Y-81788000D02*
X93599000Y-83425000D01*
X94306000Y-75438000D02*
X93726000Y-74858000D01*
X99441000Y-76518000D02*
X105601000Y-76518000D01*
X94171000Y-76518000D02*
X93599000Y-75946000D01*
X93853000Y-78486000D02*
X93599000Y-78232000D01*
X93599000Y-78232000D02*
X93599000Y-77470000D01*
X93726000Y-74858000D02*
X93726000Y-74676000D01*
D28*
X92075000Y-76327000D02*
X89916000Y-76327000D01*
D30*
X93599000Y-83425000D02*
X94756000Y-84582000D01*
D28*
X93599000Y-74803000D02*
X92075000Y-76327000D01*
D30*
X114641000Y-72518000D02*
X113141000Y-72518000D01*
X93599000Y-82018000D02*
X93599000Y-81788000D01*
X94843500Y-75438000D02*
X94306000Y-75438000D01*
X105601000Y-76518000D02*
X107887000Y-76518000D01*
X93599000Y-75946000D02*
X93599000Y-74803000D01*
X93599000Y-81050000D02*
X93599000Y-81788000D01*
X94756000Y-78486000D02*
X93853000Y-78486000D01*
X111887000Y-72518000D02*
X114641000Y-72518000D01*
X94107000Y-80518000D02*
X93599000Y-80010000D01*
X93599000Y-81050000D02*
X93599000Y-80010000D01*
X93599000Y-77470000D02*
X93599000Y-75946000D01*
X94756000Y-80518000D02*
X94107000Y-80518000D01*
X111601000Y-82518000D02*
X113411000Y-82518000D01*
X93599000Y-74803000D02*
X93726000Y-74676000D01*
D28*
X97917000Y-80518000D02*
X99441000Y-80518000D01*
X104013000Y-82550000D02*
X104013000Y-86233000D01*
X96758000Y-89114000D02*
X96758000Y-94274000D01*
X99441000Y-80518000D02*
X101981000Y-80518000D01*
X96758000Y-88739000D02*
X96758000Y-89114000D01*
X96506000Y-80518000D02*
X97917000Y-80518000D01*
X97867000Y-87630000D02*
X96758000Y-88739000D01*
X102616000Y-87630000D02*
X97867000Y-87630000D01*
X101981000Y-80518000D02*
X104013000Y-82550000D01*
X104013000Y-86233000D02*
X102616000Y-87630000D01*
X99473000Y-78486000D02*
X99441000Y-78518000D01*
X102743000Y-78486000D02*
X99473000Y-78486000D01*
X99409000Y-78486000D02*
X99441000Y-78518000D01*
X96506000Y-78486000D02*
X99409000Y-78486000D01*
X97536000Y-83367999D02*
X97464999Y-83439000D01*
X97464999Y-83439000D02*
X97395000Y-83439000D01*
X112522000Y-86487000D02*
X114610000Y-86487000D01*
X97395000Y-83439000D02*
X96506000Y-82550000D01*
X114610000Y-86487000D02*
X114641000Y-86518000D01*
X115570000Y-95885000D02*
X91948000Y-95885000D01*
X116967000Y-81344000D02*
X116967000Y-94488000D01*
X91542000Y-95479000D02*
X91542000Y-94121000D01*
X91948000Y-95885000D02*
X91542000Y-95479000D01*
X116141000Y-80518000D02*
X116967000Y-81344000D01*
X116967000Y-94488000D02*
X115570000Y-95885000D01*
X114641000Y-80518000D02*
X116141000Y-80518000D01*
X99441000Y-84518000D02*
X102553000Y-84518000D01*
X99472000Y-86487000D02*
X99441000Y-86518000D01*
X102616000Y-86487000D02*
X99472000Y-86487000D01*
G04 #@! TA.AperFunction,Conductor*
G36*
X116782534Y-48280002D02*
G01*
X116829027Y-48333658D01*
X116840412Y-48385586D01*
X116895596Y-65216810D01*
X116944462Y-80120955D01*
X116924684Y-80189141D01*
X116871181Y-80235809D01*
X116800940Y-80246144D01*
X116736263Y-80216862D01*
X116729368Y-80210463D01*
X116644652Y-80125747D01*
X116637112Y-80117461D01*
X116633000Y-80110982D01*
X116583348Y-80064356D01*
X116580507Y-80061602D01*
X116560770Y-80041865D01*
X116557573Y-80039385D01*
X116548551Y-80031680D01*
X116522100Y-80006841D01*
X116516321Y-80001414D01*
X116509375Y-79997595D01*
X116509372Y-79997593D01*
X116498566Y-79991652D01*
X116482047Y-79980801D01*
X116472354Y-79973283D01*
X116466041Y-79968386D01*
X116454857Y-79963546D01*
X116452278Y-79961400D01*
X116451943Y-79961202D01*
X116451975Y-79961148D01*
X116400284Y-79918135D01*
X116386918Y-79892140D01*
X116349010Y-79791021D01*
X116341615Y-79771295D01*
X116254261Y-79654739D01*
X116206340Y-79618824D01*
X116163827Y-79561967D01*
X116158801Y-79491149D01*
X116192861Y-79428855D01*
X116206330Y-79417183D01*
X116254261Y-79381261D01*
X116341615Y-79264705D01*
X116392745Y-79128316D01*
X116399500Y-79066134D01*
X116399500Y-77969866D01*
X116392745Y-77907684D01*
X116341615Y-77771295D01*
X116254261Y-77654739D01*
X116206340Y-77618824D01*
X116163827Y-77561967D01*
X116158801Y-77491149D01*
X116192861Y-77428855D01*
X116206330Y-77417183D01*
X116254261Y-77381261D01*
X116341615Y-77264705D01*
X116392745Y-77128316D01*
X116399500Y-77066134D01*
X116399500Y-75969866D01*
X116392745Y-75907684D01*
X116341615Y-75771295D01*
X116254261Y-75654739D01*
X116206340Y-75618824D01*
X116163827Y-75561967D01*
X116158801Y-75491149D01*
X116192861Y-75428855D01*
X116206330Y-75417183D01*
X116254261Y-75381261D01*
X116341615Y-75264705D01*
X116392745Y-75128316D01*
X116399500Y-75066134D01*
X116399500Y-73969866D01*
X116392745Y-73907684D01*
X116341615Y-73771295D01*
X116254261Y-73654739D01*
X116206340Y-73618824D01*
X116163827Y-73561967D01*
X116158801Y-73491149D01*
X116192861Y-73428855D01*
X116206330Y-73417183D01*
X116254261Y-73381261D01*
X116341615Y-73264705D01*
X116392745Y-73128316D01*
X116399500Y-73066134D01*
X116399500Y-71969866D01*
X116392745Y-71907684D01*
X116341615Y-71771295D01*
X116254261Y-71654739D01*
X116137705Y-71567385D01*
X116001316Y-71516255D01*
X115939134Y-71509500D01*
X113342866Y-71509500D01*
X113280684Y-71516255D01*
X113219729Y-71539106D01*
X113148923Y-71544289D01*
X113086554Y-71510369D01*
X113052425Y-71448113D01*
X113049500Y-71421124D01*
X113049500Y-70069866D01*
X113042745Y-70007684D01*
X112991615Y-69871295D01*
X112904261Y-69754739D01*
X112787705Y-69667385D01*
X112651316Y-69616255D01*
X112589134Y-69609500D01*
X111492866Y-69609500D01*
X111430684Y-69616255D01*
X111294295Y-69667385D01*
X111177739Y-69754739D01*
X111141824Y-69802660D01*
X111084967Y-69845173D01*
X111014149Y-69850199D01*
X110951855Y-69816139D01*
X110940183Y-69802670D01*
X110904261Y-69754739D01*
X110787705Y-69667385D01*
X110651316Y-69616255D01*
X110589134Y-69609500D01*
X109492866Y-69609500D01*
X109430684Y-69616255D01*
X109294295Y-69667385D01*
X109177739Y-69754739D01*
X109141824Y-69802660D01*
X109084967Y-69845173D01*
X109014149Y-69850199D01*
X108951855Y-69816139D01*
X108940183Y-69802670D01*
X108904261Y-69754739D01*
X108787705Y-69667385D01*
X108651316Y-69616255D01*
X108589134Y-69609500D01*
X107492866Y-69609500D01*
X107430684Y-69616255D01*
X107294295Y-69667385D01*
X107177739Y-69754739D01*
X107141824Y-69802660D01*
X107084967Y-69845173D01*
X107014149Y-69850199D01*
X106951855Y-69816139D01*
X106940183Y-69802670D01*
X106904261Y-69754739D01*
X106787705Y-69667385D01*
X106651316Y-69616255D01*
X106589134Y-69609500D01*
X105492866Y-69609500D01*
X105430684Y-69616255D01*
X105294295Y-69667385D01*
X105177739Y-69754739D01*
X105141824Y-69802660D01*
X105084967Y-69845173D01*
X105014149Y-69850199D01*
X104951855Y-69816139D01*
X104940183Y-69802670D01*
X104904261Y-69754739D01*
X104787705Y-69667385D01*
X104651316Y-69616255D01*
X104589134Y-69609500D01*
X103492866Y-69609500D01*
X103430684Y-69616255D01*
X103294295Y-69667385D01*
X103177739Y-69754739D01*
X103141824Y-69802660D01*
X103084967Y-69845173D01*
X103014149Y-69850199D01*
X102951855Y-69816139D01*
X102940183Y-69802670D01*
X102904261Y-69754739D01*
X102787705Y-69667385D01*
X102651316Y-69616255D01*
X102589134Y-69609500D01*
X101492866Y-69609500D01*
X101430684Y-69616255D01*
X101294295Y-69667385D01*
X101177739Y-69754739D01*
X101090385Y-69871295D01*
X101039255Y-70007684D01*
X101032500Y-70069866D01*
X101032500Y-71421658D01*
X101012498Y-71489779D01*
X100958842Y-71536272D01*
X100888568Y-71546376D01*
X100862270Y-71539640D01*
X100808605Y-71519522D01*
X100793351Y-71515895D01*
X100742486Y-71510369D01*
X100735672Y-71510000D01*
X99713115Y-71510000D01*
X99697876Y-71514475D01*
X99696671Y-71515865D01*
X99695000Y-71523548D01*
X99695000Y-72245885D01*
X99699475Y-72261124D01*
X99700865Y-72262329D01*
X99708548Y-72264000D01*
X101112732Y-72264000D01*
X101180853Y-72284002D01*
X101188297Y-72289174D01*
X101294295Y-72368615D01*
X101430684Y-72419745D01*
X101492866Y-72426500D01*
X102589134Y-72426500D01*
X102651316Y-72419745D01*
X102787705Y-72368615D01*
X102904261Y-72281261D01*
X102940176Y-72233340D01*
X102997033Y-72190827D01*
X103067851Y-72185801D01*
X103130145Y-72219861D01*
X103141817Y-72233330D01*
X103177739Y-72281261D01*
X103294295Y-72368615D01*
X103430684Y-72419745D01*
X103492866Y-72426500D01*
X104589134Y-72426500D01*
X104651316Y-72419745D01*
X104787705Y-72368615D01*
X104904261Y-72281261D01*
X104940176Y-72233340D01*
X104997033Y-72190827D01*
X105067851Y-72185801D01*
X105130145Y-72219861D01*
X105141817Y-72233330D01*
X105177739Y-72281261D01*
X105294295Y-72368615D01*
X105430684Y-72419745D01*
X105492866Y-72426500D01*
X106589134Y-72426500D01*
X106651316Y-72419745D01*
X106787705Y-72368615D01*
X106904261Y-72281261D01*
X106940176Y-72233340D01*
X106997033Y-72190827D01*
X107067851Y-72185801D01*
X107130145Y-72219861D01*
X107141817Y-72233330D01*
X107177739Y-72281261D01*
X107294295Y-72368615D01*
X107430684Y-72419745D01*
X107492866Y-72426500D01*
X108589134Y-72426500D01*
X108651316Y-72419745D01*
X108787705Y-72368615D01*
X108904261Y-72281261D01*
X108940176Y-72233340D01*
X108997033Y-72190827D01*
X109067851Y-72185801D01*
X109130145Y-72219861D01*
X109141817Y-72233330D01*
X109177739Y-72281261D01*
X109294295Y-72368615D01*
X109430684Y-72419745D01*
X109492866Y-72426500D01*
X110589134Y-72426500D01*
X110651316Y-72419745D01*
X110658712Y-72416973D01*
X110658718Y-72416971D01*
X110750943Y-72382397D01*
X110821750Y-72377214D01*
X110884119Y-72411135D01*
X110918248Y-72473390D01*
X110913301Y-72544214D01*
X110884267Y-72589474D01*
X109260063Y-74213677D01*
X107651145Y-75822595D01*
X107588833Y-75856621D01*
X107562050Y-75859500D01*
X105662741Y-75859500D01*
X105643031Y-75857949D01*
X105629677Y-75855834D01*
X105621848Y-75854594D01*
X105575859Y-75858941D01*
X105564004Y-75859500D01*
X101262009Y-75859500D01*
X101193888Y-75839498D01*
X101147395Y-75785842D01*
X101145097Y-75780306D01*
X101144767Y-75779703D01*
X101141615Y-75771295D01*
X101054261Y-75654739D01*
X101005926Y-75618514D01*
X100963411Y-75561655D01*
X100958385Y-75490836D01*
X100992445Y-75428543D01*
X101005925Y-75416862D01*
X101046726Y-75386283D01*
X101059285Y-75373724D01*
X101135786Y-75271649D01*
X101144324Y-75256054D01*
X101189478Y-75135606D01*
X101193105Y-75120351D01*
X101198631Y-75069486D01*
X101199000Y-75062672D01*
X101199000Y-74790115D01*
X101194525Y-74774876D01*
X101193135Y-74773671D01*
X101185452Y-74772000D01*
X97701116Y-74772000D01*
X97685877Y-74776475D01*
X97684672Y-74777865D01*
X97683001Y-74785548D01*
X97683001Y-75062669D01*
X97683371Y-75069490D01*
X97688895Y-75120352D01*
X97692521Y-75135604D01*
X97737676Y-75256054D01*
X97746214Y-75271649D01*
X97822715Y-75373724D01*
X97835274Y-75386283D01*
X97876075Y-75416862D01*
X97918589Y-75473722D01*
X97923614Y-75544540D01*
X97889554Y-75606834D01*
X97876075Y-75618513D01*
X97827739Y-75654739D01*
X97740385Y-75771295D01*
X97737233Y-75779703D01*
X97732923Y-75787575D01*
X97731259Y-75786664D01*
X97695337Y-75834490D01*
X97628776Y-75859193D01*
X97619991Y-75859500D01*
X97490000Y-75859500D01*
X97421879Y-75839498D01*
X97375386Y-75785842D01*
X97364000Y-75733500D01*
X97364000Y-75710115D01*
X97359525Y-75694876D01*
X97358135Y-75693671D01*
X97350452Y-75692000D01*
X96290500Y-75692000D01*
X96222379Y-75671998D01*
X96175886Y-75618342D01*
X96164500Y-75566000D01*
X96164500Y-75310000D01*
X96184502Y-75241879D01*
X96238158Y-75195386D01*
X96290500Y-75184000D01*
X97345885Y-75184000D01*
X97361124Y-75179525D01*
X97362329Y-75178135D01*
X97364000Y-75170452D01*
X97364000Y-75136734D01*
X97363663Y-75130218D01*
X97354196Y-75038979D01*
X97351303Y-75025583D01*
X97302170Y-74878313D01*
X97295996Y-74865134D01*
X97214530Y-74733486D01*
X97205494Y-74722085D01*
X97095920Y-74612702D01*
X97084509Y-74603690D01*
X96952709Y-74522447D01*
X96939532Y-74516303D01*
X96818302Y-74476093D01*
X96759942Y-74435663D01*
X96732705Y-74370099D01*
X96745238Y-74300217D01*
X96793563Y-74248205D01*
X96802003Y-74245885D01*
X97683000Y-74245885D01*
X97687475Y-74261124D01*
X97688865Y-74262329D01*
X97696548Y-74264000D01*
X99168885Y-74264000D01*
X99184124Y-74259525D01*
X99185329Y-74258135D01*
X99187000Y-74250452D01*
X99187000Y-74245885D01*
X99695000Y-74245885D01*
X99699475Y-74261124D01*
X99700865Y-74262329D01*
X99708548Y-74264000D01*
X101180884Y-74264000D01*
X101196123Y-74259525D01*
X101197328Y-74258135D01*
X101198999Y-74250452D01*
X101198999Y-73973331D01*
X101198629Y-73966510D01*
X101193105Y-73915648D01*
X101189479Y-73900396D01*
X101144324Y-73779946D01*
X101135786Y-73764351D01*
X101059285Y-73662276D01*
X101046724Y-73649715D01*
X101005509Y-73618826D01*
X100962994Y-73561967D01*
X100957968Y-73491148D01*
X100992028Y-73428855D01*
X101005509Y-73417174D01*
X101046724Y-73386285D01*
X101059285Y-73373724D01*
X101135786Y-73271649D01*
X101144324Y-73256054D01*
X101189478Y-73135606D01*
X101193105Y-73120351D01*
X101198631Y-73069486D01*
X101199000Y-73062672D01*
X101199000Y-72790115D01*
X101194525Y-72774876D01*
X101193135Y-72773671D01*
X101185452Y-72772000D01*
X99713115Y-72772000D01*
X99697876Y-72776475D01*
X99696671Y-72777865D01*
X99695000Y-72785548D01*
X99695000Y-74245885D01*
X99187000Y-74245885D01*
X99187000Y-72790115D01*
X99182525Y-72774876D01*
X99181135Y-72773671D01*
X99173452Y-72772000D01*
X97701116Y-72772000D01*
X97685877Y-72776475D01*
X97684672Y-72777865D01*
X97683001Y-72785548D01*
X97683001Y-73062669D01*
X97683371Y-73069490D01*
X97688895Y-73120352D01*
X97692521Y-73135604D01*
X97737676Y-73256054D01*
X97746214Y-73271649D01*
X97822715Y-73373724D01*
X97835276Y-73386285D01*
X97876491Y-73417174D01*
X97919006Y-73474033D01*
X97924032Y-73544852D01*
X97889972Y-73607145D01*
X97876491Y-73618826D01*
X97835276Y-73649715D01*
X97822715Y-73662276D01*
X97746214Y-73764351D01*
X97737676Y-73779946D01*
X97692522Y-73900394D01*
X97688895Y-73915649D01*
X97683369Y-73966514D01*
X97683000Y-73973328D01*
X97683000Y-74245885D01*
X96802003Y-74245885D01*
X96857969Y-74230500D01*
X96935134Y-74230500D01*
X96997316Y-74223745D01*
X97133705Y-74172615D01*
X97250261Y-74085261D01*
X97337615Y-73968705D01*
X97388745Y-73832316D01*
X97395500Y-73770134D01*
X97395500Y-73163866D01*
X97388745Y-73101684D01*
X97363940Y-73035517D01*
X97358757Y-72964711D01*
X97363940Y-72947058D01*
X97385478Y-72889605D01*
X97389105Y-72874351D01*
X97394631Y-72823486D01*
X97395000Y-72816672D01*
X97395000Y-72789115D01*
X97390525Y-72773876D01*
X97389135Y-72772671D01*
X97381452Y-72771000D01*
X97180852Y-72771000D01*
X97134542Y-72759153D01*
X97133705Y-72761385D01*
X96997316Y-72710255D01*
X96935134Y-72703500D01*
X96409000Y-72703500D01*
X96340879Y-72683498D01*
X96294386Y-72629842D01*
X96283000Y-72577500D01*
X96283000Y-72456500D01*
X96303002Y-72388379D01*
X96356658Y-72341886D01*
X96409000Y-72330500D01*
X96935134Y-72330500D01*
X96997316Y-72323745D01*
X97133705Y-72272615D01*
X97134542Y-72274847D01*
X97180852Y-72263000D01*
X97376884Y-72263000D01*
X97392123Y-72258525D01*
X97393328Y-72257135D01*
X97394999Y-72249452D01*
X97394999Y-72245885D01*
X97683000Y-72245885D01*
X97687475Y-72261124D01*
X97688865Y-72262329D01*
X97696548Y-72264000D01*
X99168885Y-72264000D01*
X99184124Y-72259525D01*
X99185329Y-72258135D01*
X99187000Y-72250452D01*
X99187000Y-71528116D01*
X99182525Y-71512877D01*
X99181135Y-71511672D01*
X99173452Y-71510001D01*
X98146331Y-71510001D01*
X98139510Y-71510371D01*
X98088648Y-71515895D01*
X98073396Y-71519521D01*
X97952946Y-71564676D01*
X97937351Y-71573214D01*
X97835276Y-71649715D01*
X97822715Y-71662276D01*
X97746214Y-71764351D01*
X97737676Y-71779946D01*
X97692522Y-71900394D01*
X97688895Y-71915649D01*
X97683369Y-71966514D01*
X97683000Y-71973328D01*
X97683000Y-72245885D01*
X97394999Y-72245885D01*
X97394999Y-72217331D01*
X97394629Y-72210510D01*
X97389105Y-72159648D01*
X97385479Y-72144397D01*
X97363940Y-72086942D01*
X97358757Y-72016135D01*
X97363940Y-71998482D01*
X97374668Y-71969866D01*
X97388745Y-71932316D01*
X97395500Y-71870134D01*
X97395500Y-71263866D01*
X97388745Y-71201684D01*
X97337615Y-71065295D01*
X97250261Y-70948739D01*
X97133705Y-70861385D01*
X96997316Y-70810255D01*
X96991859Y-70809662D01*
X96931142Y-70774976D01*
X96898321Y-70712021D01*
X96904541Y-70641841D01*
X96920640Y-70600549D01*
X96923197Y-70594466D01*
X96945386Y-70545323D01*
X96948514Y-70538396D01*
X96949899Y-70530924D01*
X96951419Y-70526073D01*
X96954362Y-70515743D01*
X96955630Y-70510803D01*
X96958389Y-70503728D01*
X96963339Y-70466134D01*
X96963579Y-70464309D01*
X96992302Y-70399382D01*
X96999328Y-70391739D01*
X97072117Y-70318823D01*
X97134399Y-70284744D01*
X97169857Y-70282133D01*
X97183455Y-70283060D01*
X97183460Y-70283060D01*
X97191034Y-70283576D01*
X97198511Y-70282271D01*
X97198514Y-70282271D01*
X97251647Y-70272998D01*
X97258171Y-70272035D01*
X97311691Y-70265558D01*
X97319235Y-70264645D01*
X97326345Y-70261958D01*
X97331248Y-70260754D01*
X97341734Y-70257886D01*
X97346526Y-70256439D01*
X97354004Y-70255134D01*
X97370976Y-70247684D01*
X97410341Y-70230405D01*
X97416446Y-70227914D01*
X97466882Y-70208855D01*
X97466885Y-70208853D01*
X97473989Y-70206169D01*
X97480246Y-70201869D01*
X97484714Y-70199533D01*
X97494160Y-70194275D01*
X97498526Y-70191693D01*
X97505485Y-70188638D01*
X97554304Y-70151177D01*
X97559623Y-70147314D01*
X97604065Y-70116769D01*
X97610326Y-70112466D01*
X97650233Y-70067676D01*
X97655213Y-70062402D01*
X101225210Y-66492405D01*
X101287522Y-66458379D01*
X101314305Y-66455500D01*
X113053556Y-66455500D01*
X113121677Y-66475502D01*
X113164548Y-66521862D01*
X113213753Y-66613437D01*
X113270737Y-66719491D01*
X113273532Y-66723234D01*
X113273534Y-66723237D01*
X113424330Y-66925177D01*
X113424335Y-66925183D01*
X113427122Y-66928915D01*
X113430431Y-66932195D01*
X113430436Y-66932201D01*
X113609426Y-67109635D01*
X113612743Y-67112923D01*
X113616505Y-67115681D01*
X113616508Y-67115684D01*
X113819750Y-67264707D01*
X113823524Y-67267474D01*
X113827667Y-67269654D01*
X113827669Y-67269655D01*
X114050684Y-67386989D01*
X114050689Y-67386991D01*
X114054834Y-67389172D01*
X114301590Y-67475344D01*
X114306183Y-67476216D01*
X114553785Y-67523224D01*
X114553788Y-67523224D01*
X114558374Y-67524095D01*
X114688958Y-67529226D01*
X114814875Y-67534174D01*
X114814881Y-67534174D01*
X114819543Y-67534357D01*
X114898977Y-67525657D01*
X115074707Y-67506412D01*
X115074712Y-67506411D01*
X115079360Y-67505902D01*
X115192116Y-67476216D01*
X115327594Y-67440548D01*
X115327596Y-67440547D01*
X115332117Y-67439357D01*
X115572262Y-67336182D01*
X115794519Y-67198646D01*
X115798082Y-67195629D01*
X115798087Y-67195626D01*
X115990439Y-67032787D01*
X115990440Y-67032786D01*
X115994005Y-67029768D01*
X116085729Y-66925177D01*
X116163257Y-66836774D01*
X116163261Y-66836769D01*
X116166339Y-66833259D01*
X116307733Y-66613437D01*
X116415083Y-66375129D01*
X116440022Y-66286704D01*
X116484760Y-66128076D01*
X116484761Y-66128073D01*
X116486030Y-66123572D01*
X116499968Y-66014010D01*
X116518616Y-65867421D01*
X116518616Y-65867417D01*
X116519014Y-65864291D01*
X116519302Y-65853321D01*
X116521348Y-65775160D01*
X116521431Y-65772000D01*
X116502061Y-65511348D01*
X116494546Y-65478133D01*
X116454311Y-65300323D01*
X116444377Y-65256423D01*
X116429755Y-65218822D01*
X116351340Y-65017176D01*
X116351339Y-65017173D01*
X116349647Y-65012823D01*
X116219951Y-64785902D01*
X116058138Y-64580643D01*
X115867763Y-64401557D01*
X115653009Y-64252576D01*
X115648816Y-64250508D01*
X115422781Y-64139040D01*
X115422778Y-64139039D01*
X115418593Y-64136975D01*
X115372449Y-64122204D01*
X115174123Y-64058720D01*
X115169665Y-64057293D01*
X114911693Y-64015279D01*
X114797942Y-64013790D01*
X114655022Y-64011919D01*
X114655019Y-64011919D01*
X114650345Y-64011858D01*
X114391362Y-64047104D01*
X114140433Y-64120243D01*
X114136180Y-64122203D01*
X114136179Y-64122204D01*
X114099659Y-64139040D01*
X113903072Y-64229668D01*
X113864067Y-64255241D01*
X113688404Y-64370410D01*
X113688399Y-64370414D01*
X113684491Y-64372976D01*
X113489494Y-64547018D01*
X113322363Y-64747970D01*
X113186771Y-64971419D01*
X113184962Y-64975733D01*
X113170079Y-65011225D01*
X113125290Y-65066312D01*
X113053882Y-65088500D01*
X101007056Y-65088500D01*
X100998486Y-65088208D01*
X100997443Y-65088137D01*
X100942966Y-65084423D01*
X100935489Y-65085728D01*
X100935486Y-65085728D01*
X100882342Y-65095003D01*
X100875819Y-65095966D01*
X100822308Y-65102442D01*
X100822307Y-65102442D01*
X100814765Y-65103355D01*
X100807655Y-65106041D01*
X100802752Y-65107246D01*
X100792266Y-65110114D01*
X100787474Y-65111561D01*
X100779996Y-65112866D01*
X100773044Y-65115918D01*
X100773043Y-65115918D01*
X100723659Y-65137595D01*
X100717554Y-65140086D01*
X100667118Y-65159145D01*
X100667115Y-65159147D01*
X100660011Y-65161831D01*
X100653754Y-65166131D01*
X100649286Y-65168467D01*
X100639840Y-65173725D01*
X100635474Y-65176307D01*
X100628515Y-65179362D01*
X100579696Y-65216823D01*
X100574377Y-65220686D01*
X100535679Y-65247283D01*
X100523674Y-65255534D01*
X100518623Y-65261203D01*
X100483768Y-65300323D01*
X100478787Y-65305598D01*
X97068627Y-68715758D01*
X97006315Y-68749784D01*
X96935500Y-68744719D01*
X96913416Y-68733923D01*
X96906923Y-68729921D01*
X96819692Y-68676151D01*
X96812743Y-68673846D01*
X96665262Y-68624928D01*
X96665260Y-68624928D01*
X96658731Y-68622762D01*
X96558572Y-68612500D01*
X96024428Y-68612500D01*
X96021182Y-68612837D01*
X96021178Y-68612837D01*
X95991890Y-68615876D01*
X95923018Y-68623022D01*
X95762151Y-68676692D01*
X95617945Y-68765929D01*
X95612776Y-68771107D01*
X95592759Y-68791159D01*
X95530477Y-68825238D01*
X95459657Y-68820235D01*
X95414568Y-68791314D01*
X95393920Y-68770702D01*
X95382509Y-68761690D01*
X95250709Y-68680447D01*
X95237532Y-68674303D01*
X95090157Y-68625421D01*
X95076790Y-68622555D01*
X94987300Y-68613386D01*
X94973376Y-68617475D01*
X94972171Y-68618865D01*
X94970500Y-68626548D01*
X94970500Y-70560882D01*
X94978038Y-70586553D01*
X94978038Y-70657550D01*
X94946237Y-70711148D01*
X94913541Y-70743844D01*
X94907276Y-70749698D01*
X94865330Y-70786290D01*
X94860963Y-70792504D01*
X94860130Y-70793429D01*
X94799685Y-70830671D01*
X94722262Y-70827104D01*
X94684718Y-70813029D01*
X94684711Y-70813027D01*
X94677316Y-70810255D01*
X94615134Y-70803500D01*
X94537118Y-70803500D01*
X94468997Y-70783498D01*
X94422504Y-70729842D01*
X94412400Y-70659568D01*
X94441893Y-70594988D01*
X94460829Y-70573135D01*
X94462500Y-70565452D01*
X94462500Y-69868115D01*
X94458025Y-69852876D01*
X94456635Y-69851671D01*
X94448952Y-69850000D01*
X93789115Y-69850000D01*
X93773876Y-69854475D01*
X93772671Y-69855865D01*
X93771000Y-69863548D01*
X93771000Y-69897266D01*
X93771337Y-69903782D01*
X93780804Y-69995021D01*
X93783697Y-70008417D01*
X93832830Y-70155687D01*
X93839004Y-70168866D01*
X93920470Y-70300514D01*
X93929506Y-70311915D01*
X94039080Y-70421298D01*
X94050491Y-70430310D01*
X94182291Y-70511553D01*
X94195468Y-70517697D01*
X94316698Y-70557907D01*
X94375058Y-70598337D01*
X94402295Y-70663901D01*
X94389762Y-70733783D01*
X94341437Y-70785795D01*
X94277031Y-70803500D01*
X93818866Y-70803500D01*
X93756684Y-70810255D01*
X93620295Y-70861385D01*
X93503739Y-70948739D01*
X93416385Y-71065295D01*
X93365255Y-71201684D01*
X93358500Y-71263866D01*
X93358500Y-71870134D01*
X93365255Y-71932316D01*
X93416385Y-72068705D01*
X93503739Y-72185261D01*
X93620295Y-72272615D01*
X93756684Y-72323745D01*
X93818866Y-72330500D01*
X94567500Y-72330500D01*
X94635621Y-72350502D01*
X94682114Y-72404158D01*
X94693500Y-72456500D01*
X94693500Y-72577500D01*
X94673498Y-72645621D01*
X94619842Y-72692114D01*
X94567500Y-72703500D01*
X93818866Y-72703500D01*
X93756684Y-72710255D01*
X93620295Y-72761385D01*
X93503739Y-72848739D01*
X93416385Y-72965295D01*
X93365255Y-73101684D01*
X93358500Y-73163866D01*
X93358500Y-73770134D01*
X93365255Y-73832316D01*
X93368027Y-73839712D01*
X93368029Y-73839718D01*
X93411262Y-73955041D01*
X93416445Y-74025848D01*
X93382375Y-74088365D01*
X93318395Y-74152345D01*
X93309615Y-74160335D01*
X93309613Y-74160337D01*
X93302920Y-74164584D01*
X93297494Y-74170362D01*
X93297493Y-74170363D01*
X93254396Y-74216257D01*
X93251641Y-74219099D01*
X93191395Y-74279345D01*
X93182615Y-74287335D01*
X93182613Y-74287337D01*
X93175920Y-74291584D01*
X93170494Y-74297362D01*
X93170493Y-74297363D01*
X93127396Y-74343257D01*
X93124641Y-74346099D01*
X93104073Y-74366667D01*
X93101411Y-74370099D01*
X93101356Y-74370170D01*
X93093648Y-74379195D01*
X93062028Y-74412867D01*
X93058207Y-74419818D01*
X93058206Y-74419819D01*
X93051697Y-74431658D01*
X93040843Y-74448182D01*
X93032557Y-74458865D01*
X93027696Y-74465132D01*
X93024548Y-74472408D01*
X93020512Y-74479231D01*
X93019036Y-74478358D01*
X93000578Y-74505517D01*
X91849500Y-75656595D01*
X91787188Y-75690621D01*
X91760405Y-75693500D01*
X91192805Y-75693500D01*
X91124684Y-75673498D01*
X91087013Y-75635940D01*
X90998822Y-75499617D01*
X90998820Y-75499614D01*
X90996014Y-75495277D01*
X90992540Y-75491459D01*
X90992533Y-75491450D01*
X90848435Y-75333088D01*
X90817383Y-75269242D01*
X90825779Y-75198744D01*
X90870956Y-75143976D01*
X90897400Y-75130307D01*
X91004052Y-75090325D01*
X91019649Y-75081786D01*
X91121724Y-75005285D01*
X91134285Y-74992724D01*
X91210786Y-74890649D01*
X91219324Y-74875054D01*
X91264478Y-74754606D01*
X91268105Y-74739351D01*
X91273631Y-74688486D01*
X91274000Y-74681672D01*
X91274000Y-74059115D01*
X91269525Y-74043876D01*
X91268135Y-74042671D01*
X91260452Y-74041000D01*
X88576116Y-74041000D01*
X88560877Y-74045475D01*
X88559672Y-74046865D01*
X88558001Y-74054548D01*
X88558001Y-74681669D01*
X88558371Y-74688490D01*
X88563895Y-74739352D01*
X88567521Y-74754604D01*
X88612676Y-74875054D01*
X88621214Y-74890649D01*
X88697715Y-74992724D01*
X88710276Y-75005285D01*
X88812351Y-75081786D01*
X88827946Y-75090324D01*
X88936827Y-75131142D01*
X88993591Y-75173784D01*
X89018291Y-75240345D01*
X89003083Y-75309694D01*
X88983691Y-75336175D01*
X88895124Y-75428855D01*
X88856629Y-75469138D01*
X88853715Y-75473410D01*
X88853714Y-75473411D01*
X88841614Y-75491149D01*
X88730743Y-75653680D01*
X88713596Y-75690621D01*
X88644490Y-75839498D01*
X88636688Y-75856305D01*
X88576989Y-76071570D01*
X88553251Y-76293695D01*
X88566110Y-76516715D01*
X88567247Y-76521761D01*
X88567248Y-76521767D01*
X88581743Y-76586085D01*
X88615222Y-76734639D01*
X88675014Y-76881890D01*
X88692662Y-76925351D01*
X88699266Y-76941616D01*
X88743897Y-77014448D01*
X88810487Y-77123112D01*
X88815987Y-77132088D01*
X88962250Y-77300938D01*
X89134126Y-77443632D01*
X89186151Y-77474033D01*
X89207445Y-77486476D01*
X89256169Y-77538114D01*
X89269240Y-77607897D01*
X89242509Y-77673669D01*
X89202055Y-77707027D01*
X89189607Y-77713507D01*
X89185474Y-77716610D01*
X89185471Y-77716612D01*
X89024924Y-77837154D01*
X89010965Y-77847635D01*
X88856629Y-78009138D01*
X88730743Y-78193680D01*
X88636688Y-78396305D01*
X88576989Y-78611570D01*
X88553251Y-78833695D01*
X88553548Y-78838848D01*
X88553548Y-78838851D01*
X88559011Y-78933590D01*
X88566110Y-79056715D01*
X88567247Y-79061761D01*
X88567248Y-79061767D01*
X88568998Y-79069531D01*
X88615222Y-79274639D01*
X88699266Y-79481616D01*
X88701965Y-79486020D01*
X88805356Y-79654739D01*
X88815987Y-79672088D01*
X88962250Y-79840938D01*
X89094611Y-79950826D01*
X89121661Y-79973283D01*
X89134126Y-79983632D01*
X89196948Y-80020342D01*
X89207445Y-80026476D01*
X89256169Y-80078114D01*
X89269240Y-80147897D01*
X89242509Y-80213669D01*
X89202055Y-80247027D01*
X89189607Y-80253507D01*
X89185474Y-80256610D01*
X89185471Y-80256612D01*
X89161247Y-80274800D01*
X89010965Y-80387635D01*
X88856629Y-80549138D01*
X88730743Y-80733680D01*
X88715003Y-80767590D01*
X88639012Y-80931299D01*
X88636688Y-80936305D01*
X88576989Y-81151570D01*
X88553251Y-81373695D01*
X88553548Y-81378848D01*
X88553548Y-81378851D01*
X88558891Y-81471507D01*
X88566110Y-81596715D01*
X88567247Y-81601761D01*
X88567248Y-81601767D01*
X88587119Y-81689939D01*
X88615222Y-81814639D01*
X88699266Y-82021616D01*
X88815987Y-82212088D01*
X88962250Y-82380938D01*
X89134126Y-82523632D01*
X89158788Y-82538043D01*
X89207445Y-82566476D01*
X89256169Y-82618114D01*
X89269240Y-82687897D01*
X89242509Y-82753669D01*
X89202055Y-82787027D01*
X89189607Y-82793507D01*
X89185474Y-82796610D01*
X89185471Y-82796612D01*
X89015100Y-82924530D01*
X89010965Y-82927635D01*
X89007393Y-82931373D01*
X88881878Y-83062717D01*
X88856629Y-83089138D01*
X88853715Y-83093410D01*
X88853714Y-83093411D01*
X88819939Y-83142923D01*
X88730743Y-83273680D01*
X88693089Y-83354800D01*
X88639235Y-83470819D01*
X88636688Y-83476305D01*
X88576989Y-83691570D01*
X88553251Y-83913695D01*
X88553548Y-83918848D01*
X88553548Y-83918851D01*
X88559011Y-84013590D01*
X88566110Y-84136715D01*
X88567247Y-84141761D01*
X88567248Y-84141767D01*
X88587119Y-84229939D01*
X88615222Y-84354639D01*
X88699266Y-84561616D01*
X88815987Y-84752088D01*
X88962250Y-84920938D01*
X89134126Y-85063632D01*
X89189709Y-85096112D01*
X89207445Y-85106476D01*
X89256169Y-85158114D01*
X89269240Y-85227897D01*
X89242509Y-85293669D01*
X89202055Y-85327027D01*
X89189607Y-85333507D01*
X89185474Y-85336610D01*
X89185471Y-85336612D01*
X89042935Y-85443631D01*
X89010965Y-85467635D01*
X88987379Y-85492316D01*
X88911702Y-85571508D01*
X88856629Y-85629138D01*
X88853715Y-85633410D01*
X88853714Y-85633411D01*
X88825548Y-85674701D01*
X88730743Y-85813680D01*
X88636688Y-86016305D01*
X88576989Y-86231570D01*
X88553251Y-86453695D01*
X88553548Y-86458848D01*
X88553548Y-86458851D01*
X88562500Y-86614101D01*
X88566110Y-86676715D01*
X88567247Y-86681761D01*
X88567248Y-86681767D01*
X88580823Y-86742000D01*
X88615222Y-86894639D01*
X88699266Y-87101616D01*
X88815987Y-87292088D01*
X88962250Y-87460938D01*
X89134126Y-87603632D01*
X89327000Y-87716338D01*
X89535692Y-87796030D01*
X89540760Y-87797061D01*
X89540763Y-87797062D01*
X89648017Y-87818883D01*
X89754597Y-87840567D01*
X89759772Y-87840757D01*
X89759774Y-87840757D01*
X89972673Y-87848564D01*
X89972677Y-87848564D01*
X89977837Y-87848753D01*
X89982957Y-87848097D01*
X89982959Y-87848097D01*
X90194288Y-87821025D01*
X90194289Y-87821025D01*
X90199416Y-87820368D01*
X90204366Y-87818883D01*
X90408429Y-87757661D01*
X90408434Y-87757659D01*
X90413384Y-87756174D01*
X90613994Y-87657896D01*
X90795860Y-87528173D01*
X90855627Y-87468615D01*
X90950435Y-87374137D01*
X90954096Y-87370489D01*
X90964656Y-87355794D01*
X91081435Y-87193277D01*
X91084453Y-87189077D01*
X91089092Y-87179692D01*
X91181136Y-86993453D01*
X91181137Y-86993451D01*
X91183430Y-86988811D01*
X91218776Y-86872475D01*
X91246865Y-86780023D01*
X91246865Y-86780021D01*
X91248370Y-86775069D01*
X91277529Y-86553590D01*
X91277611Y-86550240D01*
X91279074Y-86490365D01*
X91279074Y-86490361D01*
X91279156Y-86487000D01*
X91260852Y-86264361D01*
X91206431Y-86047702D01*
X91117354Y-85842840D01*
X91064069Y-85760474D01*
X90998822Y-85659617D01*
X90998820Y-85659614D01*
X90996014Y-85655277D01*
X90845670Y-85490051D01*
X90841619Y-85486852D01*
X90841615Y-85486848D01*
X90674414Y-85354800D01*
X90674410Y-85354798D01*
X90670359Y-85351598D01*
X90629053Y-85328796D01*
X90579084Y-85278364D01*
X90564312Y-85208921D01*
X90589428Y-85142516D01*
X90616780Y-85115909D01*
X90673329Y-85075573D01*
X90795860Y-84988173D01*
X90954096Y-84830489D01*
X91013594Y-84747689D01*
X91081435Y-84653277D01*
X91084453Y-84649077D01*
X91142341Y-84531950D01*
X91181136Y-84453453D01*
X91181137Y-84453451D01*
X91183430Y-84448811D01*
X91248370Y-84235069D01*
X91277529Y-84013590D01*
X91278514Y-83973283D01*
X91279074Y-83950365D01*
X91279074Y-83950361D01*
X91279156Y-83947000D01*
X91260852Y-83724361D01*
X91206431Y-83507702D01*
X91117354Y-83302840D01*
X91037993Y-83180166D01*
X90998822Y-83119617D01*
X90998820Y-83119614D01*
X90996014Y-83115277D01*
X90845670Y-82950051D01*
X90841619Y-82946852D01*
X90841615Y-82946848D01*
X90674414Y-82814800D01*
X90674410Y-82814798D01*
X90670359Y-82811598D01*
X90629053Y-82788796D01*
X90579084Y-82738364D01*
X90564312Y-82668921D01*
X90589428Y-82602516D01*
X90616780Y-82575909D01*
X90669866Y-82538043D01*
X90795860Y-82448173D01*
X90813436Y-82430659D01*
X90905551Y-82338865D01*
X90954096Y-82290489D01*
X90973901Y-82262928D01*
X91081435Y-82113277D01*
X91084453Y-82109077D01*
X91098368Y-82080923D01*
X91181136Y-81913453D01*
X91181137Y-81913451D01*
X91183430Y-81908811D01*
X91248370Y-81695069D01*
X91277529Y-81473590D01*
X91278258Y-81443766D01*
X91279074Y-81410365D01*
X91279074Y-81410361D01*
X91279156Y-81407000D01*
X91260852Y-81184361D01*
X91206431Y-80967702D01*
X91117354Y-80762840D01*
X90996014Y-80575277D01*
X90845670Y-80410051D01*
X90841619Y-80406852D01*
X90841615Y-80406848D01*
X90674414Y-80274800D01*
X90674410Y-80274798D01*
X90670359Y-80271598D01*
X90629053Y-80248796D01*
X90579084Y-80198364D01*
X90564312Y-80128921D01*
X90589428Y-80062516D01*
X90616780Y-80035909D01*
X90678826Y-79991652D01*
X90795860Y-79908173D01*
X90808583Y-79895495D01*
X90950435Y-79754137D01*
X90954096Y-79750489D01*
X90993076Y-79696243D01*
X91081435Y-79573277D01*
X91084453Y-79569077D01*
X91090641Y-79556558D01*
X91181136Y-79373453D01*
X91181137Y-79373451D01*
X91183430Y-79368811D01*
X91244215Y-79168745D01*
X91246865Y-79160023D01*
X91246865Y-79160021D01*
X91248370Y-79155069D01*
X91277529Y-78933590D01*
X91279156Y-78867000D01*
X91260852Y-78644361D01*
X91206431Y-78427702D01*
X91117354Y-78222840D01*
X91070195Y-78149944D01*
X90998822Y-78039617D01*
X90998820Y-78039614D01*
X90996014Y-78035277D01*
X90845670Y-77870051D01*
X90841619Y-77866852D01*
X90841615Y-77866848D01*
X90674414Y-77734800D01*
X90674410Y-77734798D01*
X90670359Y-77731598D01*
X90629053Y-77708796D01*
X90579084Y-77658364D01*
X90564312Y-77588921D01*
X90589428Y-77522516D01*
X90616780Y-77495909D01*
X90660603Y-77464650D01*
X90795860Y-77368173D01*
X90954096Y-77210489D01*
X90960461Y-77201632D01*
X91081435Y-77033277D01*
X91084453Y-77029077D01*
X91086746Y-77024437D01*
X91088446Y-77021608D01*
X91140674Y-76973518D01*
X91196451Y-76960500D01*
X91996233Y-76960500D01*
X92007416Y-76961027D01*
X92014909Y-76962702D01*
X92022835Y-76962453D01*
X92022836Y-76962453D01*
X92082986Y-76960562D01*
X92086945Y-76960500D01*
X92114856Y-76960500D01*
X92118791Y-76960003D01*
X92118856Y-76959995D01*
X92130693Y-76959062D01*
X92162951Y-76958048D01*
X92166970Y-76957922D01*
X92174889Y-76957673D01*
X92194343Y-76952021D01*
X92213700Y-76948013D01*
X92225930Y-76946468D01*
X92225931Y-76946468D01*
X92233797Y-76945474D01*
X92241168Y-76942555D01*
X92241170Y-76942555D01*
X92274912Y-76929196D01*
X92286142Y-76925351D01*
X92320983Y-76915229D01*
X92320984Y-76915229D01*
X92328593Y-76913018D01*
X92335412Y-76908985D01*
X92335417Y-76908983D01*
X92346028Y-76902707D01*
X92363776Y-76894012D01*
X92382617Y-76886552D01*
X92418387Y-76860564D01*
X92428307Y-76854048D01*
X92459535Y-76835580D01*
X92459538Y-76835578D01*
X92466362Y-76831542D01*
X92480683Y-76817221D01*
X92495717Y-76804380D01*
X92505694Y-76797131D01*
X92512107Y-76792472D01*
X92540298Y-76758395D01*
X92548288Y-76749616D01*
X92725405Y-76572499D01*
X92787717Y-76538473D01*
X92858532Y-76543538D01*
X92915368Y-76586085D01*
X92940179Y-76652605D01*
X92940500Y-76661594D01*
X92940500Y-78149944D01*
X92939941Y-78161800D01*
X92938212Y-78169537D01*
X92938461Y-78177459D01*
X92940438Y-78240369D01*
X92940500Y-78244327D01*
X92940500Y-79927944D01*
X92939941Y-79939800D01*
X92938212Y-79947537D01*
X92938461Y-79955459D01*
X92940438Y-80018369D01*
X92940500Y-80022327D01*
X92940500Y-81935944D01*
X92939941Y-81947800D01*
X92938212Y-81955537D01*
X92938461Y-81963459D01*
X92940438Y-82026369D01*
X92940500Y-82030327D01*
X92940500Y-83342944D01*
X92939941Y-83354800D01*
X92938212Y-83362537D01*
X92938461Y-83370459D01*
X92940438Y-83433369D01*
X92940500Y-83437327D01*
X92940500Y-83466432D01*
X92941056Y-83470832D01*
X92941988Y-83482664D01*
X92943438Y-83528831D01*
X92948572Y-83546500D01*
X92949419Y-83549416D01*
X92953430Y-83568782D01*
X92956118Y-83590064D01*
X92959034Y-83597429D01*
X92959035Y-83597433D01*
X92973126Y-83633021D01*
X92976965Y-83644231D01*
X92989855Y-83688600D01*
X93000775Y-83707065D01*
X93009466Y-83724805D01*
X93017365Y-83744756D01*
X93044516Y-83782126D01*
X93051033Y-83792048D01*
X93070507Y-83824977D01*
X93070510Y-83824981D01*
X93074547Y-83831807D01*
X93089711Y-83846971D01*
X93102551Y-83862004D01*
X93115159Y-83879357D01*
X93150462Y-83908562D01*
X93150752Y-83908802D01*
X93159532Y-83916792D01*
X93685595Y-84442855D01*
X93719621Y-84505167D01*
X93722500Y-84531950D01*
X93722500Y-84869072D01*
X93722837Y-84872318D01*
X93722837Y-84872322D01*
X93727882Y-84920938D01*
X93733293Y-84973093D01*
X93735474Y-84979629D01*
X93735474Y-84979631D01*
X93763194Y-85062717D01*
X93788346Y-85138107D01*
X93879884Y-85286031D01*
X93885066Y-85291204D01*
X93997816Y-85403758D01*
X93997821Y-85403762D01*
X94002997Y-85408929D01*
X94009227Y-85412769D01*
X94009228Y-85412770D01*
X94151080Y-85500209D01*
X94149764Y-85502345D01*
X94194152Y-85541433D01*
X94213608Y-85609712D01*
X94193062Y-85677671D01*
X94153915Y-85715849D01*
X94049480Y-85780475D01*
X94038085Y-85789506D01*
X93928702Y-85899080D01*
X93919690Y-85910491D01*
X93838447Y-86042291D01*
X93832303Y-86055468D01*
X93783421Y-86202843D01*
X93780555Y-86216210D01*
X93771328Y-86306270D01*
X93771000Y-86312685D01*
X93771000Y-86341885D01*
X93775475Y-86357124D01*
X93776865Y-86358329D01*
X93784548Y-86360000D01*
X94844500Y-86360000D01*
X94912621Y-86380002D01*
X94959114Y-86433658D01*
X94970500Y-86486000D01*
X94970500Y-86742000D01*
X94950498Y-86810121D01*
X94896842Y-86856614D01*
X94844500Y-86868000D01*
X93789115Y-86868000D01*
X93773876Y-86872475D01*
X93772671Y-86873865D01*
X93768121Y-86894783D01*
X93763711Y-86893824D01*
X93750998Y-86937121D01*
X93697342Y-86983614D01*
X93645000Y-86995000D01*
X93345000Y-86995000D01*
X93345000Y-95121688D01*
X93324998Y-95189809D01*
X93271342Y-95236302D01*
X93216710Y-95247667D01*
X93124027Y-95245982D01*
X93056281Y-95224745D01*
X93010771Y-95170253D01*
X93001946Y-95099807D01*
X93008335Y-95075774D01*
X93040971Y-94988718D01*
X93040973Y-94988712D01*
X93043745Y-94981316D01*
X93050500Y-94919134D01*
X93050500Y-93322866D01*
X93043745Y-93260684D01*
X92992615Y-93124295D01*
X92934360Y-93046565D01*
X92909512Y-92980058D01*
X92924565Y-92910676D01*
X92934360Y-92895435D01*
X92987229Y-92824892D01*
X92987230Y-92824890D01*
X92992615Y-92817705D01*
X93043745Y-92681316D01*
X93050500Y-92619134D01*
X93050500Y-91022866D01*
X93043745Y-90960684D01*
X92992615Y-90824295D01*
X92934047Y-90746148D01*
X92909199Y-90679642D01*
X92924252Y-90610259D01*
X92934047Y-90595018D01*
X92986786Y-90524648D01*
X92995324Y-90509054D01*
X93040478Y-90388606D01*
X93044105Y-90373351D01*
X93049631Y-90322486D01*
X93050000Y-90315672D01*
X93050000Y-89793115D01*
X93045525Y-89777876D01*
X93044135Y-89776671D01*
X93036452Y-89775000D01*
X90052116Y-89775000D01*
X90036877Y-89779475D01*
X90035672Y-89780865D01*
X90034001Y-89788548D01*
X90034001Y-90315669D01*
X90034371Y-90322490D01*
X90039895Y-90373352D01*
X90043521Y-90388604D01*
X90088676Y-90509054D01*
X90097214Y-90524648D01*
X90149953Y-90595018D01*
X90174801Y-90661524D01*
X90159748Y-90730907D01*
X90149953Y-90746148D01*
X90091385Y-90824295D01*
X90040255Y-90960684D01*
X90033500Y-91022866D01*
X90032361Y-91022742D01*
X90010289Y-91085234D01*
X89954206Y-91128768D01*
X89908116Y-91137500D01*
X86876500Y-91137500D01*
X86808379Y-91117498D01*
X86761886Y-91063842D01*
X86750500Y-91011500D01*
X86750500Y-89872866D01*
X86743745Y-89810684D01*
X86692615Y-89674295D01*
X86605261Y-89557739D01*
X86581567Y-89539981D01*
X86495887Y-89475767D01*
X86495884Y-89475765D01*
X86488705Y-89470385D01*
X86441770Y-89452790D01*
X86385006Y-89410148D01*
X86360306Y-89343586D01*
X86360000Y-89334808D01*
X86360000Y-89248885D01*
X90034000Y-89248885D01*
X90038475Y-89264124D01*
X90039865Y-89265329D01*
X90047548Y-89267000D01*
X91269885Y-89267000D01*
X91285124Y-89262525D01*
X91286329Y-89261135D01*
X91288000Y-89253452D01*
X91288000Y-89248885D01*
X91796000Y-89248885D01*
X91800475Y-89264124D01*
X91801865Y-89265329D01*
X91809548Y-89267000D01*
X93031884Y-89267000D01*
X93047123Y-89262525D01*
X93048328Y-89261135D01*
X93049999Y-89253452D01*
X93049999Y-88726331D01*
X93049629Y-88719510D01*
X93044105Y-88668648D01*
X93040479Y-88653396D01*
X92995324Y-88532946D01*
X92986786Y-88517351D01*
X92910285Y-88415276D01*
X92897724Y-88402715D01*
X92795649Y-88326214D01*
X92780054Y-88317676D01*
X92659606Y-88272522D01*
X92644351Y-88268895D01*
X92593486Y-88263369D01*
X92586672Y-88263000D01*
X91814115Y-88263000D01*
X91798876Y-88267475D01*
X91797671Y-88268865D01*
X91796000Y-88276548D01*
X91796000Y-89248885D01*
X91288000Y-89248885D01*
X91288000Y-88281116D01*
X91283525Y-88265877D01*
X91282135Y-88264672D01*
X91274452Y-88263001D01*
X90497331Y-88263001D01*
X90490510Y-88263371D01*
X90439648Y-88268895D01*
X90424396Y-88272521D01*
X90303946Y-88317676D01*
X90288351Y-88326214D01*
X90186276Y-88402715D01*
X90173715Y-88415276D01*
X90097214Y-88517351D01*
X90088676Y-88532946D01*
X90043522Y-88653394D01*
X90039895Y-88668649D01*
X90034369Y-88719514D01*
X90034000Y-88726328D01*
X90034000Y-89248885D01*
X86360000Y-89248885D01*
X86360000Y-80974008D01*
X86360321Y-80965019D01*
X86362659Y-80932331D01*
X86364082Y-80920430D01*
X86365576Y-80911552D01*
X86365729Y-80899000D01*
X86361773Y-80871376D01*
X86360500Y-80853514D01*
X86360500Y-73514885D01*
X88558000Y-73514885D01*
X88562475Y-73530124D01*
X88563865Y-73531329D01*
X88571548Y-73533000D01*
X89643885Y-73533000D01*
X89659124Y-73528525D01*
X89660329Y-73527135D01*
X89662000Y-73519452D01*
X89662000Y-73514885D01*
X90170000Y-73514885D01*
X90174475Y-73530124D01*
X90175865Y-73531329D01*
X90183548Y-73533000D01*
X91255884Y-73533000D01*
X91271123Y-73528525D01*
X91272328Y-73527135D01*
X91273999Y-73519452D01*
X91273999Y-72892331D01*
X91273629Y-72885510D01*
X91268105Y-72834648D01*
X91264479Y-72819396D01*
X91219324Y-72698946D01*
X91210786Y-72683351D01*
X91134285Y-72581276D01*
X91121724Y-72568715D01*
X91019649Y-72492214D01*
X91004054Y-72483676D01*
X90883606Y-72438522D01*
X90868351Y-72434895D01*
X90817486Y-72429369D01*
X90810672Y-72429000D01*
X90188115Y-72429000D01*
X90172876Y-72433475D01*
X90171671Y-72434865D01*
X90170000Y-72442548D01*
X90170000Y-73514885D01*
X89662000Y-73514885D01*
X89662000Y-72447116D01*
X89657525Y-72431877D01*
X89656135Y-72430672D01*
X89648452Y-72429001D01*
X89021331Y-72429001D01*
X89014510Y-72429371D01*
X88963648Y-72434895D01*
X88948396Y-72438521D01*
X88827946Y-72483676D01*
X88812351Y-72492214D01*
X88710276Y-72568715D01*
X88697715Y-72581276D01*
X88621214Y-72683351D01*
X88612676Y-72698946D01*
X88567522Y-72819394D01*
X88563895Y-72834649D01*
X88558369Y-72885514D01*
X88558000Y-72892328D01*
X88558000Y-73514885D01*
X86360500Y-73514885D01*
X86360500Y-71170722D01*
X86380502Y-71102601D01*
X86396255Y-71082791D01*
X87988629Y-69448513D01*
X87989779Y-69447349D01*
X88113243Y-69323885D01*
X93771000Y-69323885D01*
X93775475Y-69339124D01*
X93776865Y-69340329D01*
X93784548Y-69342000D01*
X94444385Y-69342000D01*
X94459624Y-69337525D01*
X94460829Y-69336135D01*
X94462500Y-69328452D01*
X94462500Y-68631115D01*
X94458025Y-68615876D01*
X94456635Y-68614671D01*
X94449679Y-68613158D01*
X94446218Y-68613337D01*
X94354979Y-68622804D01*
X94341583Y-68625697D01*
X94194313Y-68674830D01*
X94181134Y-68681004D01*
X94049486Y-68762470D01*
X94038085Y-68771506D01*
X93928702Y-68881080D01*
X93919690Y-68892491D01*
X93838447Y-69024291D01*
X93832303Y-69037468D01*
X93783421Y-69184843D01*
X93780555Y-69198210D01*
X93771328Y-69288270D01*
X93771000Y-69294685D01*
X93771000Y-69323885D01*
X88113243Y-69323885D01*
X90987308Y-66449820D01*
X90996845Y-66442200D01*
X90996531Y-66441831D01*
X91003364Y-66436016D01*
X91010958Y-66431224D01*
X91046585Y-66390883D01*
X91051931Y-66385197D01*
X91063383Y-66373745D01*
X91069660Y-66365370D01*
X91076045Y-66357527D01*
X91101436Y-66328777D01*
X91107378Y-66322049D01*
X91111194Y-66313922D01*
X91112807Y-66311466D01*
X91121823Y-66296463D01*
X91123234Y-66293885D01*
X91128616Y-66286704D01*
X91145239Y-66242363D01*
X91149164Y-66233048D01*
X91168450Y-66191971D01*
X91168453Y-66191963D01*
X91169281Y-66190200D01*
X91169341Y-66189814D01*
X91173440Y-66179891D01*
X91186000Y-66167000D01*
X91186000Y-66086076D01*
X91186167Y-66081754D01*
X91186500Y-66079614D01*
X91186500Y-66064090D01*
X91186847Y-66054752D01*
X91189875Y-66014010D01*
X91189875Y-66014009D01*
X91190540Y-66005059D01*
X91188666Y-65996282D01*
X91188104Y-65988031D01*
X91186500Y-65972834D01*
X91186500Y-53520250D01*
X91188246Y-53499345D01*
X91190770Y-53484344D01*
X91190770Y-53484341D01*
X91191576Y-53479552D01*
X91191729Y-53467000D01*
X91190992Y-53461851D01*
X91190041Y-53452984D01*
X91186321Y-53400974D01*
X91186000Y-53391985D01*
X91186000Y-51781133D01*
X113713612Y-51781133D01*
X113722325Y-51792653D01*
X113820018Y-51864284D01*
X113827928Y-51869227D01*
X114050890Y-51986533D01*
X114059453Y-51990256D01*
X114297304Y-52073318D01*
X114306313Y-52075732D01*
X114553842Y-52122727D01*
X114563098Y-52123781D01*
X114814857Y-52133673D01*
X114824171Y-52133347D01*
X115074615Y-52105920D01*
X115083792Y-52104219D01*
X115327431Y-52040074D01*
X115336251Y-52037037D01*
X115567736Y-51937583D01*
X115576008Y-51933276D01*
X115790249Y-51800700D01*
X115797188Y-51795658D01*
X115805518Y-51783019D01*
X115799456Y-51772666D01*
X114770812Y-50744022D01*
X114756868Y-50736408D01*
X114755035Y-50736539D01*
X114748420Y-50740790D01*
X113720270Y-51768940D01*
X113713612Y-51781133D01*
X91186000Y-51781133D01*
X91186000Y-50330523D01*
X112995898Y-50330523D01*
X113007987Y-50582175D01*
X113009124Y-50591435D01*
X113058274Y-50838535D01*
X113060768Y-50847528D01*
X113145900Y-51084639D01*
X113149700Y-51093174D01*
X113268946Y-51315101D01*
X113273957Y-51322968D01*
X113337446Y-51407990D01*
X113348704Y-51416439D01*
X113361123Y-51409667D01*
X114385978Y-50384812D01*
X114392356Y-50373132D01*
X115122408Y-50373132D01*
X115122539Y-50374965D01*
X115126790Y-50381580D01*
X116157913Y-51412703D01*
X116170293Y-51419463D01*
X116178634Y-51413219D01*
X116304765Y-51217127D01*
X116309212Y-51208936D01*
X116412691Y-50979222D01*
X116415882Y-50970455D01*
X116484269Y-50727976D01*
X116486129Y-50718834D01*
X116518116Y-50467396D01*
X116518597Y-50461108D01*
X116520847Y-50375160D01*
X116520696Y-50368851D01*
X116501912Y-50116074D01*
X116500536Y-50106868D01*
X116444929Y-49861126D01*
X116442205Y-49852215D01*
X116350888Y-49617392D01*
X116346877Y-49608983D01*
X116221854Y-49390240D01*
X116216643Y-49382514D01*
X116179391Y-49335261D01*
X116167466Y-49326790D01*
X116155934Y-49333276D01*
X115130022Y-50359188D01*
X115122408Y-50373132D01*
X114392356Y-50373132D01*
X114393592Y-50370868D01*
X114393461Y-50369035D01*
X114389210Y-50362420D01*
X113359321Y-49332531D01*
X113346013Y-49325264D01*
X113335974Y-49332386D01*
X113325761Y-49344666D01*
X113320346Y-49352258D01*
X113189646Y-49567646D01*
X113185408Y-49575963D01*
X113087981Y-49808299D01*
X113085020Y-49817149D01*
X113023006Y-50061331D01*
X113021384Y-50070528D01*
X112996143Y-50321198D01*
X112995898Y-50330523D01*
X91186000Y-50330523D01*
X91186000Y-48960803D01*
X113711216Y-48960803D01*
X113715789Y-48970579D01*
X114745188Y-49999978D01*
X114759132Y-50007592D01*
X114760965Y-50007461D01*
X114767580Y-50003210D01*
X115796419Y-48974371D01*
X115802803Y-48962681D01*
X115793391Y-48950570D01*
X115656593Y-48855670D01*
X115648565Y-48850942D01*
X115422593Y-48739505D01*
X115413960Y-48736017D01*
X115173998Y-48659205D01*
X115164938Y-48657029D01*
X114916260Y-48616529D01*
X114906973Y-48615717D01*
X114655053Y-48612419D01*
X114645742Y-48612989D01*
X114396097Y-48646964D01*
X114386978Y-48648902D01*
X114145098Y-48719404D01*
X114136367Y-48722667D01*
X113907558Y-48828151D01*
X113899406Y-48832670D01*
X113720353Y-48950062D01*
X113711216Y-48960803D01*
X91186000Y-48960803D01*
X91186000Y-48386000D01*
X91206002Y-48317879D01*
X91259658Y-48271386D01*
X91312000Y-48260000D01*
X116714413Y-48260000D01*
X116782534Y-48280002D01*
G37*
G04 #@! TD.AperFunction*
M02*
